<svg id="kity_svg_6" xmlns="http://www.w3.org/2000/svg" xmlns:xlink="http://www.w3.org/1999/xlink" version="1.1" width="2235" height="1156" style="background: rgb(251, 251, 251); visibility: visible;" viewBox="0 0 2235 1156"><defs id="kity_defs_7"><linearGradient id="kity_linearGradient_17" x1="0" y1="0" x2="0" y2="1"><stop id="kity_stop_18" offset="0" stop-color="rgb(255, 255, 255)"></stop><stop id="kity_stop_19" offset="1" stop-color="rgb(204, 204, 204)"></stop></linearGradient><marker id="kity_marker_2" orient="auto" refX="6" refY="0" viewBox="-7 -7 14 14" markerWidth="7" markerHeight="7" markerUnits="userSpaceOnUse"><path id="kity_path_3" fill="rgb(115, 161, 191)" stroke="none" d="M6,0A6,6,0,1,1,-6,0A6,6,0,1,1,6,0"></path></marker></defs><g id="kity_g_8"><g id="minder1" text-rendering="optimize-speed"><g id="minder_connect_group1"><path id="kity_path_31" fill="none" stroke="rgb(115, 161, 191)" stroke-width="1" d="M92.5,565.5A190,482,0,0,1,282.5,83.5"></path><path id="kity_path_33" fill="none" stroke="rgb(115, 161, 191)" stroke-width="1" d="M380.5,83.5C400.5,83.5,400.5,31.5,420.5,31.5"></path><path id="kity_path_35" fill="none" stroke="rgb(115, 161, 191)" stroke-width="1" d="M380.5,83.5C400.5,83.5,400.5,83.5,420.5,83.5"></path><path id="kity_path_37" fill="none" stroke="rgb(115, 161, 191)" stroke-width="1" d="M380.5,83.5C400.5,83.5,400.5,135.5,420.5,135.5"></path><path id="kity_path_39" fill="none" stroke="rgb(115, 161, 191)" stroke-width="1" d="M92.5,565.5A190,278,0,0,1,282.5,287.5"></path><path id="kity_path_41" fill="none" stroke="rgb(115, 161, 191)" stroke-width="1" d="M380.5,287.5C400.5,287.5,400.5,287.5,420.5,287.5"></path><path id="kity_path_43" fill="none" stroke="rgb(115, 161, 191)" stroke-width="1" d="M513.5,287.5C529,287.5,529,289.5,544.5,289.5"></path><path id="kity_path_45" fill="none" stroke="rgb(115, 161, 191)" stroke-width="1" d="M1274.5,289.5C1294.5,289.5,1294.5,289.5,1314.5,289.5"></path><path id="kity_path_47" fill="none" stroke="rgb(115, 161, 191)" stroke-width="1" d="M1671.5,289.5C1710.5,289.5,1710.5,288.5,1749.5,288.5"></path><path id="kity_path_49" fill="none" stroke="rgb(115, 161, 191)" stroke-width="1" d="M92.5,565.5A190,160,0,0,0,282.5,725.5"></path><path id="kity_path_51" fill="none" stroke="rgb(115, 161, 191)" stroke-width="1" d="M394.5,725.5C414.5,725.5,414.5,595.5,434.5,595.5"></path><path id="kity_path_53" fill="none" stroke="rgb(115, 161, 191)" stroke-width="1" d="M514.5,595.5C534.5,595.5,534.5,439.5,554.5,439.5"></path><path id="kity_path_55" fill="none" stroke="rgb(115, 161, 191)" stroke-width="1" d="M514.5,595.5C534.5,595.5,534.5,491.5,554.5,491.5"></path><path id="kity_path_57" fill="none" stroke="rgb(115, 161, 191)" stroke-width="1" d="M514.5,595.5C534.5,595.5,534.5,621.5,554.5,621.5"></path><path id="kity_path_59" fill="none" stroke="rgb(115, 161, 191)" stroke-width="1" d="M966.5,621.5C986.5,621.5,986.5,621.5,1006.5,621.5"></path><path id="kity_path_61" fill="none" stroke="rgb(115, 161, 191)" stroke-width="1" d="M1206.5,621.5C1226.5,621.5,1226.5,543.5,1246.5,543.5"></path><path id="kity_path_63" fill="none" stroke="rgb(115, 161, 191)" stroke-width="1" d="M1206.5,621.5C1226.5,621.5,1226.5,595.5,1246.5,595.5"></path><path id="kity_path_65" fill="none" stroke="rgb(115, 161, 191)" stroke-width="1" d="M1206.5,621.5C1226.5,621.5,1226.5,647.5,1246.5,647.5"></path><path id="kity_path_67" fill="none" stroke="rgb(115, 161, 191)" stroke-width="1" d="M1206.5,621.5C1226.5,621.5,1226.5,699.5,1246.5,699.5"></path><path id="kity_path_69" fill="none" stroke="rgb(115, 161, 191)" stroke-width="1" d="M514.5,595.5C534.5,595.5,534.5,751.5,554.5,751.5"></path><path id="kity_path_71" fill="none" stroke="rgb(115, 161, 191)" stroke-width="1" d="M394.5,725.5C414.5,725.5,414.5,855.5,434.5,855.5"></path><path id="kity_path_73" fill="none" stroke="rgb(115, 161, 191)" stroke-width="1" d="M649.5,855.5C669.5,855.5,669.5,803.5,689.5,803.5"></path><path id="kity_path_75" fill="none" stroke="rgb(115, 161, 191)" stroke-width="1" d="M649.5,855.5C669.5,855.5,669.5,855.5,689.5,855.5"></path><path id="kity_path_77" fill="none" stroke="rgb(115, 161, 191)" stroke-width="1" d="M649.5,855.5C669.5,855.5,669.5,907.5,689.5,907.5"></path><path id="kity_path_79" fill="none" stroke="rgb(115, 161, 191)" stroke-width="1" d="M92.5,565.5A190,482,0,0,0,282.5,1047.5"></path><path id="kity_path_81" fill="none" stroke="rgb(115, 161, 191)" stroke-width="1" d="M394.5,1047.5C414.5,1047.5,414.5,969.5,434.5,969.5"></path><path id="kity_path_83" fill="none" stroke="rgb(115, 161, 191)" stroke-width="1" d="M394.5,1047.5C414.5,1047.5,414.5,1021.5,434.5,1021.5"></path><path id="kity_path_85" fill="none" stroke="rgb(115, 161, 191)" stroke-width="1" d="M394.5,1047.5C414.5,1047.5,414.5,1073.5,434.5,1073.5"></path><path id="kity_path_87" fill="none" stroke="rgb(115, 161, 191)" stroke-width="1" d="M394.5,1047.5C414.5,1047.5,414.5,1125.5,434.5,1125.5"></path></g><g id="minder_node1"><path id="node_outline1" fill="rgb(115, 161, 191)" stroke="rgb(57, 80, 96)" d="M25.5,545.5h134a5,5,0,0,1,5,5v30a5,5,0,0,1,-5,5h-134a5,5,0,0,1,-5,-5v-30a5,5,0,0,1,5,-5z" stroke-width="3"></path><g id="node_text1" fill="white"><text id="kity_text_22" text-rendering="inherit" font-size="16" dy=".8em" y="557.5" x="44.5">事件传递机制</text></g></g><g id="kity_g_12"><path id="kity_path_13" fill="none" stroke="none" d="M44.5,565.5h0v0h0z"></path></g><g id="kity_g_14"><path id="kity_path_15" fill="none" stroke="none" d="M44.5,565.5h0v0h0z"></path><path id="kity_path_16" fill="none" stroke="none"></path></g><g id="minder_node2"><g id="node_expander4" style="cursor: pointer;"><path id="kity_path_196" fill="white" stroke="gray" d="M283.5,83.5A6,6,0,1,1,271.5,83.5A6,6,0,1,1,283.5,83.5"></path><path id="kity_path_197" fill="none" stroke="gray" d="M273,83.5L282,83.5"></path></g><path id="node_outline5" fill="rgb(238, 243, 246)" stroke="rgb(115, 161, 191)" d="M287.5,70.5h90a3,3,0,0,1,3,3v20a3,3,0,0,1,-3,3h-90a3,3,0,0,1,-3,-3v-20a3,3,0,0,1,3,-3z" stroke-width="1"></path><g id="node_text5" fill="black"><text id="kity_text_95" text-rendering="inherit" font-size="14" dy=".8em" y="76.5" x="304.5">事件类型</text></g></g><g id="minder_node3"><g id="node_expander1" display="none" style="cursor: pointer;"><path id="kity_path_187" fill="white" stroke="gray" d="M420.5,31.5A6,6,0,1,1,408.5,31.5A6,6,0,1,1,420.5,31.5"></path><path id="kity_path_188" fill="none" stroke="gray"></path></g><path id="node_outline2" fill="none" stroke="none" d="M425.5,20.5h58a5,5,0,0,1,5,5v12a5,5,0,0,1,-5,5h-58a5,5,0,0,1,-5,-5v-12a5,5,0,0,1,5,-5z"></path><g id="node_text2" fill="black"><text id="kity_text_89" text-rendering="inherit" font-size="12" dy=".8em" y="25.5" x="430.5">触摸事件</text></g></g><g id="minder_node4"><g id="node_expander2" display="none" style="cursor: pointer;"><path id="kity_path_190" fill="white" stroke="gray" d="M420.5,83.5A6,6,0,1,1,408.5,83.5A6,6,0,1,1,420.5,83.5"></path><path id="kity_path_191" fill="none" stroke="gray"></path></g><path id="node_outline3" fill="none" stroke="none" d="M425.5,72.5h70a5,5,0,0,1,5,5v12a5,5,0,0,1,-5,5h-70a5,5,0,0,1,-5,-5v-12a5,5,0,0,1,5,-5z"></path><g id="node_text3" fill="black"><text id="kity_text_91" text-rendering="inherit" font-size="12" dy=".8em" y="77.5" x="430.5">加速计事件</text></g></g><g id="minder_node5"><g id="node_expander3" display="none" style="cursor: pointer;"><path id="kity_path_193" fill="white" stroke="gray" d="M420.5,135.5A6,6,0,1,1,408.5,135.5A6,6,0,1,1,420.5,135.5"></path><path id="kity_path_194" fill="none" stroke="gray"></path></g><path id="node_outline4" fill="none" stroke="none" d="M425.5,124.5h82a5,5,0,0,1,5,5v12a5,5,0,0,1,-5,5h-82a5,5,0,0,1,-5,-5v-12a5,5,0,0,1,5,-5z"></path><g id="node_text4" fill="black"><text id="kity_text_93" text-rendering="inherit" font-size="12" dy=".8em" y="129.5" x="430.5">远程控制事件</text></g></g><g id="minder_node6"><g id="node_expander9" style="cursor: pointer;"><path id="kity_path_211" fill="white" stroke="gray" d="M283.5,287.5A6,6,0,1,1,271.5,287.5A6,6,0,1,1,283.5,287.5"></path><path id="kity_path_212" fill="none" stroke="gray" d="M273,287.5L282,287.5"></path></g><path id="node_outline10" fill="rgb(238, 243, 246)" stroke="rgb(115, 161, 191)" d="M287.5,274.5h90a3,3,0,0,1,3,3v20a3,3,0,0,1,-3,3h-90a3,3,0,0,1,-3,-3v-20a3,3,0,0,1,3,-3z" stroke-width="1"></path><g id="node_text10" fill="black"><text id="kity_text_116" text-rendering="inherit" font-size="14" dy=".8em" y="280.5" x="304.5">基本概念</text></g></g><g id="minder_node7"><g id="node_expander8" style="cursor: pointer;"><path id="kity_path_208" fill="white" stroke="gray" d="M420.5,287.5A6,6,0,1,1,408.5,287.5A6,6,0,1,1,420.5,287.5"></path><path id="kity_path_209" fill="none" stroke="gray" d="M410,287.5L419,287.5"></path></g><path id="node_outline9" fill="none" stroke="none" d="M425.5,276.5h83a5,5,0,0,1,5,5v12a5,5,0,0,1,-5,5h-83a5,5,0,0,1,-5,-5v-12a5,5,0,0,1,5,-5z"></path><g id="node_text9" fill="black"><text id="kity_text_114" text-rendering="inherit" font-size="12" dy=".8em" y="281.5" x="430.5">UIResponder</text></g></g><g id="minder_node8"><g id="node_expander7" style="cursor: pointer;"><path id="kity_path_205" fill="white" stroke="gray" d="M544.5,289.5A6,6,0,1,1,532.5,289.5A6,6,0,1,1,544.5,289.5"></path><path id="kity_path_206" fill="none" stroke="gray" d="M534,289.5L543,289.5"></path></g><path id="node_outline8" fill="none" stroke="none" d="M549.5,269.5h720a5,5,0,0,1,5,5v30a5,5,0,0,1,-5,5h-720a5,5,0,0,1,-5,-5v-30a5,5,0,0,1,5,-5z"></path><g id="node_text8" fill="black"><text id="kity_text_111" text-rendering="inherit" font-size="12" dy=".8em" y="274.5" x="554.5">在iOS中不是任何对象都能处理事件，只有继承了UIResponder的对象才能接受并处理事件，</text><text id="kity_text_112" text-rendering="inherit" font-size="12" dy=".8em" y="292.5" x="554.5">我们称之为“响应者对象”。以下都是继承自UIResponder的，所以都能接收并处理事件。(UIApplication,UIViewController,UIView)</text></g></g><g id="minder_node9"><g id="node_expander6" style="cursor: pointer;"><path id="kity_path_202" fill="white" stroke="gray" d="M1314.5,289.5A6,6,0,1,1,1302.5,289.5A6,6,0,1,1,1314.5,289.5"></path><path id="kity_path_203" fill="none" stroke="gray" d="M1304,289.5L1313,289.5"></path></g><path id="node_outline7" fill="none" stroke="none" d="M1319.5,278.5h347a5,5,0,0,1,5,5v12a5,5,0,0,1,-5,5h-347a5,5,0,0,1,-5,-5v-12a5,5,0,0,1,5,-5z"></path><g id="node_text7" fill="black"><text id="kity_text_109" text-rendering="inherit" font-size="12" dy=".8em" y="283.5" x="1324.5">那么为什么继承自UIResponder的类就能够接收并处理事件呢？</text></g></g><g id="minder_node10"><g id="node_expander5" display="none" style="cursor: pointer;"><path id="kity_path_199" fill="white" stroke="gray" d="M1749.5,288.5A6,6,0,1,1,1737.5,288.5A6,6,0,1,1,1749.5,288.5"></path><path id="kity_path_200" fill="none" stroke="gray"></path></g><path id="node_outline6" fill="none" stroke="none" d="M1754.5,187.5h456a5,5,0,0,1,5,5v192a5,5,0,0,1,-5,5h-456a5,5,0,0,1,-5,-5v-192a5,5,0,0,1,5,-5z"></path><g id="node_text6" fill="black"><text id="kity_text_97" text-rendering="inherit" font-size="12" dy=".8em" y="192.5" x="1759.5">UIResponder内部提供了以下方法来处理事件触摸事件</text><text id="kity_text_98" text-rendering="inherit" font-size="12" dy=".8em" y="210.5" x="1759.5">- (void)touchesBegan:(NSSet *)touches withEvent:(UIEvent *)event;</text><text id="kity_text_99" text-rendering="inherit" font-size="12" dy=".8em" y="228.5" x="1759.5">- (void)touchesMoved:(NSSet *)touches withEvent:(UIEvent *)event;</text><text id="kity_text_100" text-rendering="inherit" font-size="12" dy=".8em" y="246.5" x="1759.5">- (void)touchesEnded:(NSSet *)touches withEvent:(UIEvent *)event;</text><text id="kity_text_101" text-rendering="inherit" font-size="12" dy=".8em" y="264.5" x="1759.5">- (void)touchesCancelled:(NSSet *)touches withEvent:(UIEvent *)event;</text><text id="kity_text_102" text-rendering="inherit" font-size="12" dy=".8em" y="282.5" x="1759.5">加速计事件</text><text id="kity_text_103" text-rendering="inherit" font-size="12" dy=".8em" y="300.5" x="1759.5">- (void)motionBegan:(UIEventSubtype)motion withEvent:(UIEvent *)event;</text><text id="kity_text_104" text-rendering="inherit" font-size="12" dy=".8em" y="318.5" x="1759.5">- (void)motionEnded:(UIEventSubtype)motion withEvent:(UIEvent *)event;</text><text id="kity_text_105" text-rendering="inherit" font-size="12" dy=".8em" y="336.5" x="1759.5">- (void)motionCancelled:(UIEventSubtype)motion withEvent:(UIEvent *)event;</text><text id="kity_text_106" text-rendering="inherit" font-size="12" dy=".8em" y="354.5" x="1759.5">远程控制事件</text><text id="kity_text_107" text-rendering="inherit" font-size="12" dy=".8em" y="372.5" x="1759.5">- (void)remoteControlReceivedWithEvent:(UIEvent *)event;</text></g></g><g id="minder_node11"><g id="node_expander24" style="cursor: pointer;"><path id="kity_path_256" fill="white" stroke="gray" d="M283.5,725.5A6,6,0,1,1,271.5,725.5A6,6,0,1,1,283.5,725.5"></path><path id="kity_path_257" fill="none" stroke="gray" d="M273,725.5L282,725.5"></path></g><path id="node_outline25" fill="rgb(238, 243, 246)" stroke="rgb(115, 161, 191)" d="M287.5,712.5h104a3,3,0,0,1,3,3v20a3,3,0,0,1,-3,3h-104a3,3,0,0,1,-3,-3v-20a3,3,0,0,1,3,-3z" stroke-width="1"></path><g id="node_text25" fill="black"><text id="kity_text_146" text-rendering="inherit" font-size="14" dy=".8em" y="718.5" x="304.5">事件的产生</text></g></g><g id="minder_node12"><g id="node_expander19" style="cursor: pointer;"><path id="kity_path_241" fill="white" stroke="gray" d="M434.5,595.5A6,6,0,1,1,422.5,595.5A6,6,0,1,1,434.5,595.5"></path><path id="kity_path_242" fill="none" stroke="gray" d="M424,595.5L433,595.5"></path></g><path id="node_outline20" fill="none" stroke="none" d="M439.5,584.5h70a5,5,0,0,1,5,5v12a5,5,0,0,1,-5,5h-70a5,5,0,0,1,-5,-5v-12a5,5,0,0,1,5,-5z"></path><g id="node_text20" fill="black"><text id="kity_text_136" text-rendering="inherit" font-size="12" dy=".8em" y="589.5" x="444.5">事件发生后</text></g></g><g id="minder_node13"><g id="node_expander10" display="none" style="cursor: pointer;"><path id="kity_path_214" fill="white" stroke="gray" d="M554.5,439.5A6,6,0,1,1,542.5,439.5A6,6,0,1,1,554.5,439.5"></path><path id="kity_path_215" fill="none" stroke="gray"></path></g><path id="node_outline11" fill="none" stroke="none" d="M559.5,428.5h259a5,5,0,0,1,5,5v12a5,5,0,0,1,-5,5h-259a5,5,0,0,1,-5,-5v-12a5,5,0,0,1,5,-5z"></path><g id="node_text11" fill="black"><text id="kity_text_118" text-rendering="inherit" font-size="12" dy=".8em" y="433.5" x="564.5">&#xa0;加入到一个同UIApplication管理的事件队列中</text></g></g><g id="minder_node14"><g id="node_expander11" display="none" style="cursor: pointer;"><path id="kity_path_217" fill="white" stroke="gray" d="M554.5,491.5A6,6,0,1,1,542.5,491.5A6,6,0,1,1,554.5,491.5"></path><path id="kity_path_218" fill="none" stroke="gray"></path></g><path id="node_outline12" fill="none" stroke="none" d="M559.5,480.5h276a5,5,0,0,1,5,5v12a5,5,0,0,1,-5,5h-276a5,5,0,0,1,-5,-5v-12a5,5,0,0,1,5,-5z"></path><g id="node_text12" fill="black"><text id="kity_text_120" text-rendering="inherit" font-size="12" dy=".8em" y="485.5" x="564.5">UIApplication将事件分发下去，交给keyWindow</text></g></g><g id="minder_node15"><g id="node_expander17" style="cursor: pointer;"><path id="kity_path_235" fill="white" stroke="gray" d="M554.5,621.5A6,6,0,1,1,542.5,621.5A6,6,0,1,1,554.5,621.5"></path><path id="kity_path_236" fill="none" stroke="gray" d="M544,621.5L553,621.5"></path></g><path id="node_outline18" fill="none" stroke="none" d="M559.5,610.5h402a5,5,0,0,1,5,5v12a5,5,0,0,1,-5,5h-402a5,5,0,0,1,-5,-5v-12a5,5,0,0,1,5,-5z"></path><g id="node_text18" fill="black"><text id="kity_text_132" text-rendering="inherit" font-size="12" dy=".8em" y="615.5" x="564.5">keyWindow会在视图层次结构中找到一个最合适的视图来处理触摸事件。</text></g></g><g id="minder_node16"><g id="node_expander16" style="cursor: pointer;"><path id="kity_path_232" fill="white" stroke="gray" d="M1006.5,621.5A6,6,0,1,1,994.5,621.5A6,6,0,1,1,1006.5,621.5"></path><path id="kity_path_233" fill="none" stroke="gray" d="M996,621.5L1005,621.5"></path></g><path id="node_outline17" fill="none" stroke="none" d="M1011.5,610.5h190a5,5,0,0,1,5,5v12a5,5,0,0,1,-5,5h-190a5,5,0,0,1,-5,-5v-12a5,5,0,0,1,5,-5z"></path><g id="node_text17" fill="black"><text id="kity_text_130" text-rendering="inherit" font-size="12" dy=".8em" y="615.5" x="1016.5">如何寻找最合适的控件来处理事件</text></g></g><g id="minder_node17"><g id="node_expander12" display="none" style="cursor: pointer;"><path id="kity_path_220" fill="white" stroke="gray" d="M1246.5,543.5A6,6,0,1,1,1234.5,543.5A6,6,0,1,1,1246.5,543.5"></path><path id="kity_path_221" fill="none" stroke="gray"></path></g><path id="node_outline13" fill="none" stroke="none" d="M1251.5,532.5h276a5,5,0,0,1,5,5v12a5,5,0,0,1,-5,5h-276a5,5,0,0,1,-5,-5v-12a5,5,0,0,1,5,-5z"></path><g id="node_text13" fill="black"><text id="kity_text_122" text-rendering="inherit" font-size="12" dy=".8em" y="537.5" x="1256.5">1、首先判断keyWindow自己是否能接受触摸事件</text></g></g><g id="minder_node18"><g id="node_expander13" display="none" style="cursor: pointer;"><path id="kity_path_223" fill="white" stroke="gray" d="M1246.5,595.5A6,6,0,1,1,1234.5,595.5A6,6,0,1,1,1246.5,595.5"></path><path id="kity_path_224" fill="none" stroke="gray"></path></g><path id="node_outline14" fill="none" stroke="none" d="M1251.5,584.5h173a5,5,0,0,1,5,5v12a5,5,0,0,1,-5,5h-173a5,5,0,0,1,-5,-5v-12a5,5,0,0,1,5,-5z"></path><g id="node_text14" fill="black"><text id="kity_text_124" text-rendering="inherit" font-size="12" dy=".8em" y="589.5" x="1256.5">2、判断触摸点是否在自己身上</text></g></g><g id="minder_node19"><g id="node_expander14" display="none" style="cursor: pointer;"><path id="kity_path_226" fill="white" stroke="gray" d="M1246.5,647.5A6,6,0,1,1,1234.5,647.5A6,6,0,1,1,1246.5,647.5"></path><path id="kity_path_227" fill="none" stroke="gray"></path></g><path id="node_outline15" fill="none" stroke="none" d="M1251.5,636.5h197a5,5,0,0,1,5,5v12a5,5,0,0,1,-5,5h-197a5,5,0,0,1,-5,-5v-12a5,5,0,0,1,5,-5z"></path><g id="node_text15" fill="black"><text id="kity_text_126" text-rendering="inherit" font-size="12" dy=".8em" y="641.5" x="1256.5">3、子控制数组从后往前遍历子控件</text></g></g><g id="minder_node20"><g id="node_expander15" display="none" style="cursor: pointer;"><path id="kity_path_229" fill="white" stroke="gray" d="M1246.5,699.5A6,6,0,1,1,1234.5,699.5A6,6,0,1,1,1246.5,699.5"></path><path id="kity_path_230" fill="none" stroke="gray"></path></g><path id="node_outline16" fill="none" stroke="none" d="M1251.5,688.5h377a5,5,0,0,1,5,5v12a5,5,0,0,1,-5,5h-377a5,5,0,0,1,-5,-5v-12a5,5,0,0,1,5,-5z"></path><g id="node_text16" fill="black"><text id="kity_text_128" text-rendering="inherit" font-size="12" dy=".8em" y="693.5" x="1256.5">4、如果没有符合条件的子控制，那么就认为自己最合适处理这个事件</text></g></g><g id="minder_node21"><g id="node_expander18" display="none" style="cursor: pointer;"><path id="kity_path_238" fill="white" stroke="gray" d="M554.5,751.5A6,6,0,1,1,542.5,751.5A6,6,0,1,1,554.5,751.5"></path><path id="kity_path_239" fill="none" stroke="gray"></path></g><path id="node_outline19" fill="none" stroke="none" d="M559.5,740.5h420a5,5,0,0,1,5,5v12a5,5,0,0,1,-5,5h-420a5,5,0,0,1,-5,-5v-12a5,5,0,0,1,5,-5z"></path><g id="node_text19" fill="black"><text id="kity_text_134" text-rendering="inherit" font-size="12" dy=".8em" y="745.5" x="564.5">&#xa0;到合适的视图控件后，就会调用视图控件的touches方法来做具体的事件处理</text></g></g><g id="minder_node22"><g id="node_expander23" style="cursor: pointer;"><path id="kity_path_253" fill="white" stroke="gray" d="M434.5,855.5A6,6,0,1,1,422.5,855.5A6,6,0,1,1,434.5,855.5"></path><path id="kity_path_254" fill="none" stroke="gray" d="M424,855.5L433,855.5"></path></g><path id="node_outline24" fill="none" stroke="none" d="M439.5,844.5h205a5,5,0,0,1,5,5v12a5,5,0,0,1,-5,5h-205a5,5,0,0,1,-5,-5v-12a5,5,0,0,1,5,-5z"></path><g id="node_text24" fill="black"><text id="kity_text_144" text-rendering="inherit" font-size="12" dy=".8em" y="849.5" x="444.5">UIView不能接收触摸事件的三种情况</text></g></g><g id="minder_node23"><g id="node_expander20" display="none" style="cursor: pointer;"><path id="kity_path_244" fill="white" stroke="gray" d="M689.5,803.5A6,6,0,1,1,677.5,803.5A6,6,0,1,1,689.5,803.5"></path><path id="kity_path_245" fill="none" stroke="gray"></path></g><path id="node_outline21" fill="none" stroke="none" d="M694.5,792.5h175a5,5,0,0,1,5,5v12a5,5,0,0,1,-5,5h-175a5,5,0,0,1,-5,-5v-12a5,5,0,0,1,5,-5z"></path><g id="node_text21" fill="black"><text id="kity_text_138" text-rendering="inherit" font-size="12" dy=".8em" y="797.5" x="699.5">userInteractionEnabled =NO</text></g></g><g id="minder_node24"><g id="node_expander21" display="none" style="cursor: pointer;"><path id="kity_path_247" fill="white" stroke="gray" d="M689.5,855.5A6,6,0,1,1,677.5,855.5A6,6,0,1,1,689.5,855.5"></path><path id="kity_path_248" fill="none" stroke="gray"></path></g><path id="node_outline22" fill="none" stroke="none" d="M694.5,844.5h34a5,5,0,0,1,5,5v12a5,5,0,0,1,-5,5h-34a5,5,0,0,1,-5,-5v-12a5,5,0,0,1,5,-5z"></path><g id="node_text22" fill="black"><text id="kity_text_140" text-rendering="inherit" font-size="12" dy=".8em" y="849.5" x="699.5">隐藏</text></g></g><g id="minder_node25"><g id="node_expander22" display="none" style="cursor: pointer;"><path id="kity_path_250" fill="white" stroke="gray" d="M689.5,907.5A6,6,0,1,1,677.5,907.5A6,6,0,1,1,689.5,907.5"></path><path id="kity_path_251" fill="none" stroke="gray"></path></g><path id="node_outline23" fill="none" stroke="none" d="M694.5,896.5h58a5,5,0,0,1,5,5v12a5,5,0,0,1,-5,5h-58a5,5,0,0,1,-5,-5v-12a5,5,0,0,1,5,-5z"></path><g id="node_text23" fill="black"><text id="kity_text_142" text-rendering="inherit" font-size="12" dy=".8em" y="901.5" x="699.5">分支主题</text></g></g><g id="minder_node26"><g id="node_expander29" style="cursor: pointer;"><path id="kity_path_271" fill="white" stroke="gray" d="M283.5,1047.5A6,6,0,1,1,271.5,1047.5A6,6,0,1,1,283.5,1047.5"></path><path id="kity_path_272" fill="none" stroke="gray" d="M273,1047.5L282,1047.5"></path></g><path id="node_outline30" fill="rgb(238, 243, 246)" stroke="rgb(115, 161, 191)" d="M287.5,1034.5h104a3,3,0,0,1,3,3v20a3,3,0,0,1,-3,3h-104a3,3,0,0,1,-3,-3v-20a3,3,0,0,1,3,-3z" stroke-width="1"></path><g id="node_text30" fill="black"><text id="kity_text_156" text-rendering="inherit" font-size="14" dy=".8em" y="1040.5" x="304.5">事件的响应</text></g></g><g id="minder_node27"><g id="node_expander25" display="none" style="cursor: pointer;"><path id="kity_path_259" fill="white" stroke="gray" d="M434.5,969.5A6,6,0,1,1,422.5,969.5A6,6,0,1,1,434.5,969.5"></path><path id="kity_path_260" fill="none" stroke="gray"></path></g><path id="node_outline26" fill="none" stroke="none" d="M439.5,958.5h1034a5,5,0,0,1,5,5v12a5,5,0,0,1,-5,5h-1034a5,5,0,0,1,-5,-5v-12a5,5,0,0,1,5,-5z"></path><g id="node_text26" fill="black"><text id="kity_text_148" text-rendering="inherit" font-size="12" dy=".8em" y="963.5" x="444.5">1&gt;如果当前view是控制器的view，那么控制器就是上一个响应者，事件就传递给控制器；如果当前view不是控制器的view，那么父视图就是当前view的上一个响应者，事件就传递给它的父视图</text></g></g><g id="minder_node28"><g id="node_expander26" display="none" style="cursor: pointer;"><path id="kity_path_262" fill="white" stroke="gray" d="M434.5,1021.5A6,6,0,1,1,422.5,1021.5A6,6,0,1,1,434.5,1021.5"></path><path id="kity_path_263" fill="none" stroke="gray"></path></g><path id="node_outline27" fill="none" stroke="none" d="M439.5,1010.5h634a5,5,0,0,1,5,5v12a5,5,0,0,1,-5,5h-634a5,5,0,0,1,-5,-5v-12a5,5,0,0,1,5,-5z"></path><g id="node_text27" fill="black"><text id="kity_text_150" text-rendering="inherit" font-size="12" dy=".8em" y="1015.5" x="444.5">2&gt;在视图层次结构的最顶级视图，如果也不能处理收到的事件或消息，则其将事件或消息传递给window对象进行处理</text></g></g><g id="minder_node29"><g id="node_expander27" display="none" style="cursor: pointer;"><path id="kity_path_265" fill="white" stroke="gray" d="M434.5,1073.5A6,6,0,1,1,422.5,1073.5A6,6,0,1,1,434.5,1073.5"></path><path id="kity_path_266" fill="none" stroke="gray"></path></g><path id="node_outline28" fill="none" stroke="none" d="M439.5,1062.5h412a5,5,0,0,1,5,5v12a5,5,0,0,1,-5,5h-412a5,5,0,0,1,-5,-5v-12a5,5,0,0,1,5,-5z"></path><g id="node_text28" fill="black"><text id="kity_text_152" text-rendering="inherit" font-size="12" dy=".8em" y="1067.5" x="444.5">3&gt;如果window对象也不处理，则其将事件或消息传递给UIApplication对象</text></g></g><g id="minder_node30"><g id="node_expander28" display="none" style="cursor: pointer;"><path id="kity_path_268" fill="white" stroke="gray" d="M434.5,1125.5A6,6,0,1,1,422.5,1125.5A6,6,0,1,1,434.5,1125.5"></path><path id="kity_path_269" fill="none" stroke="gray"></path></g><path id="node_outline29" fill="none" stroke="none" d="M439.5,1114.5h330a5,5,0,0,1,5,5v12a5,5,0,0,1,-5,5h-330a5,5,0,0,1,-5,-5v-12a5,5,0,0,1,5,-5z"></path><g id="node_text29" fill="black"><text id="kity_text_154" text-rendering="inherit" font-size="12" dy=".8em" y="1119.5" x="444.5">4&gt;如果UIApplication也不能处理该事件或消息，则将其丢弃</text></g></g></g></g></svg>