<svg id="kity_svg_6" xmlns="http://www.w3.org/2000/svg" xmlns:xlink="http://www.w3.org/1999/xlink" version="1.1" width="1413" height="1378" style="background: rgb(251, 251, 251); visibility: visible;" viewBox="0 0 1413 1378"><defs id="kity_defs_7"><linearGradient id="kity_linearGradient_17" x1="0" y1="0" x2="0" y2="1"><stop id="kity_stop_18" offset="0" stop-color="rgb(255, 255, 255)"></stop><stop id="kity_stop_19" offset="1" stop-color="rgb(204, 204, 204)"></stop></linearGradient><marker id="kity_marker_2" orient="auto" refX="6" refY="0" viewBox="-7 -7 14 14" markerWidth="7" markerHeight="7" markerUnits="userSpaceOnUse"><path id="kity_path_3" fill="rgb(115, 161, 191)" stroke="none" d="M6,0A6,6,0,1,1,-6,0A6,6,0,1,1,6,0"></path></marker></defs><g id="kity_g_8"><g id="minder1" text-rendering="optimize-speed"><g id="minder_connect_group1"><path id="kity_path_31" fill="none" stroke="rgb(115, 161, 191)" stroke-width="1" d="M64,309.5A161.5,252,0,0,1,225.5,57.5"></path><path id="kity_path_33" fill="none" stroke="rgb(115, 161, 191)" stroke-width="1" d="M343.5,57.5C363.5,57.5,363.5,31.5,383.5,31.5"></path><path id="kity_path_35" fill="none" stroke="rgb(115, 161, 191)" stroke-width="1" d="M343.5,57.5C363.5,57.5,363.5,83.5,383.5,83.5"></path><path id="kity_path_37" fill="none" stroke="rgb(115, 161, 191)" stroke-width="1" d="M64,309.5A161.5,252,0,0,0,225.5,561.5"></path><path id="kity_path_39" fill="none" stroke="rgb(115, 161, 191)" stroke-width="1" d="M329.5,561.5C349.5,561.5,349.5,261.5,369.5,261.5"></path><path id="kity_path_41" fill="none" stroke="rgb(115, 161, 191)" stroke-width="1" d="M413.5,261.5C433.5,261.5,433.5,196.5,453.5,196.5"></path><path id="kity_path_43" fill="none" stroke="rgb(115, 161, 191)" stroke-width="1" d="M497.5,196.5C517.5,196.5,517.5,144.5,537.5,144.5"></path><path id="kity_path_45" fill="none" stroke="rgb(115, 161, 191)" stroke-width="1" d="M497.5,196.5C517.5,196.5,517.5,196.5,537.5,196.5"></path><path id="kity_path_47" fill="none" stroke="rgb(115, 161, 191)" stroke-width="1" d="M497.5,196.5C517.5,196.5,517.5,248.5,537.5,248.5"></path><path id="kity_path_49" fill="none" stroke="rgb(115, 161, 191)" stroke-width="1" d="M413.5,261.5C433.5,261.5,433.5,326.5,453.5,326.5"></path><path id="kity_path_51" fill="none" stroke="rgb(115, 161, 191)" stroke-width="1" d="M521.5,326.5C541.5,326.5,541.5,300.5,561.5,300.5"></path><path id="kity_path_53" fill="none" stroke="rgb(115, 161, 191)" stroke-width="1" d="M629.5,300.5C649.5,300.5,649.5,300.5,669.5,300.5"></path><path id="kity_path_55" fill="none" stroke="rgb(115, 161, 191)" stroke-width="1" d="M521.5,326.5C541.5,326.5,541.5,352.5,561.5,352.5"></path><path id="kity_path_57" fill="none" stroke="rgb(115, 161, 191)" stroke-width="1" d="M629.5,352.5C649.5,352.5,649.5,352.5,669.5,352.5"></path><path id="kity_path_59" fill="none" stroke="rgb(115, 161, 191)" stroke-width="1" d="M329.5,561.5C349.5,561.5,349.5,861.5,369.5,861.5"></path><path id="kity_path_61" fill="none" stroke="rgb(115, 161, 191)" stroke-width="1" d="M413.5,861.5C433.5,861.5,433.5,457.5,453.5,457.5"></path><path id="kity_path_63" fill="none" stroke="rgb(115, 161, 191)" stroke-width="1" d="M653.5,457.5C673.5,457.5,673.5,457.5,693.5,457.5"></path><path id="kity_path_65" fill="none" stroke="rgb(115, 161, 191)" stroke-width="1" d="M829.5,457.5C849.5,457.5,849.5,405.5,869.5,405.5"></path><path id="kity_path_67" fill="none" stroke="rgb(115, 161, 191)" stroke-width="1" d="M829.5,457.5C849.5,457.5,849.5,457.5,869.5,457.5"></path><path id="kity_path_69" fill="none" stroke="rgb(115, 161, 191)" stroke-width="1" d="M829.5,457.5C849.5,457.5,849.5,509.5,869.5,509.5"></path><path id="kity_path_71" fill="none" stroke="rgb(115, 161, 191)" stroke-width="1" d="M413.5,861.5C433.5,861.5,433.5,639.5,453.5,639.5"></path><path id="kity_path_73" fill="none" stroke="rgb(115, 161, 191)" stroke-width="1" d="M605.5,639.5C625.5,639.5,625.5,639.5,645.5,639.5"></path><path id="kity_path_75" fill="none" stroke="rgb(115, 161, 191)" stroke-width="1" d="M824.5,639.5C844.5,639.5,844.5,561.5,864.5,561.5"></path><path id="kity_path_77" fill="none" stroke="rgb(115, 161, 191)" stroke-width="1" d="M824.5,639.5C844.5,639.5,844.5,613.5,864.5,613.5"></path><path id="kity_path_79" fill="none" stroke="rgb(115, 161, 191)" stroke-width="1" d="M824.5,639.5C844.5,639.5,844.5,665.5,864.5,665.5"></path><path id="kity_path_81" fill="none" stroke="rgb(115, 161, 191)" stroke-width="1" d="M824.5,639.5C844.5,639.5,844.5,717.5,864.5,717.5"></path><path id="kity_path_83" fill="none" stroke="rgb(115, 161, 191)" stroke-width="1" d="M413.5,861.5C433.5,861.5,433.5,821.5,453.5,821.5"></path><path id="kity_path_85" fill="none" stroke="rgb(115, 161, 191)" stroke-width="1" d="M569.5,821.5C589.5,821.5,589.5,821.5,609.5,821.5"></path><path id="kity_path_87" fill="none" stroke="rgb(115, 161, 191)" stroke-width="1" d="M776.5,821.5C796.5,821.5,796.5,769.5,816.5,769.5"></path><path id="kity_path_89" fill="none" stroke="rgb(115, 161, 191)" stroke-width="1" d="M860.5,769.5C880.5,769.5,880.5,769.5,900.5,769.5"></path><path id="kity_path_91" fill="none" stroke="rgb(115, 161, 191)" stroke-width="1" d="M776.5,821.5C796.5,821.5,796.5,873.5,816.5,873.5"></path><path id="kity_path_93" fill="none" stroke="rgb(115, 161, 191)" stroke-width="1" d="M884.5,873.5C904.5,873.5,904.5,821.5,924.5,821.5"></path><path id="kity_path_95" fill="none" stroke="rgb(115, 161, 191)" stroke-width="1" d="M884.5,873.5C904.5,873.5,904.5,873.5,924.5,873.5"></path><path id="kity_path_97" fill="none" stroke="rgb(115, 161, 191)" stroke-width="1" d="M884.5,873.5C904.5,873.5,904.5,925.5,924.5,925.5"></path><path id="kity_path_99" fill="none" stroke="rgb(115, 161, 191)" stroke-width="1" d="M413.5,861.5C433.5,861.5,433.5,1055.5,453.5,1055.5"></path><path id="kity_path_101" fill="none" stroke="rgb(115, 161, 191)" stroke-width="1" d="M557.5,1055.5C577.5,1055.5,577.5,1003.5,597.5,1003.5"></path><path id="kity_path_103" fill="none" stroke="rgb(115, 161, 191)" stroke-width="1" d="M641.5,1003.5C661.5,1003.5,661.5,977.5,681.5,977.5"></path><path id="kity_path_105" fill="none" stroke="rgb(115, 161, 191)" stroke-width="1" d="M641.5,1003.5C661.5,1003.5,661.5,1029.5,681.5,1029.5"></path><path id="kity_path_107" fill="none" stroke="rgb(115, 161, 191)" stroke-width="1" d="M557.5,1055.5C577.5,1055.5,577.5,1107.5,597.5,1107.5"></path><path id="kity_path_109" fill="none" stroke="rgb(115, 161, 191)" stroke-width="1" d="M641.5,1107.5C661.5,1107.5,661.5,1081.5,681.5,1081.5"></path><path id="kity_path_111" fill="none" stroke="rgb(115, 161, 191)" stroke-width="1" d="M641.5,1107.5C661.5,1107.5,661.5,1133.5,681.5,1133.5"></path><path id="kity_path_113" fill="none" stroke="rgb(115, 161, 191)" stroke-width="1" d="M413.5,861.5C433.5,861.5,433.5,1266.5,453.5,1266.5"></path><path id="kity_path_115" fill="none" stroke="rgb(115, 161, 191)" stroke-width="1" d="M852.5,1266.5C872.5,1266.5,872.5,1266.5,892.5,1266.5"></path><path id="kity_path_117" fill="none" stroke="rgb(115, 161, 191)" stroke-width="1" d="M1024.5,1266.5C1044.5,1266.5,1044.5,1266.5,1064.5,1266.5"></path></g><g id="minder_node1"><path id="kity_path_393" fill="rgba(0, 0, 0, .25)" stroke="none" d="M50.5,287.5h54a27,27,0,0,1,27,27v0a27,27,0,0,1,-27,27h-54a27,27,0,0,1,-27,-27v0a27,27,0,0,1,27,-27z" display="none"></path><path id="node_outline1" fill="rgb(115, 161, 191)" stroke="rgb(57, 80, 96)" d="M25.5,289.5h77a5,5,0,0,1,5,5v30a5,5,0,0,1,-5,5h-77a5,5,0,0,1,-5,-5v-30a5,5,0,0,1,5,-5z" stroke-width="3"></path><g id="node_text1" fill="white"><text id="kity_text_22" text-rendering="inherit" font-size="16" dy=".8em" y="301.5" x="44.5">GCD</text></g></g><g id="kity_g_12"><path id="kity_path_13" fill="none" stroke="none" d="M44.5,309.5h0v0h0z"></path></g><g id="kity_g_14"><path id="kity_path_15" fill="none" stroke="none" d="M44.5,309.5h0v0h0z"></path><path id="kity_path_16" fill="none" stroke="none"></path></g><g id="minder_node2"><path id="kity_path_391" fill="rgba(0, 0, 0, .25)" stroke="none" d="M241.5,48.5h107a10,10,0,0,1,10,10v8a10,10,0,0,1,-10,10h-107a10,10,0,0,1,-10,-10v-8a10,10,0,0,1,10,-10z" display="none"></path><g id="node_expander3" style="cursor: pointer;"><path id="kity_path_266" fill="white" stroke="gray" d="M226.5,57.5A6,6,0,1,1,214.5,57.5A6,6,0,1,1,226.5,57.5"></path><path id="kity_path_267" fill="none" stroke="gray" d="M216,57.5L225,57.5"></path></g><path id="node_outline4" fill="rgb(238, 243, 246)" stroke="rgb(115, 161, 191)" d="M230.5,44.5h110a3,3,0,0,1,3,3v20a3,3,0,0,1,-3,3h-110a3,3,0,0,1,-3,-3v-20a3,3,0,0,1,3,-3z" stroke-width="1"></path><g id="node_text4" fill="black"><text id="kity_text_123" text-rendering="inherit" font-size="14" dy=".8em" y="50.5" x="247.5">什么是GCD</text></g></g><g id="minder_node3"><g id="node_expander1" style="cursor: pointer;" display="none"><path id="kity_path_260" fill="white" stroke="gray" d="M383.5,31.5A6,6,0,1,1,371.5,31.5A6,6,0,1,1,383.5,31.5"></path><path id="kity_path_261" fill="none" stroke="gray"></path></g><path id="node_outline2" fill="none" stroke="none" d="M388.5,20.5h243a5,5,0,0,1,5,5v12a5,5,0,0,1,-5,5h-243a5,5,0,0,1,-5,-5v-12a5,5,0,0,1,5,-5z"></path><g id="node_text2" fill="black"><text id="kity_text_119" text-rendering="inherit" font-size="12" dy=".8em" y="25.5" x="393.5">是 Apple 开发的一个多核编程的解决方法。</text></g></g><g id="minder_node4"><g id="node_expander2" style="cursor: pointer;" display="none"><path id="kity_path_263" fill="white" stroke="gray" d="M383.5,83.5A6,6,0,1,1,371.5,83.5A6,6,0,1,1,383.5,83.5"></path><path id="kity_path_264" fill="none" stroke="gray"></path></g><path id="node_outline3" fill="none" stroke="none" d="M388.5,72.5h576a5,5,0,0,1,5,5v12a5,5,0,0,1,-5,5h-576a5,5,0,0,1,-5,-5v-12a5,5,0,0,1,5,-5z"></path><g id="node_text3" fill="black"><text id="kity_text_121" text-rendering="inherit" font-size="12" dy=".8em" y="77.5" x="393.5">是一个替代诸如 NSThread, NSOperationQueue, NSInvocationOperation 等技术的很高效和强大的技术</text></g></g><g id="minder_node5"><path id="kity_path_392" fill="rgba(0, 0, 0, .25)" stroke="none" d="M241.5,552.5h91a10,10,0,0,1,10,10v8a10,10,0,0,1,-10,10h-91a10,10,0,0,1,-10,-10v-8a10,10,0,0,1,10,-10z" display="none"></path><g id="node_expander44" style="cursor: pointer;"><path id="kity_path_389" fill="white" stroke="gray" d="M226.5,561.5A6,6,0,1,1,214.5,561.5A6,6,0,1,1,226.5,561.5"></path><path id="kity_path_390" fill="none" stroke="gray" d="M216,561.5L225,561.5"></path></g><path id="node_outline45" fill="rgb(238, 243, 246)" stroke="rgb(115, 161, 191)" d="M230.5,548.5h96a3,3,0,0,1,3,3v20a3,3,0,0,1,-3,3h-96a3,3,0,0,1,-3,-3v-20a3,3,0,0,1,3,-3z" stroke-width="1"></path><g id="node_text45" fill="black"><text id="kity_text_214" text-rendering="inherit" font-size="14" dy=".8em" y="554.5" x="247.5">GCD术语</text></g></g><g id="minder_node6"><g id="node_expander13" style="cursor: pointer;"><path id="kity_path_296" fill="white" stroke="gray" d="M369.5,261.5A6,6,0,1,1,357.5,261.5A6,6,0,1,1,369.5,261.5"></path><path id="kity_path_297" fill="none" stroke="gray" d="M359,261.5L368,261.5"></path></g><path id="node_outline14" fill="none" stroke="none" d="M374.5,250.5h34a5,5,0,0,1,5,5v12a5,5,0,0,1,-5,5h-34a5,5,0,0,1,-5,-5v-12a5,5,0,0,1,5,-5z"></path><g id="node_text14" fill="black"><text id="kity_text_143" text-rendering="inherit" font-size="12" dy=".8em" y="255.5" x="379.5">概念</text></g></g><g id="minder_node7"><g id="node_expander7" style="cursor: pointer;"><path id="kity_path_278" fill="white" stroke="gray" d="M453.5,196.5A6,6,0,1,1,441.5,196.5A6,6,0,1,1,453.5,196.5"></path><path id="kity_path_279" fill="none" stroke="gray" d="M443,196.5L452,196.5"></path></g><path id="node_outline8" fill="none" stroke="none" d="M458.5,185.5h34a5,5,0,0,1,5,5v12a5,5,0,0,1,-5,5h-34a5,5,0,0,1,-5,-5v-12a5,5,0,0,1,5,-5z"></path><g id="node_text8" fill="black"><text id="kity_text_131" text-rendering="inherit" font-size="12" dy=".8em" y="190.5" x="463.5">队列</text></g></g><g id="minder_node8"><g id="node_expander4" style="cursor: pointer;" display="none"><path id="kity_path_269" fill="white" stroke="gray" d="M537.5,144.5A6,6,0,1,1,525.5,144.5A6,6,0,1,1,537.5,144.5"></path><path id="kity_path_270" fill="none" stroke="gray"></path></g><path id="node_outline5" fill="none" stroke="none" d="M542.5,133.5h58a5,5,0,0,1,5,5v12a5,5,0,0,1,-5,5h-58a5,5,0,0,1,-5,-5v-12a5,5,0,0,1,5,-5z"></path><g id="node_text5" fill="black"><text id="kity_text_125" text-rendering="inherit" font-size="12" dy=".8em" y="138.5" x="547.5">串行队列</text></g></g><g id="minder_node9"><g id="node_expander5" style="cursor: pointer;" display="none"><path id="kity_path_272" fill="white" stroke="gray" d="M537.5,196.5A6,6,0,1,1,525.5,196.5A6,6,0,1,1,537.5,196.5"></path><path id="kity_path_273" fill="none" stroke="gray"></path></g><path id="node_outline6" fill="none" stroke="none" d="M542.5,185.5h58a5,5,0,0,1,5,5v12a5,5,0,0,1,-5,5h-58a5,5,0,0,1,-5,-5v-12a5,5,0,0,1,5,-5z"></path><g id="node_text6" fill="black"><text id="kity_text_127" text-rendering="inherit" font-size="12" dy=".8em" y="190.5" x="547.5">并发队列</text></g></g><g id="minder_node10"><g id="node_expander6" style="cursor: pointer;" display="none"><path id="kity_path_275" fill="white" stroke="gray" d="M537.5,248.5A6,6,0,1,1,525.5,248.5A6,6,0,1,1,537.5,248.5"></path><path id="kity_path_276" fill="none" stroke="gray"></path></g><path id="node_outline7" fill="none" stroke="none" d="M542.5,237.5h46a5,5,0,0,1,5,5v12a5,5,0,0,1,-5,5h-46a5,5,0,0,1,-5,-5v-12a5,5,0,0,1,5,-5z"></path><g id="node_text7" fill="black"><text id="kity_text_129" text-rendering="inherit" font-size="12" dy=".8em" y="242.5" x="547.5">主队列</text></g></g><g id="minder_node11"><g id="node_expander12" style="cursor: pointer;"><path id="kity_path_293" fill="white" stroke="gray" d="M453.5,326.5A6,6,0,1,1,441.5,326.5A6,6,0,1,1,453.5,326.5"></path><path id="kity_path_294" fill="none" stroke="gray" d="M443,326.5L452,326.5"></path></g><path id="node_outline13" fill="none" stroke="none" d="M458.5,315.5h58a5,5,0,0,1,5,5v12a5,5,0,0,1,-5,5h-58a5,5,0,0,1,-5,-5v-12a5,5,0,0,1,5,-5z"></path><g id="node_text13" fill="black"><text id="kity_text_141" text-rendering="inherit" font-size="12" dy=".8em" y="320.5" x="463.5">执行方式</text></g></g><g id="minder_node12"><g id="node_expander9" style="cursor: pointer;"><path id="kity_path_284" fill="white" stroke="gray" d="M561.5,300.5A6,6,0,1,1,549.5,300.5A6,6,0,1,1,561.5,300.5"></path><path id="kity_path_285" fill="none" stroke="gray" d="M551,300.5L560,300.5"></path></g><path id="node_outline10" fill="none" stroke="none" d="M566.5,289.5h58a5,5,0,0,1,5,5v12a5,5,0,0,1,-5,5h-58a5,5,0,0,1,-5,-5v-12a5,5,0,0,1,5,-5z"></path><g id="node_text10" fill="black"><text id="kity_text_135" text-rendering="inherit" font-size="12" dy=".8em" y="294.5" x="571.5">同步执行</text></g></g><g id="minder_node13"><g id="node_expander8" style="cursor: pointer;" display="none"><path id="kity_path_281" fill="white" stroke="gray" d="M669.5,300.5A6,6,0,1,1,657.5,300.5A6,6,0,1,1,669.5,300.5"></path><path id="kity_path_282" fill="none" stroke="gray"></path></g><path id="node_outline9" fill="none" stroke="none" d="M674.5,289.5h93a5,5,0,0,1,5,5v12a5,5,0,0,1,-5,5h-93a5,5,0,0,1,-5,-5v-12a5,5,0,0,1,5,-5z"></path><g id="node_text9" fill="black"><text id="kity_text_133" text-rendering="inherit" font-size="12" dy=".8em" y="294.5" x="679.5">dispatch_sync</text></g></g><g id="minder_node14"><g id="node_expander11" style="cursor: pointer;"><path id="kity_path_290" fill="white" stroke="gray" d="M561.5,352.5A6,6,0,1,1,549.5,352.5A6,6,0,1,1,561.5,352.5"></path><path id="kity_path_291" fill="none" stroke="gray" d="M551,352.5L560,352.5"></path></g><path id="node_outline12" fill="none" stroke="none" d="M566.5,341.5h58a5,5,0,0,1,5,5v12a5,5,0,0,1,-5,5h-58a5,5,0,0,1,-5,-5v-12a5,5,0,0,1,5,-5z"></path><g id="node_text12" fill="black"><text id="kity_text_139" text-rendering="inherit" font-size="12" dy=".8em" y="346.5" x="571.5">异步执行</text></g></g><g id="minder_node15"><g id="node_expander10" style="cursor: pointer;" display="none"><path id="kity_path_287" fill="white" stroke="gray" d="M669.5,352.5A6,6,0,1,1,657.5,352.5A6,6,0,1,1,669.5,352.5"></path><path id="kity_path_288" fill="none" stroke="gray"></path></g><path id="node_outline11" fill="none" stroke="none" d="M674.5,341.5h101a5,5,0,0,1,5,5v12a5,5,0,0,1,-5,5h-101a5,5,0,0,1,-5,-5v-12a5,5,0,0,1,5,-5z"></path><g id="node_text11" fill="black"><text id="kity_text_137" text-rendering="inherit" font-size="12" dy=".8em" y="346.5" x="679.5">dispatch_async</text></g></g><g id="minder_node16"><g id="node_expander43" style="cursor: pointer;"><path id="kity_path_386" fill="white" stroke="gray" d="M369.5,861.5A6,6,0,1,1,357.5,861.5A6,6,0,1,1,369.5,861.5"></path><path id="kity_path_387" fill="none" stroke="gray" d="M359,861.5L368,861.5"></path></g><path id="node_outline44" fill="none" stroke="none" d="M374.5,850.5h34a5,5,0,0,1,5,5v12a5,5,0,0,1,-5,5h-34a5,5,0,0,1,-5,-5v-12a5,5,0,0,1,5,-5z"></path><g id="node_text44" fill="black"><text id="kity_text_212" text-rendering="inherit" font-size="12" dy=".8em" y="855.5" x="379.5">作用</text></g></g><g id="minder_node17"><g id="node_expander18" style="cursor: pointer;"><path id="kity_path_311" fill="white" stroke="gray" d="M453.5,457.5A6,6,0,1,1,441.5,457.5A6,6,0,1,1,453.5,457.5"></path><path id="kity_path_312" fill="none" stroke="gray" d="M443,457.5L452,457.5"></path></g><path id="node_outline19" fill="none" stroke="none" d="M458.5,446.5h190a5,5,0,0,1,5,5v12a5,5,0,0,1,-5,5h-190a5,5,0,0,1,-5,-5v-12a5,5,0,0,1,5,-5z"></path><g id="node_text19" fill="black"><text id="kity_text_153" text-rendering="inherit" font-size="12" dy=".8em" y="451.5" x="463.5">如何知道所有任务都已经执行完？</text></g></g><g id="minder_node18"><g id="node_expander17" style="cursor: pointer;"><path id="kity_path_308" fill="white" stroke="gray" d="M693.5,457.5A6,6,0,1,1,681.5,457.5A6,6,0,1,1,693.5,457.5"></path><path id="kity_path_309" fill="none" stroke="gray" d="M683,457.5L692,457.5"></path></g><path id="node_outline18" fill="none" stroke="none" d="M698.5,446.5h126a5,5,0,0,1,5,5v12a5,5,0,0,1,-5,5h-126a5,5,0,0,1,-5,-5v-12a5,5,0,0,1,5,-5z"></path><g id="node_text18" fill="black"><text id="kity_text_151" text-rendering="inherit" font-size="12" dy=".8em" y="451.5" x="703.5">使用dispatch_group</text></g></g><g id="minder_node19"><g id="node_expander14" style="cursor: pointer;" display="none"><path id="kity_path_299" fill="white" stroke="gray" d="M869.5,405.5A6,6,0,1,1,857.5,405.5A6,6,0,1,1,869.5,405.5"></path><path id="kity_path_300" fill="none" stroke="gray"></path></g><path id="node_outline15" fill="none" stroke="none" d="M874.5,394.5h211a5,5,0,0,1,5,5v12a5,5,0,0,1,-5,5h-211a5,5,0,0,1,-5,-5v-12a5,5,0,0,1,5,-5z"></path><g id="node_text15" fill="black"><text id="kity_text_145" text-rendering="inherit" font-size="12" dy=".8em" y="399.5" x="879.5">1、dispatch_group_create()生成组</text></g></g><g id="minder_node20"><g id="node_expander15" style="cursor: pointer;" display="none"><path id="kity_path_302" fill="white" stroke="gray" d="M869.5,457.5A6,6,0,1,1,857.5,457.5A6,6,0,1,1,869.5,457.5"></path><path id="kity_path_303" fill="none" stroke="gray"></path></g><path id="node_outline16" fill="none" stroke="none" d="M874.5,446.5h260a5,5,0,0,1,5,5v12a5,5,0,0,1,-5,5h-260a5,5,0,0,1,-5,-5v-12a5,5,0,0,1,5,-5z"></path><g id="node_text16" fill="black"><text id="kity_text_147" text-rendering="inherit" font-size="12" dy=".8em" y="451.5" x="879.5">2、dispatch_group_async 创建要执行的任务</text></g></g><g id="minder_node21"><g id="node_expander16" style="cursor: pointer;" display="none"><path id="kity_path_305" fill="white" stroke="gray" d="M869.5,509.5A6,6,0,1,1,857.5,509.5A6,6,0,1,1,869.5,509.5"></path><path id="kity_path_306" fill="none" stroke="gray"></path></g><path id="node_outline17" fill="none" stroke="none" d="M874.5,498.5h266a5,5,0,0,1,5,5v12a5,5,0,0,1,-5,5h-266a5,5,0,0,1,-5,-5v-12a5,5,0,0,1,5,-5z"></path><g id="node_text17" fill="black"><text id="kity_text_149" text-rendering="inherit" font-size="12" dy=".8em" y="503.5" x="879.5">3、调用dispatch_group_notify方法，监听任务</text></g></g><g id="minder_node22"><g id="node_expander24" style="cursor: pointer;"><path id="kity_path_329" fill="white" stroke="gray" d="M453.5,639.5A6,6,0,1,1,441.5,639.5A6,6,0,1,1,453.5,639.5"></path><path id="kity_path_330" fill="none" stroke="gray" d="M443,639.5L452,639.5"></path></g><path id="node_outline25" fill="none" stroke="none" d="M458.5,628.5h142a5,5,0,0,1,5,5v12a5,5,0,0,1,-5,5h-142a5,5,0,0,1,-5,-5v-12a5,5,0,0,1,5,-5z"></path><g id="node_text25" fill="black"><text id="kity_text_165" text-rendering="inherit" font-size="12" dy=".8em" y="633.5" x="463.5">如何并发读取，串行写入</text></g></g><g id="minder_node23"><g id="node_expander23" style="cursor: pointer;"><path id="kity_path_326" fill="white" stroke="gray" d="M645.5,639.5A6,6,0,1,1,633.5,639.5A6,6,0,1,1,645.5,639.5"></path><path id="kity_path_327" fill="none" stroke="gray" d="M635,639.5L644,639.5"></path></g><path id="node_outline24" fill="none" stroke="none" d="M650.5,628.5h169a5,5,0,0,1,5,5v12a5,5,0,0,1,-5,5h-169a5,5,0,0,1,-5,-5v-12a5,5,0,0,1,5,-5z"></path><g id="node_text24" fill="black"><text id="kity_text_163" text-rendering="inherit" font-size="12" dy=".8em" y="633.5" x="655.5">使用dispatch_barrier_async</text></g></g><g id="minder_node24"><g id="node_expander19" style="cursor: pointer;" display="none"><path id="kity_path_314" fill="white" stroke="gray" d="M864.5,561.5A6,6,0,1,1,852.5,561.5A6,6,0,1,1,864.5,561.5"></path><path id="kity_path_315" fill="none" stroke="gray"></path></g><path id="node_outline20" fill="none" stroke="none" d="M869.5,550.5h94a5,5,0,0,1,5,5v12a5,5,0,0,1,-5,5h-94a5,5,0,0,1,-5,-5v-12a5,5,0,0,1,5,-5z"></path><g id="node_text20" fill="black"><text id="kity_text_155" text-rendering="inherit" font-size="12" dy=".8em" y="555.5" x="874.5">自定义并发队列</text></g></g><g id="minder_node25"><g id="node_expander20" style="cursor: pointer;" display="none"><path id="kity_path_317" fill="white" stroke="gray" d="M864.5,613.5A6,6,0,1,1,852.5,613.5A6,6,0,1,1,864.5,613.5"></path><path id="kity_path_318" fill="none" stroke="gray"></path></g><path id="node_outline21" fill="none" stroke="none" d="M869.5,602.5h82a5,5,0,0,1,5,5v12a5,5,0,0,1,-5,5h-82a5,5,0,0,1,-5,-5v-12a5,5,0,0,1,5,-5z"></path><g id="node_text21" fill="black"><text id="kity_text_157" text-rendering="inherit" font-size="12" dy=".8em" y="607.5" x="874.5">创建读取线程</text></g></g><g id="minder_node26"><g id="node_expander21" style="cursor: pointer;" display="none"><path id="kity_path_320" fill="white" stroke="gray" d="M864.5,665.5A6,6,0,1,1,852.5,665.5A6,6,0,1,1,864.5,665.5"></path><path id="kity_path_321" fill="none" stroke="gray"></path></g><path id="node_outline22" fill="none" stroke="none" d="M869.5,654.5h217a5,5,0,0,1,5,5v12a5,5,0,0,1,-5,5h-217a5,5,0,0,1,-5,-5v-12a5,5,0,0,1,5,-5z"></path><g id="node_text22" fill="black"><text id="kity_text_159" text-rendering="inherit" font-size="12" dy=".8em" y="659.5" x="874.5">使用dispatch_barrier_async写入线程</text></g></g><g id="minder_node27"><g id="node_expander22" style="cursor: pointer;" display="none"><path id="kity_path_323" fill="white" stroke="gray" d="M864.5,717.5A6,6,0,1,1,852.5,717.5A6,6,0,1,1,864.5,717.5"></path><path id="kity_path_324" fill="none" stroke="gray"></path></g><path id="node_outline23" fill="none" stroke="none" d="M869.5,706.5h82a5,5,0,0,1,5,5v12a5,5,0,0,1,-5,5h-82a5,5,0,0,1,-5,-5v-12a5,5,0,0,1,5,-5z"></path><g id="node_text23" fill="black"><text id="kity_text_161" text-rendering="inherit" font-size="12" dy=".8em" y="711.5" x="874.5">创建读取线程</text></g></g><g id="minder_node28"><g id="node_expander32" style="cursor: pointer;"><path id="kity_path_353" fill="white" stroke="gray" d="M453.5,821.5A6,6,0,1,1,441.5,821.5A6,6,0,1,1,453.5,821.5"></path><path id="kity_path_354" fill="none" stroke="gray" d="M443,821.5L452,821.5"></path></g><path id="node_outline33" fill="none" stroke="none" d="M458.5,810.5h106a5,5,0,0,1,5,5v12a5,5,0,0,1,-5,5h-106a5,5,0,0,1,-5,-5v-12a5,5,0,0,1,5,-5z"></path><g id="node_text33" fill="black"><text id="kity_text_181" text-rendering="inherit" font-size="12" dy=".8em" y="815.5" x="463.5">如何解决共享问题</text></g></g><g id="minder_node29"><g id="node_expander31" style="cursor: pointer;"><path id="kity_path_350" fill="white" stroke="gray" d="M609.5,821.5A6,6,0,1,1,597.5,821.5A6,6,0,1,1,609.5,821.5"></path><path id="kity_path_351" fill="none" stroke="gray" d="M599,821.5L608,821.5"></path></g><path id="node_outline32" fill="none" stroke="none" d="M614.5,810.5h157a5,5,0,0,1,5,5v12a5,5,0,0,1,-5,5h-157a5,5,0,0,1,-5,-5v-12a5,5,0,0,1,5,-5z"></path><g id="node_text32" fill="black"><text id="kity_text_179" text-rendering="inherit" font-size="12" dy=".8em" y="815.5" x="619.5">使用dispatch_semaphore</text></g></g><g id="minder_node30"><g id="node_expander26" style="cursor: pointer;"><path id="kity_path_335" fill="white" stroke="gray" d="M816.5,769.5A6,6,0,1,1,804.5,769.5A6,6,0,1,1,816.5,769.5"></path><path id="kity_path_336" fill="none" stroke="gray" d="M806,769.5L815,769.5"></path></g><path id="node_outline27" fill="none" stroke="none" d="M821.5,758.5h34a5,5,0,0,1,5,5v12a5,5,0,0,1,-5,5h-34a5,5,0,0,1,-5,-5v-12a5,5,0,0,1,5,-5z"></path><g id="node_text27" fill="black"><text id="kity_text_169" text-rendering="inherit" font-size="12" dy=".8em" y="763.5" x="826.5">概念</text></g></g><g id="minder_node31"><g id="node_expander25" style="cursor: pointer;" display="none"><path id="kity_path_332" fill="white" stroke="gray" d="M900.5,769.5A6,6,0,1,1,888.5,769.5A6,6,0,1,1,900.5,769.5"></path><path id="kity_path_333" fill="none" stroke="gray"></path></g><path id="node_outline26" fill="none" stroke="none" d="M905.5,758.5h142a5,5,0,0,1,5,5v12a5,5,0,0,1,-5,5h-142a5,5,0,0,1,-5,-5v-12a5,5,0,0,1,5,-5z"></path><g id="node_text26" fill="black"><text id="kity_text_167" text-rendering="inherit" font-size="12" dy=".8em" y="763.5" x="910.5">信号量是持有计数的信号</text></g></g><g id="minder_node32"><g id="node_expander30" style="cursor: pointer;"><path id="kity_path_347" fill="white" stroke="gray" d="M816.5,873.5A6,6,0,1,1,804.5,873.5A6,6,0,1,1,816.5,873.5"></path><path id="kity_path_348" fill="none" stroke="gray" d="M806,873.5L815,873.5"></path></g><path id="node_outline31" fill="none" stroke="none" d="M821.5,862.5h58a5,5,0,0,1,5,5v12a5,5,0,0,1,-5,5h-58a5,5,0,0,1,-5,-5v-12a5,5,0,0,1,5,-5z"></path><g id="node_text31" fill="black"><text id="kity_text_177" text-rendering="inherit" font-size="12" dy=".8em" y="867.5" x="826.5">如何使用</text></g></g><g id="minder_node33"><g id="node_expander27" style="cursor: pointer;" display="none"><path id="kity_path_338" fill="white" stroke="gray" d="M924.5,821.5A6,6,0,1,1,912.5,821.5A6,6,0,1,1,924.5,821.5"></path><path id="kity_path_339" fill="none" stroke="gray"></path></g><path id="node_outline28" fill="none" stroke="none" d="M929.5,810.5h389a5,5,0,0,1,5,5v12a5,5,0,0,1,-5,5h-389a5,5,0,0,1,-5,-5v-12a5,5,0,0,1,5,-5z"></path><g id="node_text28" fill="black"><text id="kity_text_171" text-rendering="inherit" font-size="12" dy=".8em" y="815.5" x="934.5">通过dispatch_semaphore_create方法创建一个信号量并设置案值为2</text></g></g><g id="minder_node34"><g id="node_expander28" style="cursor: pointer;" display="none"><path id="kity_path_341" fill="white" stroke="gray" d="M924.5,873.5A6,6,0,1,1,912.5,873.5A6,6,0,1,1,924.5,873.5"></path><path id="kity_path_342" fill="none" stroke="gray"></path></g><path id="node_outline29" fill="none" stroke="none" d="M929.5,862.5h416a5,5,0,0,1,5,5v12a5,5,0,0,1,-5,5h-416a5,5,0,0,1,-5,-5v-12a5,5,0,0,1,5,-5z"></path><g id="node_text29" fill="black"><text id="kity_text_173" text-rendering="inherit" font-size="12" dy=".8em" y="867.5" x="934.5">调用dispatch_semaphore_wait(semaphore, DISPATCH_TIME_FOREVER)  </text></g></g><g id="minder_node35"><g id="node_expander29" style="cursor: pointer;" display="none"><path id="kity_path_344" fill="white" stroke="gray" d="M924.5,925.5A6,6,0,1,1,912.5,925.5A6,6,0,1,1,924.5,925.5"></path><path id="kity_path_345" fill="none" stroke="gray"></path></g><path id="node_outline30" fill="none" stroke="none" d="M929.5,914.5h371a5,5,0,0,1,5,5v12a5,5,0,0,1,-5,5h-371a5,5,0,0,1,-5,-5v-12a5,5,0,0,1,5,-5z"></path><g id="node_text30" fill="black"><text id="kity_text_175" text-rendering="inherit" font-size="12" dy=".8em" y="919.5" x="934.5">任务结束调用dispatch_semaphore_signal()方法将信号量的值加 1</text></g></g><g id="minder_node36"><g id="node_expander39" style="cursor: pointer;"><path id="kity_path_374" fill="white" stroke="gray" d="M453.5,1055.5A6,6,0,1,1,441.5,1055.5A6,6,0,1,1,453.5,1055.5"></path><path id="kity_path_375" fill="none" stroke="gray" d="M443,1055.5L452,1055.5"></path></g><path id="node_outline40" fill="none" stroke="none" d="M458.5,1044.5h94a5,5,0,0,1,5,5v12a5,5,0,0,1,-5,5h-94a5,5,0,0,1,-5,-5v-12a5,5,0,0,1,5,-5z"></path><g id="node_text40" fill="black"><text id="kity_text_195" text-rendering="inherit" font-size="12" dy=".8em" y="1049.5" x="463.5">如何暂停和恢复</text></g></g><g id="minder_node37"><g id="node_expander35" style="cursor: pointer;"><path id="kity_path_362" fill="white" stroke="gray" d="M597.5,1003.5A6,6,0,1,1,585.5,1003.5A6,6,0,1,1,597.5,1003.5"></path><path id="kity_path_363" fill="none" stroke="gray" d="M587,1003.5L596,1003.5"></path></g><path id="node_outline36" fill="none" stroke="none" d="M602.5,992.5h34a5,5,0,0,1,5,5v12a5,5,0,0,1,-5,5h-34a5,5,0,0,1,-5,-5v-12a5,5,0,0,1,5,-5z"></path><g id="node_text36" fill="black"><text id="kity_text_187" text-rendering="inherit" font-size="12" dy=".8em" y="997.5" x="607.5">使用</text></g></g><g id="minder_node38"><g id="node_expander33" style="cursor: pointer;" display="none"><path id="kity_path_356" fill="white" stroke="gray" d="M681.5,977.5A6,6,0,1,1,669.5,977.5A6,6,0,1,1,681.5,977.5"></path><path id="kity_path_357" fill="none" stroke="gray"></path></g><path id="node_outline34" fill="none" stroke="none" d="M686.5,966.5h242a5,5,0,0,1,5,5v12a5,5,0,0,1,-5,5h-242a5,5,0,0,1,-5,-5v-12a5,5,0,0,1,5,-5z"></path><g id="node_text34" fill="black"><text id="kity_text_183" text-rendering="inherit" font-size="12" dy=".8em" y="971.5" x="691.5">dispatch_resume(queue)  //恢复某个队列</text></g></g><g id="minder_node39"><g id="node_expander34" style="cursor: pointer;" display="none"><path id="kity_path_359" fill="white" stroke="gray" d="M681.5,1029.5A6,6,0,1,1,669.5,1029.5A6,6,0,1,1,681.5,1029.5"></path><path id="kity_path_360" fill="none" stroke="gray"></path></g><path id="node_outline35" fill="none" stroke="none" d="M686.5,1018.5h248a5,5,0,0,1,5,5v12a5,5,0,0,1,-5,5h-248a5,5,0,0,1,-5,-5v-12a5,5,0,0,1,5,-5z"></path><g id="node_text35" fill="black"><text id="kity_text_185" text-rendering="inherit" font-size="12" dy=".8em" y="1023.5" x="691.5">dispatch_suspend(queue) //暂停某个队列 </text></g></g><g id="minder_node40"><g id="node_expander38" style="cursor: pointer;"><path id="kity_path_371" fill="white" stroke="gray" d="M597.5,1107.5A6,6,0,1,1,585.5,1107.5A6,6,0,1,1,597.5,1107.5"></path><path id="kity_path_372" fill="none" stroke="gray" d="M587,1107.5L596,1107.5"></path></g><path id="node_outline39" fill="none" stroke="none" d="M602.5,1096.5h34a5,5,0,0,1,5,5v12a5,5,0,0,1,-5,5h-34a5,5,0,0,1,-5,-5v-12a5,5,0,0,1,5,-5z"></path><g id="node_text39" fill="black"><text id="kity_text_193" text-rendering="inherit" font-size="12" dy=".8em" y="1101.5" x="607.5">注意</text></g></g><g id="minder_node41"><g id="node_expander36" style="cursor: pointer;" display="none"><path id="kity_path_365" fill="white" stroke="gray" d="M681.5,1081.5A6,6,0,1,1,669.5,1081.5A6,6,0,1,1,681.5,1081.5"></path><path id="kity_path_366" fill="none" stroke="gray"></path></g><path id="node_outline37" fill="none" stroke="none" d="M686.5,1070.5h250a5,5,0,0,1,5,5v12a5,5,0,0,1,-5,5h-250a5,5,0,0,1,-5,-5v-12a5,5,0,0,1,5,-5z"></path><g id="node_text37" fill="black"><text id="kity_text_189" text-rendering="inherit" font-size="12" dy=".8em" y="1075.5" x="691.5">暂停与恢复不会影响到队列中已经执行的任务</text></g></g><g id="minder_node42"><g id="node_expander37" style="cursor: pointer;" display="none"><path id="kity_path_368" fill="white" stroke="gray" d="M681.5,1133.5A6,6,0,1,1,669.5,1133.5A6,6,0,1,1,681.5,1133.5"></path><path id="kity_path_369" fill="none" stroke="gray"></path></g><path id="node_outline38" fill="none" stroke="none" d="M686.5,1122.5h418a5,5,0,0,1,5,5v12a5,5,0,0,1,-5,5h-418a5,5,0,0,1,-5,-5v-12a5,5,0,0,1,5,-5z"></path><g id="node_text38" fill="black"><text id="kity_text_191" text-rendering="inherit" font-size="12" dy=".8em" y="1127.5" x="691.5">暂停后，已经添加到队列中但是还没有执行的任务不会执行，直到队列被恢复</text></g></g><g id="minder_node43"><g id="node_expander42" style="cursor: pointer;"><path id="kity_path_383" fill="white" stroke="gray" d="M453.5,1266.5A6,6,0,1,1,441.5,1266.5A6,6,0,1,1,453.5,1266.5"></path><path id="kity_path_384" fill="none" stroke="gray" d="M443,1266.5L452,1266.5"></path></g><path id="node_outline43" fill="none" stroke="none" d="M458.5,1255.5h389a5,5,0,0,1,5,5v12a5,5,0,0,1,-5,5h-389a5,5,0,0,1,-5,-5v-12a5,5,0,0,1,5,-5z"></path><g id="node_text43" fill="black"><text id="kity_text_210" text-rendering="inherit" font-size="12" dy=".8em" y="1260.5" x="463.5">如何确保lick在应用程序执行过程中只被处理一次，而且它是线程安全的</text></g></g><g id="minder_node44"><g id="node_expander41" style="cursor: pointer;"><path id="kity_path_380" fill="white" stroke="gray" d="M892.5,1266.5A6,6,0,1,1,880.5,1266.5A6,6,0,1,1,892.5,1266.5"></path><path id="kity_path_381" fill="none" stroke="gray" d="M882,1266.5L891,1266.5"></path></g><path id="node_outline42" fill="none" stroke="none" d="M897.5,1255.5h122a5,5,0,0,1,5,5v12a5,5,0,0,1,-5,5h-122a5,5,0,0,1,-5,-5v-12a5,5,0,0,1,5,-5z"></path><g id="node_text42" fill="black"><text id="kity_text_208" text-rendering="inherit" font-size="12" dy=".8em" y="1260.5" x="902.5">使用dispathc_once</text></g></g><g id="minder_node45"><g id="node_expander40" style="cursor: pointer;" display="none"><path id="kity_path_377" fill="white" stroke="gray" d="M1064.5,1266.5A6,6,0,1,1,1052.5,1266.5A6,6,0,1,1,1064.5,1266.5"></path><path id="kity_path_378" fill="none" stroke="gray"></path></g><path id="node_outline41" fill="none" stroke="none" d="M1069.5,1174.5h319a5,5,0,0,1,5,5v174a5,5,0,0,1,-5,5h-319a5,5,0,0,1,-5,-5v-174a5,5,0,0,1,5,-5z"></path><g id="node_text41" fill="black"><text id="kity_text_197" text-rendering="inherit" font-size="12" dy=".8em" y="1179.5" x="1074.5">+ (Manager *)sharedInstance {</text><text id="kity_text_198" text-rendering="inherit" font-size="12" dy=".8em" y="1197.5" x="1074.5">	&#xa0; &#xa0; static Manager *sharedManagerInstance = nil;</text><text id="kity_text_199" text-rendering="inherit" font-size="12" dy=".8em" y="1215.5" x="1074.5">	static dispatch_once_t once;</text><text id="kity_text_200" text-rendering="inherit" font-size="12" dy=".8em" y="1233.5" x="1074.5"></text><text id="kity_text_201" text-rendering="inherit" font-size="12" dy=".8em" y="1251.5" x="1074.5">	dispatch_once($once, ^{</text><text id="kity_text_202" text-rendering="inherit" font-size="12" dy=".8em" y="1269.5" x="1074.5">	&#xa0; &#xa0; &#xa0; &#xa0; &#xa0;sharedManagerInstance = [[Manager alloc] init];</text><text id="kity_text_203" text-rendering="inherit" font-size="12" dy=".8em" y="1287.5" x="1074.5">	&#xa0;});</text><text id="kity_text_204" text-rendering="inherit" font-size="12" dy=".8em" y="1305.5" x="1074.5"></text><text id="kity_text_205" text-rendering="inherit" font-size="12" dy=".8em" y="1323.5" x="1074.5">	&#xa0; &#xa0;return sharedManagerInstance;</text><text id="kity_text_206" text-rendering="inherit" font-size="12" dy=".8em" y="1341.5" x="1074.5">}</text></g></g></g></g></svg>