<svg id="kity_svg_6" xmlns="http://www.w3.org/2000/svg" xmlns:xlink="http://www.w3.org/1999/xlink" version="1.1" width="2832" height="1462" style="background: rgb(251, 251, 251); visibility: visible;" viewBox="0 0 2832 1462"><defs id="kity_defs_7"><linearGradient id="kity_linearGradient_17" x1="0" y1="0" x2="0" y2="1"><stop id="kity_stop_18" offset="0" stop-color="rgb(255, 255, 255)"></stop><stop id="kity_stop_19" offset="1" stop-color="rgb(204, 204, 204)"></stop></linearGradient><marker id="kity_marker_2" orient="auto" refX="6" refY="0" viewBox="-7 -7 14 14" markerWidth="7" markerHeight="7" markerUnits="userSpaceOnUse"><path id="kity_path_3" fill="rgb(115, 161, 191)" stroke="none" d="M6,0A6,6,0,1,1,-6,0A6,6,0,1,1,6,0"></path></marker></defs><g id="kity_g_8"><g id="minder1" text-rendering="optimize-speed"><g id="minder_connect_group1"><path id="kity_path_31" fill="none" stroke="rgb(115, 161, 191)" stroke-width="1" d="M84.5,576.5A182,543,0,0,1,266.5,33.5"></path><path id="kity_path_33" fill="none" stroke="rgb(115, 161, 191)" stroke-width="1" d="M423.5,33.5C443.5,33.5,443.5,33.5,463.5,33.5"></path><path id="kity_path_35" fill="none" stroke="rgb(115, 161, 191)" stroke-width="1" d="M84.5,576.5A182,401,0,0,1,266.5,175.5"></path><path id="kity_path_37" fill="none" stroke="rgb(115, 161, 191)" stroke-width="1" d="M419.5,175.5C439.5,175.5,439.5,175.5,459.5,175.5"></path><path id="kity_path_39" fill="none" stroke="rgb(115, 161, 191)" stroke-width="1" d="M676.5,175.5C696.5,175.5,696.5,97.5,716.5,97.5"></path><path id="kity_path_41" fill="none" stroke="rgb(115, 161, 191)" stroke-width="1" d="M760.5,97.5C780.5,97.5,780.5,97.5,800.5,97.5"></path><path id="kity_path_43" fill="none" stroke="rgb(115, 161, 191)" stroke-width="1" d="M676.5,175.5C696.5,175.5,696.5,253.5,716.5,253.5"></path><path id="kity_path_45" fill="none" stroke="rgb(115, 161, 191)" stroke-width="1" d="M784.5,253.5C809.5,253.5,809.5,254.5,834.5,254.5"></path><path id="kity_path_47" fill="none" stroke="rgb(115, 161, 191)" stroke-width="1" d="M1208.5,254.5C1228.5,254.5,1228.5,150.5,1248.5,150.5"></path><path id="kity_path_49" fill="none" stroke="rgb(115, 161, 191)" stroke-width="1" d="M1208.5,254.5C1228.5,254.5,1228.5,202.5,1248.5,202.5"></path><path id="kity_path_51" fill="none" stroke="rgb(115, 161, 191)" stroke-width="1" d="M1208.5,254.5C1228.5,254.5,1228.5,254.5,1248.5,254.5"></path><path id="kity_path_53" fill="none" stroke="rgb(115, 161, 191)" stroke-width="1" d="M1208.5,254.5C1228.5,254.5,1228.5,306.5,1248.5,306.5"></path><path id="kity_path_55" fill="none" stroke="rgb(115, 161, 191)" stroke-width="1" d="M1208.5,254.5C1228.5,254.5,1228.5,358.5,1248.5,358.5"></path><path id="kity_path_57" fill="none" stroke="rgb(115, 161, 191)" stroke-width="1" d="M84.5,576.5A182,40,0,0,1,266.5,536.5"></path><path id="kity_path_59" fill="none" stroke="rgb(115, 161, 191)" stroke-width="1" d="M444.5,536.5C464.5,536.5,464.5,536.5,484.5,536.5"></path><path id="kity_path_61" fill="none" stroke="rgb(115, 161, 191)" stroke-width="1" d="M1032.5,536.5C1052.5,536.5,1052.5,536.5,1072.5,536.5"></path><path id="kity_path_63" fill="none" stroke="rgb(115, 161, 191)" stroke-width="1" d="M1140.5,536.5C1160.5,536.5,1160.5,419.5,1180.5,419.5"></path><path id="kity_path_65" fill="none" stroke="rgb(115, 161, 191)" stroke-width="1" d="M1140.5,536.5C1160.5,536.5,1160.5,471.5,1180.5,471.5"></path><path id="kity_path_67" fill="none" stroke="rgb(115, 161, 191)" stroke-width="1" d="M1140.5,536.5C1160.5,536.5,1160.5,523.5,1180.5,523.5"></path><path id="kity_path_69" fill="none" stroke="rgb(115, 161, 191)" stroke-width="1" d="M1140.5,536.5C1160.5,536.5,1160.5,653.5,1180.5,653.5"></path><path id="kity_path_71" fill="none" stroke="rgb(115, 161, 191)" stroke-width="1" d="M2336.5,653.5C2356.5,653.5,2356.5,575.5,2376.5,575.5"></path><path id="kity_path_73" fill="none" stroke="rgb(115, 161, 191)" stroke-width="1" d="M2336.5,653.5C2356.5,653.5,2356.5,627.5,2376.5,627.5"></path><path id="kity_path_75" fill="none" stroke="rgb(115, 161, 191)" stroke-width="1" d="M2336.5,653.5C2356.5,653.5,2356.5,679.5,2376.5,679.5"></path><path id="kity_path_77" fill="none" stroke="rgb(115, 161, 191)" stroke-width="1" d="M2336.5,653.5C2356.5,653.5,2356.5,731.5,2376.5,731.5"></path><path id="kity_path_79" fill="none" stroke="rgb(115, 161, 191)" stroke-width="1" d="M84.5,576.5A182,219,0,0,0,266.5,795.5"></path><path id="kity_path_81" fill="none" stroke="rgb(115, 161, 191)" stroke-width="1" d="M472.5,795.5C492.5,795.5,492.5,795.5,512.5,795.5"></path><path id="kity_path_83" fill="none" stroke="rgb(115, 161, 191)" stroke-width="1" d="M84.5,576.5A182,543,0,0,0,266.5,1119.5"></path><path id="kity_path_85" fill="none" stroke="rgb(115, 161, 191)" stroke-width="1" d="M378.5,1119.5C398.5,1119.5,398.5,859.5,418.5,859.5"></path><path id="kity_path_87" fill="none" stroke="rgb(115, 161, 191)" stroke-width="1" d="M558.5,859.5C578.5,859.5,578.5,859.5,598.5,859.5"></path><path id="kity_path_89" fill="none" stroke="rgb(115, 161, 191)" stroke-width="1" d="M378.5,1119.5C398.5,1119.5,398.5,937.5,418.5,937.5"></path><path id="kity_path_91" fill="none" stroke="rgb(115, 161, 191)" stroke-width="1" d="M510.5,937.5C530.5,937.5,530.5,911.5,550.5,911.5"></path><path id="kity_path_93" fill="none" stroke="rgb(115, 161, 191)" stroke-width="1" d="M600.5,911.5C620.5,911.5,620.5,911.5,640.5,911.5"></path><path id="kity_path_95" fill="none" stroke="rgb(115, 161, 191)" stroke-width="1" d="M510.5,937.5C530.5,937.5,530.5,963.5,550.5,963.5"></path><path id="kity_path_97" fill="none" stroke="rgb(115, 161, 191)" stroke-width="1" d="M596.5,963.5C616.5,963.5,616.5,963.5,636.5,963.5"></path><path id="kity_path_99" fill="none" stroke="rgb(115, 161, 191)" stroke-width="1" d="M378.5,1119.5C398.5,1119.5,398.5,1119.5,418.5,1119.5"></path><path id="kity_path_101" fill="none" stroke="rgb(115, 161, 191)" stroke-width="1" d="M486.5,1119.5C506.5,1119.5,506.5,1067.5,526.5,1067.5"></path><path id="kity_path_103" fill="none" stroke="rgb(115, 161, 191)" stroke-width="1" d="M705.5,1067.5C725.5,1067.5,725.5,1015.5,745.5,1015.5"></path><path id="kity_path_105" fill="none" stroke="rgb(115, 161, 191)" stroke-width="1" d="M705.5,1067.5C725.5,1067.5,725.5,1067.5,745.5,1067.5"></path><path id="kity_path_107" fill="none" stroke="rgb(115, 161, 191)" stroke-width="1" d="M705.5,1067.5C725.5,1067.5,725.5,1119.5,745.5,1119.5"></path><path id="kity_path_109" fill="none" stroke="rgb(115, 161, 191)" stroke-width="1" d="M486.5,1119.5C506.5,1119.5,506.5,1171.5,526.5,1171.5"></path><path id="kity_path_111" fill="none" stroke="rgb(115, 161, 191)" stroke-width="1" d="M671.5,1171.5C691.5,1171.5,691.5,1171.5,711.5,1171.5"></path><path id="kity_path_113" fill="none" stroke="rgb(115, 161, 191)" stroke-width="1" d="M378.5,1119.5C398.5,1119.5,398.5,1249.5,418.5,1249.5"></path><path id="kity_path_115" fill="none" stroke="rgb(115, 161, 191)" stroke-width="1" d="M486.5,1249.5C506.5,1249.5,506.5,1223.5,526.5,1223.5"></path><path id="kity_path_117" fill="none" stroke="rgb(115, 161, 191)" stroke-width="1" d="M486.5,1249.5C506.5,1249.5,506.5,1275.5,526.5,1275.5"></path><path id="kity_path_119" fill="none" stroke="rgb(115, 161, 191)" stroke-width="1" d="M777.5,1275.5C797.5,1275.5,797.5,1275.5,817.5,1275.5"></path><path id="kity_path_121" fill="none" stroke="rgb(115, 161, 191)" stroke-width="1" d="M378.5,1119.5C398.5,1119.5,398.5,1379.5,418.5,1379.5"></path><path id="kity_path_123" fill="none" stroke="rgb(115, 161, 191)" stroke-width="1" d="M617.5,1379.5C637.5,1379.5,637.5,1327.5,657.5,1327.5"></path><path id="kity_path_125" fill="none" stroke="rgb(115, 161, 191)" stroke-width="1" d="M617.5,1379.5C637.5,1379.5,637.5,1379.5,657.5,1379.5"></path><path id="kity_path_127" fill="none" stroke="rgb(115, 161, 191)" stroke-width="1" d="M617.5,1379.5C637.5,1379.5,637.5,1431.5,657.5,1431.5"></path></g><g id="minder_node1"><path id="node_outline1" fill="rgb(115, 161, 191)" stroke="rgb(57, 80, 96)" d="M25.5,556.5h118a5,5,0,0,1,5,5v30a5,5,0,0,1,-5,5h-118a5,5,0,0,1,-5,-5v-30a5,5,0,0,1,5,-5z" stroke-width="3"></path><g id="node_text1" fill="white"><text id="kity_text_22" text-rendering="inherit" font-size="16" dy=".8em" y="568.5" x="44.5">图片解压缩</text></g></g><g id="kity_g_12"><path id="kity_path_13" fill="none" stroke="none" d="M44.5,576.5h0v0h0z"></path></g><g id="kity_g_14"><path id="kity_path_15" fill="none" stroke="none" d="M44.5,576.5h0v0h0z"></path><path id="kity_path_16" fill="none" stroke="none"></path></g><g id="minder_node2"><g id="node_expander2" style="cursor: pointer;"><path id="kity_path_282" fill="white" stroke="gray" d="M267.5,33.5A6,6,0,1,1,255.5,33.5A6,6,0,1,1,267.5,33.5"></path><path id="kity_path_283" fill="none" stroke="gray" d="M257,33.5L266,33.5"></path></g><path id="node_outline3" fill="rgb(238, 243, 246)" stroke="rgb(115, 161, 191)" d="M271.5,20.5h149a3,3,0,0,1,3,3v20a3,3,0,0,1,-3,3h-149a3,3,0,0,1,-3,-3v-20a3,3,0,0,1,3,-3z" stroke-width="1"></path><g id="node_text3" fill="black"><text id="kity_text_131" text-rendering="inherit" font-size="14" dy=".8em" y="26.5" x="288.5">解压缩原理(what)</text></g></g><g id="minder_node3"><g id="node_expander1" display="none" style="cursor: pointer;"><path id="kity_path_279" fill="white" stroke="gray" d="M463.5,33.5A6,6,0,1,1,451.5,33.5A6,6,0,1,1,463.5,33.5"></path><path id="kity_path_280" fill="none" stroke="gray"></path></g><path id="node_outline2" fill="none" stroke="none" d="M468.5,22.5h286a5,5,0,0,1,5,5v12a5,5,0,0,1,-5,5h-286a5,5,0,0,1,-5,-5v-12a5,5,0,0,1,5,-5z"></path><g id="node_text2" fill="black"><text id="kity_text_129" text-rendering="inherit" font-size="12" dy=".8em" y="27.5" x="473.5">对图片进行重新绘制，得到一张新的解压缩后的位图</text></g></g><g id="minder_node4"><g id="node_expander13" style="cursor: pointer;"><path id="kity_path_315" fill="white" stroke="gray" d="M267.5,175.5A6,6,0,1,1,255.5,175.5A6,6,0,1,1,267.5,175.5"></path><path id="kity_path_316" fill="none" stroke="gray" d="M257,175.5L266,175.5"></path></g><path id="node_outline14" fill="rgb(238, 243, 246)" stroke="rgb(115, 161, 191)" d="M271.5,162.5h145a3,3,0,0,1,3,3v20a3,3,0,0,1,-3,3h-145a3,3,0,0,1,-3,-3v-20a3,3,0,0,1,3,-3z" stroke-width="1"></path><g id="node_text14" fill="black"><text id="kity_text_156" text-rendering="inherit" font-size="14" dy=".8em" y="168.5" x="288.5">如何解压缩(How)</text></g></g><g id="minder_node5"><g id="node_expander12" style="cursor: pointer;"><path id="kity_path_312" fill="white" stroke="gray" d="M459.5,175.5A6,6,0,1,1,447.5,175.5A6,6,0,1,1,459.5,175.5"></path><path id="kity_path_313" fill="none" stroke="gray" d="M449,175.5L458,175.5"></path></g><path id="node_outline13" fill="none" stroke="none" d="M464.5,164.5h207a5,5,0,0,1,5,5v12a5,5,0,0,1,-5,5h-207a5,5,0,0,1,-5,-5v-12a5,5,0,0,1,5,-5z"></path><g id="node_text13" fill="black"><text id="kity_text_154" text-rendering="inherit" font-size="12" dy=".8em" y="169.5" x="469.5">核心函数CGBitmapContextCreate</text></g></g><g id="minder_node6"><g id="node_expander4" style="cursor: pointer;"><path id="kity_path_288" fill="white" stroke="gray" d="M716.5,97.5A6,6,0,1,1,704.5,97.5A6,6,0,1,1,716.5,97.5"></path><path id="kity_path_289" fill="none" stroke="gray" d="M706,97.5L715,97.5"></path></g><path id="node_outline5" fill="none" stroke="none" d="M721.5,86.5h34a5,5,0,0,1,5,5v12a5,5,0,0,1,-5,5h-34a5,5,0,0,1,-5,-5v-12a5,5,0,0,1,5,-5z"></path><g id="node_text5" fill="black"><text id="kity_text_135" text-rendering="inherit" font-size="12" dy=".8em" y="91.5" x="726.5">含义</text></g></g><g id="minder_node7"><g id="node_expander3" display="none" style="cursor: pointer;"><path id="kity_path_285" fill="white" stroke="gray" d="M800.5,97.5A6,6,0,1,1,788.5,97.5A6,6,0,1,1,800.5,97.5"></path><path id="kity_path_286" fill="none" stroke="gray"></path></g><path id="node_outline4" fill="none" stroke="none" d="M805.5,86.5h466a5,5,0,0,1,5,5v12a5,5,0,0,1,-5,5h-466a5,5,0,0,1,-5,-5v-12a5,5,0,0,1,5,-5z"></path><g id="node_text4" fill="black"><text id="kity_text_133" text-rendering="inherit" font-size="12" dy=".8em" y="91.5" x="810.5">这个函数用于创建一个位图上下文，用来绘制一张宽width 像素，高height像素的位图</text></g></g><g id="minder_node8"><g id="node_expander11" style="cursor: pointer;"><path id="kity_path_309" fill="white" stroke="gray" d="M716.5,253.5A6,6,0,1,1,704.5,253.5A6,6,0,1,1,716.5,253.5"></path><path id="kity_path_310" fill="none" stroke="gray" d="M706,253.5L715,253.5"></path></g><path id="node_outline12" fill="none" stroke="none" d="M721.5,242.5h58a5,5,0,0,1,5,5v12a5,5,0,0,1,-5,5h-58a5,5,0,0,1,-5,-5v-12a5,5,0,0,1,5,-5z"></path><g id="node_text12" fill="black"><text id="kity_text_152" text-rendering="inherit" font-size="12" dy=".8em" y="247.5" x="726.5">完整函数</text></g></g><g id="minder_node9"><g id="node_expander10" style="cursor: pointer;"><path id="kity_path_306" fill="white" stroke="gray" d="M834.5,254.5A6,6,0,1,1,822.5,254.5A6,6,0,1,1,834.5,254.5"></path><path id="kity_path_307" fill="none" stroke="gray" d="M824,254.5L833,254.5"></path></g><path id="node_outline11" fill="none" stroke="none" d="M839.5,216.5h364a5,5,0,0,1,5,5v66a5,5,0,0,1,-5,5h-364a5,5,0,0,1,-5,-5v-66a5,5,0,0,1,5,-5z"></path><g id="node_text11" fill="black"><text id="kity_text_147" text-rendering="inherit" font-size="12" dy=".8em" y="221.5" x="844.5">CGBitmapContextCreate(void * __nullable data,    size_t width, </text><text id="kity_text_148" text-rendering="inherit" font-size="12" dy=".8em" y="239.5" x="844.5">size_t height, size_t bitsPerComponen</text><text id="kity_text_149" text-rendering="inherit" font-size="12" dy=".8em" y="257.5" x="844.5">t, size_t bytesPerRow, </text><text id="kity_text_150" text-rendering="inherit" font-size="12" dy=".8em" y="275.5" x="844.5">&#xa0;CGColorSpaceRef cg_nullable space, uint32_t bitmapInfo)</text></g></g><g id="minder_node10"><g id="node_expander5" display="none" style="cursor: pointer;"><path id="kity_path_291" fill="white" stroke="gray" d="M1248.5,150.5A6,6,0,1,1,1236.5,150.5A6,6,0,1,1,1248.5,150.5"></path><path id="kity_path_292" fill="none" stroke="gray"></path></g><path id="node_outline6" fill="none" stroke="none" d="M1253.5,139.5h924a5,5,0,0,1,5,5v12a5,5,0,0,1,-5,5h-924a5,5,0,0,1,-5,-5v-12a5,5,0,0,1,5,-5z"></path><g id="node_text6" fill="black"><text id="kity_text_137" text-rendering="inherit" font-size="12" dy=".8em" y="144.5" x="1258.5">data:如果不为NULL，那么它应该指向一块大小至少为bytesPerRow * height 字节的内存；如果为NULL,那么系统就会为我们自动分配和释放所需的内存，所以一般指定NUll.</text></g></g><g id="minder_node11"><g id="node_expander6" display="none" style="cursor: pointer;"><path id="kity_path_294" fill="white" stroke="gray" d="M1248.5,202.5A6,6,0,1,1,1236.5,202.5A6,6,0,1,1,1248.5,202.5"></path><path id="kity_path_295" fill="none" stroke="gray"></path></g><path id="node_outline7" fill="none" stroke="none" d="M1253.5,191.5h439a5,5,0,0,1,5,5v12a5,5,0,0,1,-5,5h-439a5,5,0,0,1,-5,-5v-12a5,5,0,0,1,5,-5z"></path><g id="node_text7" fill="black"><text id="kity_text_139" text-rendering="inherit" font-size="12" dy=".8em" y="196.5" x="1258.5">width和height：位图的宽度和高度，分别赋值为图片的像素宽度和像素高度即可</text></g></g><g id="minder_node12"><g id="node_expander7" display="none" style="cursor: pointer;"><path id="kity_path_297" fill="white" stroke="gray" d="M1248.5,254.5A6,6,0,1,1,1236.5,254.5A6,6,0,1,1,1248.5,254.5"></path><path id="kity_path_298" fill="none" stroke="gray"></path></g><path id="node_outline8" fill="none" stroke="none" d="M1253.5,243.5h952a5,5,0,0,1,5,5v12a5,5,0,0,1,-5,5h-952a5,5,0,0,1,-5,-5v-12a5,5,0,0,1,5,-5z"></path><g id="node_text8" fill="black"><text id="kity_text_141" text-rendering="inherit" font-size="12" dy=".8em" y="248.5" x="1258.5">bitsPerComponent：位图的每一行使用的字节数，大小至少为width * bytes per pixel字节，当指定9，系统不仅会为我们自动计算，而且还会进行cache line alignment的优化</text></g></g><g id="minder_node13"><g id="node_expander8" display="none" style="cursor: pointer;"><path id="kity_path_300" fill="white" stroke="gray" d="M1248.5,306.5A6,6,0,1,1,1236.5,306.5A6,6,0,1,1,1248.5,306.5"></path><path id="kity_path_301" fill="none" stroke="gray"></path></g><path id="node_outline9" fill="none" stroke="none" d="M1253.5,295.5h147a5,5,0,0,1,5,5v12a5,5,0,0,1,-5,5h-147a5,5,0,0,1,-5,-5v-12a5,5,0,0,1,5,-5z"></path><g id="node_text9" fill="black"><text id="kity_text_143" text-rendering="inherit" font-size="12" dy=".8em" y="300.5" x="1258.5">space:一般使用RGB即可</text></g></g><g id="minder_node14"><g id="node_expander9" display="none" style="cursor: pointer;"><path id="kity_path_303" fill="white" stroke="gray" d="M1248.5,358.5A6,6,0,1,1,1236.5,358.5A6,6,0,1,1,1248.5,358.5"></path><path id="kity_path_304" fill="none" stroke="gray"></path></g><path id="node_outline10" fill="none" stroke="none" d="M1253.5,347.5h161a5,5,0,0,1,5,5v12a5,5,0,0,1,-5,5h-161a5,5,0,0,1,-5,-5v-12a5,5,0,0,1,5,-5z"></path><g id="node_text10" fill="black"><text id="kity_text_145" text-rendering="inherit" font-size="12" dy=".8em" y="352.5" x="1258.5">bitmapInfo,位图的布局信息</text></g></g><g id="minder_node15"><g id="node_expander24" style="cursor: pointer;"><path id="kity_path_348" fill="white" stroke="gray" d="M267.5,536.5A6,6,0,1,1,255.5,536.5A6,6,0,1,1,267.5,536.5"></path><path id="kity_path_349" fill="none" stroke="gray" d="M257,536.5L266,536.5"></path></g><path id="node_outline25" fill="rgb(238, 243, 246)" stroke="rgb(115, 161, 191)" d="M271.5,523.5h170a3,3,0,0,1,3,3v20a3,3,0,0,1,-3,3h-170a3,3,0,0,1,-3,-3v-20a3,3,0,0,1,3,-3z" stroke-width="1"></path><g id="node_text25" fill="black"><text id="kity_text_178" text-rendering="inherit" font-size="14" dy=".8em" y="529.5" x="288.5">为什么要解压缩(why)</text></g></g><g id="minder_node16"><g id="node_expander23" style="cursor: pointer;"><path id="kity_path_345" fill="white" stroke="gray" d="M484.5,536.5A6,6,0,1,1,472.5,536.5A6,6,0,1,1,484.5,536.5"></path><path id="kity_path_346" fill="none" stroke="gray" d="M474,536.5L483,536.5"></path></g><path id="node_outline24" fill="none" stroke="none" d="M489.5,525.5h538a5,5,0,0,1,5,5v12a5,5,0,0,1,-5,5h-538a5,5,0,0,1,-5,-5v-12a5,5,0,0,1,5,-5z"></path><g id="node_text24" fill="black"><text id="kity_text_176" text-rendering="inherit" font-size="12" dy=".8em" y="530.5" x="494.5">在将磁盘中的图片渲染到屏幕之前，必须先要得到图片的原始像素数据，才能执行后续的绘制操作。</text></g></g><g id="minder_node17"><g id="node_expander22" style="cursor: pointer;"><path id="kity_path_342" fill="white" stroke="gray" d="M1072.5,536.5A6,6,0,1,1,1060.5,536.5A6,6,0,1,1,1072.5,536.5"></path><path id="kity_path_343" fill="none" stroke="gray" d="M1062,536.5L1071,536.5"></path></g><path id="node_outline23" fill="none" stroke="none" d="M1077.5,525.5h58a5,5,0,0,1,5,5v12a5,5,0,0,1,-5,5h-58a5,5,0,0,1,-5,-5v-12a5,5,0,0,1,5,-5z"></path><g id="node_text23" fill="black"><text id="kity_text_174" text-rendering="inherit" font-size="12" dy=".8em" y="530.5" x="1082.5">具体流程</text></g></g><g id="minder_node18"><g id="node_expander14" display="none" style="cursor: pointer;"><path id="kity_path_318" fill="white" stroke="gray" d="M1180.5,419.5A6,6,0,1,1,1168.5,419.5A6,6,0,1,1,1180.5,419.5"></path><path id="kity_path_319" fill="none" stroke="gray"></path></g><path id="node_outline15" fill="none" stroke="none" d="M1185.5,408.5h578a5,5,0,0,1,5,5v12a5,5,0,0,1,-5,5h-578a5,5,0,0,1,-5,-5v-12a5,5,0,0,1,5,-5z"></path><g id="node_text15" fill="black"><text id="kity_text_158" text-rendering="inherit" font-size="12" dy=".8em" y="413.5" x="1190.5">1、假设我们使用 +imageWithContentsOfFile: 方法从磁盘中加载一张图片，这个时候的图片并没有解压缩</text></g></g><g id="minder_node19"><g id="node_expander15" display="none" style="cursor: pointer;"><path id="kity_path_321" fill="white" stroke="gray" d="M1180.5,471.5A6,6,0,1,1,1168.5,471.5A6,6,0,1,1,1180.5,471.5"></path><path id="kity_path_322" fill="none" stroke="gray"></path></g><path id="node_outline16" fill="none" stroke="none" d="M1185.5,460.5h262a5,5,0,0,1,5,5v12a5,5,0,0,1,-5,5h-262a5,5,0,0,1,-5,-5v-12a5,5,0,0,1,5,-5z"></path><g id="node_text16" fill="black"><text id="kity_text_160" text-rendering="inherit" font-size="12" dy=".8em" y="465.5" x="1190.5">2、然后将生成的UIImage赋值给UIImageView</text></g></g><g id="minder_node20"><g id="node_expander16" display="none" style="cursor: pointer;"><path id="kity_path_324" fill="white" stroke="gray" d="M1180.5,523.5A6,6,0,1,1,1168.5,523.5A6,6,0,1,1,1180.5,523.5"></path><path id="kity_path_325" fill="none" stroke="gray"></path></g><path id="node_outline17" fill="none" stroke="none" d="M1185.5,512.5h395a5,5,0,0,1,5,5v12a5,5,0,0,1,-5,5h-395a5,5,0,0,1,-5,-5v-12a5,5,0,0,1,5,-5z"></path><g id="node_text17" fill="black"><text id="kity_text_162" text-rendering="inherit" font-size="12" dy=".8em" y="517.5" x="1190.5">3、接着一个隐式的CATransaction捕获到了UIImageView图层树的变化</text></g></g><g id="minder_node21"><g id="node_expander21" style="cursor: pointer;"><path id="kity_path_339" fill="white" stroke="gray" d="M1180.5,653.5A6,6,0,1,1,1168.5,653.5A6,6,0,1,1,1180.5,653.5"></path><path id="kity_path_340" fill="none" stroke="gray" d="M1170,653.5L1179,653.5"></path></g><path id="node_outline22" fill="none" stroke="none" d="M1185.5,642.5h1146a5,5,0,0,1,5,5v12a5,5,0,0,1,-5,5h-1146a5,5,0,0,1,-5,-5v-12a5,5,0,0,1,5,-5z"></path><g id="node_text22" fill="black"><text id="kity_text_172" text-rendering="inherit" font-size="12" dy=".8em" y="647.5" x="1190.5">4、在主线程的下一个run loop到来时，Core Animation提交了这个隐式的transaction，这个过程可能会对图片进行copy操作，而受图片是否字节对齐等因素的影响，这个copy操作可能会涉及以下部分或全部步骤</text></g></g><g id="minder_node22"><g id="node_expander17" display="none" style="cursor: pointer;"><path id="kity_path_327" fill="white" stroke="gray" d="M2376.5,575.5A6,6,0,1,1,2364.5,575.5A6,6,0,1,1,2376.5,575.5"></path><path id="kity_path_328" fill="none" stroke="gray"></path></g><path id="node_outline18" fill="none" stroke="none" d="M2381.5,564.5h271a5,5,0,0,1,5,5v12a5,5,0,0,1,-5,5h-271a5,5,0,0,1,-5,-5v-12a5,5,0,0,1,5,-5z"></path><g id="node_text18" fill="black"><text id="kity_text_164" text-rendering="inherit" font-size="12" dy=".8em" y="569.5" x="2386.5">a、分配内存缓冲区用于管理文件IO和解压缩操作</text></g></g><g id="minder_node23"><g id="node_expander18" display="none" style="cursor: pointer;"><path id="kity_path_330" fill="white" stroke="gray" d="M2376.5,627.5A6,6,0,1,1,2364.5,627.5A6,6,0,1,1,2376.5,627.5"></path><path id="kity_path_331" fill="none" stroke="gray"></path></g><path id="node_outline19" fill="none" stroke="none" d="M2381.5,616.5h186a5,5,0,0,1,5,5v12a5,5,0,0,1,-5,5h-186a5,5,0,0,1,-5,-5v-12a5,5,0,0,1,5,-5z"></path><g id="node_text19" fill="black"><text id="kity_text_166" text-rendering="inherit" font-size="12" dy=".8em" y="621.5" x="2386.5">b、将文件数据从磁盘读到内存中</text></g></g><g id="minder_node24"><g id="node_expander19" display="none" style="cursor: pointer;"><path id="kity_path_333" fill="white" stroke="gray" d="M2376.5,679.5A6,6,0,1,1,2364.5,679.5A6,6,0,1,1,2376.5,679.5"></path><path id="kity_path_334" fill="none" stroke="gray"></path></g><path id="node_outline20" fill="none" stroke="none" d="M2381.5,668.5h426a5,5,0,0,1,5,5v12a5,5,0,0,1,-5,5h-426a5,5,0,0,1,-5,-5v-12a5,5,0,0,1,5,-5z"></path><g id="node_text20" fill="black"><text id="kity_text_168" text-rendering="inherit" font-size="12" dy=".8em" y="673.5" x="2386.5">c、将压缩的图片数据解码成未压缩的位图形式，这是一个非常耗时的CPU操作</text></g></g><g id="minder_node25"><g id="node_expander20" display="none" style="cursor: pointer;"><path id="kity_path_336" fill="white" stroke="gray" d="M2376.5,731.5A6,6,0,1,1,2364.5,731.5A6,6,0,1,1,2376.5,731.5"></path><path id="kity_path_337" fill="none" stroke="gray"></path></g><path id="node_outline21" fill="none" stroke="none" d="M2381.5,720.5h403a5,5,0,0,1,5,5v12a5,5,0,0,1,-5,5h-403a5,5,0,0,1,-5,-5v-12a5,5,0,0,1,5,-5z"></path><g id="node_text21" fill="black"><text id="kity_text_170" text-rendering="inherit" font-size="12" dy=".8em" y="725.5" x="2386.5">d、最后Core Animation使用未压缩的位图数据渲染UIImageView的图层</text></g></g><g id="minder_node26"><g id="node_expander26" style="cursor: pointer;"><path id="kity_path_354" fill="white" stroke="gray" d="M267.5,795.5A6,6,0,1,1,255.5,795.5A6,6,0,1,1,267.5,795.5"></path><path id="kity_path_355" fill="none" stroke="gray" d="M257,795.5L266,795.5"></path></g><path id="node_outline27" fill="rgb(238, 243, 246)" stroke="rgb(115, 161, 191)" d="M271.5,782.5h198a3,3,0,0,1,3,3v20a3,3,0,0,1,-3,3h-198a3,3,0,0,1,-3,-3v-20a3,3,0,0,1,3,-3z" stroke-width="1"></path><g id="node_text27" fill="black"><text id="kity_text_182" text-rendering="inherit" font-size="14" dy=".8em" y="788.5" x="288.5">什么时候解压缩（when）</text></g></g><g id="minder_node27"><g id="node_expander25" display="none" style="cursor: pointer;"><path id="kity_path_351" fill="white" stroke="gray" d="M512.5,795.5A6,6,0,1,1,500.5,795.5A6,6,0,1,1,512.5,795.5"></path><path id="kity_path_352" fill="none" stroke="gray"></path></g><path id="node_outline26" fill="none" stroke="none" d="M517.5,784.5h250a5,5,0,0,1,5,5v12a5,5,0,0,1,-5,5h-250a5,5,0,0,1,-5,-5v-12a5,5,0,0,1,5,-5z"></path><g id="node_text26" fill="black"><text id="kity_text_180" text-rendering="inherit" font-size="12" dy=".8em" y="789.5" x="522.5">从磁盘中加载一张图片，并将它显示到屏幕上</text></g></g><g id="minder_node28"><g id="node_expander49" style="cursor: pointer;"><path id="kity_path_423" fill="white" stroke="gray" d="M267.5,1119.5A6,6,0,1,1,255.5,1119.5A6,6,0,1,1,267.5,1119.5"></path><path id="kity_path_424" fill="none" stroke="gray" d="M257,1119.5L266,1119.5"></path></g><path id="node_outline50" fill="rgb(238, 243, 246)" stroke="rgb(115, 161, 191)" d="M271.5,1106.5h104a3,3,0,0,1,3,3v20a3,3,0,0,1,-3,3h-104a3,3,0,0,1,-3,-3v-20a3,3,0,0,1,3,-3z" stroke-width="1"></path><g id="node_text50" fill="black"><text id="kity_text_228" text-rendering="inherit" font-size="14" dy=".8em" y="1112.5" x="288.5">什么是位图</text></g></g><g id="minder_node29"><g id="node_expander28" style="cursor: pointer;"><path id="kity_path_360" fill="white" stroke="gray" d="M418.5,859.5A6,6,0,1,1,406.5,859.5A6,6,0,1,1,418.5,859.5"></path><path id="kity_path_361" fill="none" stroke="gray" d="M408,859.5L417,859.5"></path></g><path id="node_outline29" fill="none" stroke="none" d="M423.5,848.5h130a5,5,0,0,1,5,5v12a5,5,0,0,1,-5,5h-130a5,5,0,0,1,-5,-5v-12a5,5,0,0,1,5,-5z"></path><g id="node_text29" fill="black"><text id="kity_text_186" text-rendering="inherit" font-size="12" dy=".8em" y="853.5" x="428.5">位图就是一个像素数组</text></g></g><g id="minder_node30"><g id="node_expander27" display="none" style="cursor: pointer;"><path id="kity_path_357" fill="white" stroke="gray" d="M598.5,859.5A6,6,0,1,1,586.5,859.5A6,6,0,1,1,598.5,859.5"></path><path id="kity_path_358" fill="none" stroke="gray"></path></g><path id="node_outline28" fill="none" stroke="none" d="M603.5,848.5h270a5,5,0,0,1,5,5v12a5,5,0,0,1,-5,5h-270a5,5,0,0,1,-5,-5v-12a5,5,0,0,1,5,-5z"></path><g id="node_text28" fill="black"><text id="kity_text_184" text-rendering="inherit" font-size="12" dy=".8em" y="853.5" x="608.5">我们在应用中常用到的JPEG和PNG图片就是位图</text></g></g><g id="minder_node31"><g id="node_expander33" style="cursor: pointer;"><path id="kity_path_375" fill="white" stroke="gray" d="M418.5,937.5A6,6,0,1,1,406.5,937.5A6,6,0,1,1,418.5,937.5"></path><path id="kity_path_376" fill="none" stroke="gray" d="M408,937.5L417,937.5"></path></g><path id="node_outline34" fill="none" stroke="none" d="M423.5,926.5h82a5,5,0,0,1,5,5v12a5,5,0,0,1,-5,5h-82a5,5,0,0,1,-5,-5v-12a5,5,0,0,1,5,-5z"></path><g id="node_text34" fill="black"><text id="kity_text_196" text-rendering="inherit" font-size="12" dy=".8em" y="931.5" x="428.5">位图图形格式</text></g></g><g id="minder_node32"><g id="node_expander30" style="cursor: pointer;"><path id="kity_path_366" fill="white" stroke="gray" d="M550.5,911.5A6,6,0,1,1,538.5,911.5A6,6,0,1,1,550.5,911.5"></path><path id="kity_path_367" fill="none" stroke="gray" d="M540,911.5L549,911.5"></path></g><path id="node_outline31" fill="none" stroke="none" d="M555.5,900.5h40a5,5,0,0,1,5,5v12a5,5,0,0,1,-5,5h-40a5,5,0,0,1,-5,-5v-12a5,5,0,0,1,5,-5z"></path><g id="node_text31" fill="black"><text id="kity_text_190" text-rendering="inherit" font-size="12" dy=".8em" y="905.5" x="560.5">JPEG</text></g></g><g id="minder_node33"><g id="node_expander29" display="none" style="cursor: pointer;"><path id="kity_path_363" fill="white" stroke="gray" d="M640.5,911.5A6,6,0,1,1,628.5,911.5A6,6,0,1,1,640.5,911.5"></path><path id="kity_path_364" fill="none" stroke="gray"></path></g><path id="node_outline30" fill="none" stroke="none" d="M645.5,900.5h206a5,5,0,0,1,5,5v12a5,5,0,0,1,-5,5h-206a5,5,0,0,1,-5,-5v-12a5,5,0,0,1,5,-5z"></path><g id="node_text30" fill="black"><text id="kity_text_188" text-rendering="inherit" font-size="12" dy=".8em" y="905.5" x="650.5">有损压缩，可以指定0-100%的压缩比</text></g></g><g id="minder_node34"><g id="node_expander32" style="cursor: pointer;"><path id="kity_path_372" fill="white" stroke="gray" d="M550.5,963.5A6,6,0,1,1,538.5,963.5A6,6,0,1,1,550.5,963.5"></path><path id="kity_path_373" fill="none" stroke="gray" d="M540,963.5L549,963.5"></path></g><path id="node_outline33" fill="none" stroke="none" d="M555.5,952.5h36a5,5,0,0,1,5,5v12a5,5,0,0,1,-5,5h-36a5,5,0,0,1,-5,-5v-12a5,5,0,0,1,5,-5z"></path><g id="node_text33" fill="black"><text id="kity_text_194" text-rendering="inherit" font-size="12" dy=".8em" y="957.5" x="560.5">PNG</text></g></g><g id="minder_node35"><g id="node_expander31" display="none" style="cursor: pointer;"><path id="kity_path_369" fill="white" stroke="gray" d="M636.5,963.5A6,6,0,1,1,624.5,963.5A6,6,0,1,1,636.5,963.5"></path><path id="kity_path_370" fill="none" stroke="gray"></path></g><path id="node_outline32" fill="none" stroke="none" d="M641.5,952.5h179a5,5,0,0,1,5,5v12a5,5,0,0,1,-5,5h-179a5,5,0,0,1,-5,-5v-12a5,5,0,0,1,5,-5z"></path><g id="node_text32" fill="black"><text id="kity_text_192" text-rendering="inherit" font-size="12" dy=".8em" y="957.5" x="646.5">&#xa0;无损压缩，并且支持alpha通道</text></g></g><g id="minder_node36"><g id="node_expander40" style="cursor: pointer;"><path id="kity_path_396" fill="white" stroke="gray" d="M418.5,1119.5A6,6,0,1,1,406.5,1119.5A6,6,0,1,1,418.5,1119.5"></path><path id="kity_path_397" fill="none" stroke="gray" d="M408,1119.5L417,1119.5"></path></g><path id="node_outline41" fill="none" stroke="none" d="M423.5,1108.5h58a5,5,0,0,1,5,5v12a5,5,0,0,1,-5,5h-58a5,5,0,0,1,-5,-5v-12a5,5,0,0,1,5,-5z"></path><g id="node_text41" fill="black"><text id="kity_text_210" text-rendering="inherit" font-size="12" dy=".8em" y="1113.5" x="428.5">像素格式</text></g></g><g id="minder_node37"><g id="node_expander37" style="cursor: pointer;"><path id="kity_path_387" fill="white" stroke="gray" d="M526.5,1067.5A6,6,0,1,1,514.5,1067.5A6,6,0,1,1,526.5,1067.5"></path><path id="kity_path_388" fill="none" stroke="gray" d="M516,1067.5L525,1067.5"></path></g><path id="node_outline38" fill="none" stroke="none" d="M531.5,1056.5h169a5,5,0,0,1,5,5v12a5,5,0,0,1,-5,5h-169a5,5,0,0,1,-5,-5v-12a5,5,0,0,1,5,-5z"></path><g id="node_text38" fill="black"><text id="kity_text_204" text-rendering="inherit" font-size="12" dy=".8em" y="1061.5" x="536.5">&#xa0;用来描述每个像素的组成格式</text></g></g><g id="minder_node38"><g id="node_expander34" display="none" style="cursor: pointer;"><path id="kity_path_378" fill="white" stroke="gray" d="M745.5,1015.5A6,6,0,1,1,733.5,1015.5A6,6,0,1,1,745.5,1015.5"></path><path id="kity_path_379" fill="none" stroke="gray"></path></g><path id="node_outline35" fill="none" stroke="none" d="M750.5,1004.5h352a5,5,0,0,1,5,5v12a5,5,0,0,1,-5,5h-352a5,5,0,0,1,-5,-5v-12a5,5,0,0,1,5,-5z"></path><g id="node_text35" fill="black"><text id="kity_text_198" text-rendering="inherit" font-size="12" dy=".8em" y="1009.5" x="755.5">Bit per component:一个像素中第个独立的颜色分量使用的bit数</text></g></g><g id="minder_node39"><g id="node_expander35" display="none" style="cursor: pointer;"><path id="kity_path_381" fill="white" stroke="gray" d="M745.5,1067.5A6,6,0,1,1,733.5,1067.5A6,6,0,1,1,745.5,1067.5"></path><path id="kity_path_382" fill="none" stroke="gray"></path></g><path id="node_outline36" fill="none" stroke="none" d="M750.5,1056.5h209a5,5,0,0,1,5,5v12a5,5,0,0,1,-5,5h-209a5,5,0,0,1,-5,-5v-12a5,5,0,0,1,5,-5z"></path><g id="node_text36" fill="black"><text id="kity_text_200" text-rendering="inherit" font-size="12" dy=".8em" y="1061.5" x="755.5">Bits per pixel 一个像素使用的总bit 数</text></g></g><g id="minder_node40"><g id="node_expander36" display="none" style="cursor: pointer;"><path id="kity_path_384" fill="white" stroke="gray" d="M745.5,1119.5A6,6,0,1,1,733.5,1119.5A6,6,0,1,1,745.5,1119.5"></path><path id="kity_path_385" fill="none" stroke="gray"></path></g><path id="node_outline37" fill="none" stroke="none" d="M750.5,1108.5h234a5,5,0,0,1,5,5v12a5,5,0,0,1,-5,5h-234a5,5,0,0,1,-5,-5v-12a5,5,0,0,1,5,-5z"></path><g id="node_text37" fill="black"><text id="kity_text_202" text-rendering="inherit" font-size="12" dy=".8em" y="1113.5" x="755.5">Bytes per row 位图中的每一行使用的字节</text></g></g><g id="minder_node41"><g id="node_expander39" style="cursor: pointer;"><path id="kity_path_393" fill="white" stroke="gray" d="M526.5,1171.5A6,6,0,1,1,514.5,1171.5A6,6,0,1,1,526.5,1171.5"></path><path id="kity_path_394" fill="none" stroke="gray" d="M516,1171.5L525,1171.5"></path></g><path id="node_outline40" fill="none" stroke="none" d="M531.5,1160.5h135a5,5,0,0,1,5,5v12a5,5,0,0,1,-5,5h-135a5,5,0,0,1,-5,-5v-12a5,5,0,0,1,5,-5z"></path><g id="node_text40" fill="black"><text id="kity_text_208" text-rendering="inherit" font-size="12" dy=".8em" y="1165.5" x="536.5">IOS 只支持8种像素格式</text></g></g><g id="minder_node42"><g id="node_expander38" display="none" style="cursor: pointer;"><path id="kity_path_390" fill="white" stroke="gray" d="M711.5,1171.5A6,6,0,1,1,699.5,1171.5A6,6,0,1,1,711.5,1171.5"></path><path id="kity_path_391" fill="none" stroke="gray"></path></g><path id="node_outline39" fill="none" stroke="none" d="M716.5,1160.5h343a5,5,0,0,1,5,5v12a5,5,0,0,1,-5,5h-343a5,5,0,0,1,-5,-5v-12a5,5,0,0,1,5,-5z"></path><g id="node_text39" fill="black"><text id="kity_text_206" text-rendering="inherit" font-size="12" dy=".8em" y="1165.5" x="721.5">颜色空间为Null的1种，Gray的2种，RGB的5种，不支持CMYK</text></g></g><g id="minder_node43"><g id="node_expander44" style="cursor: pointer;"><path id="kity_path_408" fill="white" stroke="gray" d="M418.5,1249.5A6,6,0,1,1,406.5,1249.5A6,6,0,1,1,418.5,1249.5"></path><path id="kity_path_409" fill="none" stroke="gray" d="M408,1249.5L417,1249.5"></path></g><path id="node_outline45" fill="none" stroke="none" d="M423.5,1238.5h58a5,5,0,0,1,5,5v12a5,5,0,0,1,-5,5h-58a5,5,0,0,1,-5,-5v-12a5,5,0,0,1,5,-5z"></path><g id="node_text45" fill="black"><text id="kity_text_218" text-rendering="inherit" font-size="12" dy=".8em" y="1243.5" x="428.5">颜色空间</text></g></g><g id="minder_node44"><g id="node_expander41" display="none" style="cursor: pointer;"><path id="kity_path_399" fill="white" stroke="gray" d="M526.5,1223.5A6,6,0,1,1,514.5,1223.5A6,6,0,1,1,526.5,1223.5"></path><path id="kity_path_400" fill="none" stroke="gray"></path></g><path id="node_outline42" fill="none" stroke="none" d="M531.5,1212.5h142a5,5,0,0,1,5,5v12a5,5,0,0,1,-5,5h-142a5,5,0,0,1,-5,-5v-12a5,5,0,0,1,5,-5z"></path><g id="node_text42" fill="black"><text id="kity_text_212" text-rendering="inherit" font-size="12" dy=".8em" y="1217.5" x="536.5">用来说明如何解析颜色值</text></g></g><g id="minder_node45"><g id="node_expander43" style="cursor: pointer;"><path id="kity_path_405" fill="white" stroke="gray" d="M526.5,1275.5A6,6,0,1,1,514.5,1275.5A6,6,0,1,1,526.5,1275.5"></path><path id="kity_path_406" fill="none" stroke="gray" d="M516,1275.5L525,1275.5"></path></g><path id="node_outline44" fill="none" stroke="none" d="M531.5,1264.5h241a5,5,0,0,1,5,5v12a5,5,0,0,1,-5,5h-241a5,5,0,0,1,-5,-5v-12a5,5,0,0,1,5,-5z"></path><g id="node_text44" fill="black"><text id="kity_text_216" text-rendering="inherit" font-size="12" dy=".8em" y="1269.5" x="536.5">一个颜色是由一组值来表示的,比如0，0，1.</text></g></g><g id="minder_node46"><g id="node_expander42" display="none" style="cursor: pointer;"><path id="kity_path_402" fill="white" stroke="gray" d="M817.5,1275.5A6,6,0,1,1,805.5,1275.5A6,6,0,1,1,817.5,1275.5"></path><path id="kity_path_403" fill="none" stroke="gray"></path></g><path id="node_outline43" fill="none" stroke="none" d="M822.5,1264.5h158a5,5,0,0,1,5,5v12a5,5,0,0,1,-5,5h-158a5,5,0,0,1,-5,-5v-12a5,5,0,0,1,5,-5z"></path><g id="node_text43" fill="black"><text id="kity_text_214" text-rendering="inherit" font-size="12" dy=".8em" y="1269.5" x="827.5">RGB:0,0,1.Red,green,blue</text></g></g><g id="minder_node47"><g id="node_expander48" style="cursor: pointer;"><path id="kity_path_420" fill="white" stroke="gray" d="M418.5,1379.5A6,6,0,1,1,406.5,1379.5A6,6,0,1,1,418.5,1379.5"></path><path id="kity_path_421" fill="none" stroke="gray" d="M408,1379.5L417,1379.5"></path></g><path id="node_outline49" fill="none" stroke="none" d="M423.5,1368.5h189a5,5,0,0,1,5,5v12a5,5,0,0,1,-5,5h-189a5,5,0,0,1,-5,-5v-12a5,5,0,0,1,5,-5z"></path><g id="node_text49" fill="black"><text id="kity_text_226" text-rendering="inherit" font-size="12" dy=".8em" y="1373.5" x="428.5">位图布局信息（CGBitmapInfo）</text></g></g><g id="minder_node48"><g id="node_expander45" display="none" style="cursor: pointer;"><path id="kity_path_411" fill="white" stroke="gray" d="M657.5,1327.5A6,6,0,1,1,645.5,1327.5A6,6,0,1,1,657.5,1327.5"></path><path id="kity_path_412" fill="none" stroke="gray"></path></g><path id="node_outline46" fill="none" stroke="none" d="M662.5,1316.5h80a5,5,0,0,1,5,5v12a5,5,0,0,1,-5,5h-80a5,5,0,0,1,-5,-5v-12a5,5,0,0,1,5,-5z"></path><g id="node_text46" fill="black"><text id="kity_text_220" text-rendering="inherit" font-size="12" dy=".8em" y="1321.5" x="667.5">alpha的信息</text></g></g><g id="minder_node49"><g id="node_expander46" display="none" style="cursor: pointer;"><path id="kity_path_414" fill="white" stroke="gray" d="M657.5,1379.5A6,6,0,1,1,645.5,1379.5A6,6,0,1,1,657.5,1379.5"></path><path id="kity_path_415" fill="none" stroke="gray"></path></g><path id="node_outline47" fill="none" stroke="none" d="M662.5,1368.5h130a5,5,0,0,1,5,5v12a5,5,0,0,1,-5,5h-130a5,5,0,0,1,-5,-5v-12a5,5,0,0,1,5,-5z"></path><g id="node_text47" fill="black"><text id="kity_text_222" text-rendering="inherit" font-size="12" dy=".8em" y="1373.5" x="667.5">颜色分量是否为浮点数</text></g></g><g id="minder_node50"><g id="node_expander47" display="none" style="cursor: pointer;"><path id="kity_path_417" fill="white" stroke="gray" d="M657.5,1431.5A6,6,0,1,1,645.5,1431.5A6,6,0,1,1,657.5,1431.5"></path><path id="kity_path_418" fill="none" stroke="gray"></path></g><path id="node_outline48" fill="none" stroke="none" d="M662.5,1420.5h118a5,5,0,0,1,5,5v12a5,5,0,0,1,-5,5h-118a5,5,0,0,1,-5,-5v-12a5,5,0,0,1,5,-5z"></path><g id="node_text48" fill="black"><text id="kity_text_224" text-rendering="inherit" font-size="12" dy=".8em" y="1425.5" x="667.5">像素格式的字节顺序</text></g></g></g></g></svg>