<svg id="kity_svg_6" xmlns="http://www.w3.org/2000/svg" xmlns:xlink="http://www.w3.org/1999/xlink" version="1.1" width="644" height="369" style="background: rgb(251, 251, 251); visibility: visible;" viewBox="0 0 644 369"><defs id="kity_defs_7"><linearGradient id="kity_linearGradient_17" x1="0" y1="0" x2="0" y2="1"><stop id="kity_stop_18" offset="0" stop-color="rgb(255, 255, 255)"></stop><stop id="kity_stop_19" offset="1" stop-color="rgb(204, 204, 204)"></stop></linearGradient><marker id="kity_marker_2" orient="auto" refX="6" refY="0" viewBox="-7 -7 14 14" markerWidth="7" markerHeight="7" markerUnits="userSpaceOnUse"><path id="kity_path_3" fill="rgb(115, 161, 191)" stroke="none" d="M6,0A6,6,0,1,1,-6,0A6,6,0,1,1,6,0"></path></marker></defs><g id="kity_g_8"><g id="minder1" text-rendering="optimize-speed"><g id="minder_connect_group1"><path id="kity_path_31" fill="none" stroke="rgb(115, 161, 191)" stroke-width="1" d="M182.5,60.5v30h-106.5V110.5"></path><path id="kity_path_33" fill="none" stroke="rgb(115, 161, 191)" stroke-width="1" d="M40.5,136.5V182.5L60.5,182.5"></path><path id="kity_path_35" fill="none" stroke="rgb(115, 161, 191)" stroke-width="1" d="M182.5,60.5v30h128V110.5"></path><path id="kity_path_37" fill="none" stroke="rgb(115, 161, 191)" stroke-width="1" d="M296.5,136.5V182.5L316.5,182.5"></path><path id="kity_path_39" fill="none" stroke="rgb(115, 161, 191)" stroke-width="1" d="M336.5,193.5V234.5L356.5,234.5"></path><path id="kity_path_41" fill="none" stroke="rgb(115, 161, 191)" stroke-width="1" d="M336.5,193.5V286.5L356.5,286.5"></path><path id="kity_path_43" fill="none" stroke="rgb(115, 161, 191)" stroke-width="1" d="M296.5,136.5V338.5L316.5,338.5"></path></g><g id="minder_node1"><path id="node_outline1" fill="rgb(115, 161, 191)" stroke="rgb(57, 80, 96)" d="M146.5,20.5h72a5,5,0,0,1,5,5v30a5,5,0,0,1,-5,5h-72a5,5,0,0,1,-5,-5v-30a5,5,0,0,1,5,-5z" stroke-width="3"></path><g id="node_text1" fill="white"><text id="kity_text_22" text-rendering="inherit" font-size="16" dy=".8em" y="32.5" x="165.5">KVC</text></g></g><g id="kity_g_12"><path id="kity_path_13" fill="none" stroke="none" d="M165.5,40.5h0v0h0z"></path></g><g id="kity_g_14"><path id="kity_path_15" fill="none" stroke="none" d="M165.5,40.5h0v0h0z"></path><path id="kity_path_16" fill="none" stroke="none"></path></g><g id="minder_node2"><g id="node_expander2" style="cursor: pointer;"><path id="kity_path_69" fill="white" stroke="gray" d="M82,103.5A6,6,0,1,1,70,103.5A6,6,0,1,1,82,103.5"></path><path id="kity_path_70" fill="none" stroke="gray" d="M71.5,103.5L80.5,103.5"></path></g><path id="node_outline3" fill="rgb(238, 243, 246)" stroke="rgb(115, 161, 191)" d="M23.5,110.5h105a3,3,0,0,1,3,3v20a3,3,0,0,1,-3,3h-105a3,3,0,0,1,-3,-3v-20a3,3,0,0,1,3,-3z" stroke-width="1"></path><g id="node_text3" fill="black"><text id="kity_text_47" text-rendering="inherit" font-size="14" dy=".8em" y="116.5" x="40.5">什么是KVC</text></g></g><g id="minder_node3"><g id="node_expander1" display="none" style="cursor: pointer;"><path id="kity_path_66" fill="white" stroke="gray" d="M60.5,182.5A6,6,0,1,1,48.5,182.5A6,6,0,1,1,60.5,182.5"></path><path id="kity_path_67" fill="none" stroke="gray"></path></g><path id="node_outline2" fill="none" stroke="none" d="M65.5,171.5h166a5,5,0,0,1,5,5v12a5,5,0,0,1,-5,5h-166a5,5,0,0,1,-5,-5v-12a5,5,0,0,1,5,-5z"></path><g id="node_text2" fill="black"><text id="kity_text_45" text-rendering="inherit" font-size="12" dy=".8em" y="176.5" x="70.5">给某一个对象的属性进行赋值</text></g></g><g id="minder_node4"><g id="node_expander7" style="cursor: pointer;"><path id="kity_path_84" fill="white" stroke="gray" d="M316.5,103.5A6,6,0,1,1,304.5,103.5A6,6,0,1,1,316.5,103.5"></path><path id="kity_path_85" fill="none" stroke="gray" d="M306,103.5L315,103.5"></path></g><path id="node_outline8" fill="rgb(238, 243, 246)" stroke="rgb(115, 161, 191)" d="M279.5,110.5h62a3,3,0,0,1,3,3v20a3,3,0,0,1,-3,3h-62a3,3,0,0,1,-3,-3v-20a3,3,0,0,1,3,-3z" stroke-width="1"></path><g id="node_text8" fill="black"><text id="kity_text_57" text-rendering="inherit" font-size="14" dy=".8em" y="116.5" x="296.5">用法</text></g></g><g id="minder_node5"><g id="node_expander5" style="cursor: pointer;"><path id="kity_path_78" fill="white" stroke="gray" d="M316.5,182.5A6,6,0,1,1,304.5,182.5A6,6,0,1,1,316.5,182.5"></path><path id="kity_path_79" fill="none" stroke="gray" d="M306,182.5L315,182.5"></path></g><path id="node_outline6" fill="none" stroke="none" d="M321.5,171.5h94a5,5,0,0,1,5,5v12a5,5,0,0,1,-5,5h-94a5,5,0,0,1,-5,-5v-12a5,5,0,0,1,5,-5z"></path><g id="node_text6" fill="black"><text id="kity_text_53" text-rendering="inherit" font-size="12" dy=".8em" y="176.5" x="326.5">给私有变量赋值</text></g></g><g id="minder_node6"><g id="node_expander3" display="none" style="cursor: pointer;"><path id="kity_path_72" fill="white" stroke="gray" d="M356.5,234.5A6,6,0,1,1,344.5,234.5A6,6,0,1,1,356.5,234.5"></path><path id="kity_path_73" fill="none" stroke="gray"></path></g><path id="node_outline4" fill="none" stroke="none" d="M361.5,223.5h215a5,5,0,0,1,5,5v12a5,5,0,0,1,-5,5h-215a5,5,0,0,1,-5,-5v-12a5,5,0,0,1,5,-5z"></path><g id="node_text4" fill="black"><text id="kity_text_49" text-rendering="inherit" font-size="12" dy=".8em" y="228.5" x="366.5">[p setValue;@170 forKey:@"height"];</text></g></g><g id="minder_node7"><g id="node_expander4" display="none" style="cursor: pointer;"><path id="kity_path_75" fill="white" stroke="gray" d="M356.5,286.5A6,6,0,1,1,344.5,286.5A6,6,0,1,1,356.5,286.5"></path><path id="kity_path_76" fill="none" stroke="gray"></path></g><path id="node_outline5" fill="none" stroke="none" d="M361.5,275.5h258a5,5,0,0,1,5,5v12a5,5,0,0,1,-5,5h-258a5,5,0,0,1,-5,-5v-12a5,5,0,0,1,5,-5z"></path><g id="node_text5" fill="black"><text id="kity_text_51" text-rendering="inherit" font-size="12" dy=".8em" y="280.5" x="366.5">[p setValue:200 forKeyPath:@"dog.weight"]</text></g></g><g id="minder_node8"><g id="node_expander6" display="none" style="cursor: pointer;"><path id="kity_path_81" fill="white" stroke="gray" d="M316.5,338.5A6,6,0,1,1,304.5,338.5A6,6,0,1,1,316.5,338.5"></path><path id="kity_path_82" fill="none" stroke="gray"></path></g><path id="node_outline7" fill="none" stroke="none" d="M321.5,327.5h70a5,5,0,0,1,5,5v12a5,5,0,0,1,-5,5h-70a5,5,0,0,1,-5,-5v-12a5,5,0,0,1,5,-5z"></path><g id="node_text7" fill="black"><text id="kity_text_55" text-rendering="inherit" font-size="12" dy=".8em" y="332.5" x="326.5">字典转模型</text></g></g></g></g></svg>