<svg id="kity_svg_6" xmlns="http://www.w3.org/2000/svg" xmlns:xlink="http://www.w3.org/1999/xlink" version="1.1" width="1261" height="493" style="background: rgb(251, 251, 251); visibility: visible;" viewBox="0 0 1261 493"><defs id="kity_defs_7"><linearGradient id="kity_linearGradient_17" x1="0" y1="0" x2="0" y2="1"><stop id="kity_stop_18" offset="0" stop-color="rgb(255, 255, 255)"></stop><stop id="kity_stop_19" offset="1" stop-color="rgb(204, 204, 204)"></stop></linearGradient><marker id="kity_marker_2" orient="auto" refX="6" refY="0" viewBox="-7 -7 14 14" markerWidth="7" markerHeight="7" markerUnits="userSpaceOnUse"><path id="kity_path_3" fill="rgb(115, 161, 191)" stroke="none" d="M6,0A6,6,0,1,1,-6,0A6,6,0,1,1,6,0"></path></marker></defs><g id="kity_g_8"><g id="minder1" text-rendering="optimize-speed"><g id="minder_connect_group1"><path id="kity_path_31" fill="none" stroke="rgb(115, 161, 191)" stroke-width="1" d="M441.5,60.5v30h-364.5V110.5"></path><path id="kity_path_33" fill="none" stroke="rgb(115, 161, 191)" stroke-width="1" d="M40.5,136.5V182.5L60.5,182.5"></path><path id="kity_path_35" fill="none" stroke="rgb(115, 161, 191)" stroke-width="1" d="M441.5,60.5v30h-38.5V110.5"></path><path id="kity_path_37" fill="none" stroke="rgb(115, 161, 191)" stroke-width="1" d="M388.5,136.5V182.5L408.5,182.5"></path><path id="kity_path_39" fill="none" stroke="rgb(115, 161, 191)" stroke-width="1" d="M388.5,136.5V234.5L408.5,234.5"></path><path id="kity_path_41" fill="none" stroke="rgb(115, 161, 191)" stroke-width="1" d="M428.5,245.5V286.5L448.5,286.5"></path><path id="kity_path_43" fill="none" stroke="rgb(115, 161, 191)" stroke-width="1" d="M468.5,297.5V374.5L488.5,374.5"></path><path id="kity_path_45" fill="none" stroke="rgb(115, 161, 191)" stroke-width="1" d="M388.5,136.5V462.5L408.5,462.5"></path><path id="kity_path_47" fill="none" stroke="rgb(115, 161, 191)" stroke-width="1" d="M441.5,60.5v30h387.5V110.5"></path><path id="kity_path_49" fill="none" stroke="rgb(115, 161, 191)" stroke-width="1" d="M814.5,136.5V182.5L834.5,182.5"></path><path id="kity_path_51" fill="none" stroke="rgb(115, 161, 191)" stroke-width="1" d="M814.5,136.5V234.5L834.5,234.5"></path><path id="kity_path_53" fill="none" stroke="rgb(115, 161, 191)" stroke-width="1" d="M814.5,136.5V286.5L834.5,286.5"></path></g><g id="minder_node1"><path id="kity_path_133" fill="rgba(0, 0, 0, .25)" stroke="none" d="M429.5,18.5h48a27,27,0,0,1,27,27v0a27,27,0,0,1,-27,27h-48a27,27,0,0,1,-27,-27v0a27,27,0,0,1,27,-27z" display="none"></path><path id="node_outline1" fill="rgb(115, 161, 191)" stroke="rgb(115, 161, 191)" d="M404.5,20.5h73a5,5,0,0,1,5,5v30a5,5,0,0,1,-5,5h-73a5,5,0,0,1,-5,-5v-30a5,5,0,0,1,5,-5z" stroke-width="3"></path><g id="node_text1" fill="white"><text id="kity_text_22" text-rendering="inherit" font-size="16" dy=".8em" y="32.5" x="423.5">KVO</text></g></g><g id="kity_g_12"><path id="kity_path_13" fill="none" stroke="none" d="M423.5,40.5h0v0h0z"></path></g><g id="kity_g_14"><path id="kity_path_15" fill="none" stroke="none" d="M423.5,40.5h0v0h0z"></path><path id="kity_path_16" fill="none" stroke="none"></path></g><g id="minder_node2"><path id="kity_path_130" fill="rgba(0, 0, 0, .25)" stroke="none" d="M34.5,114.5h103a10,10,0,0,1,10,10v8a10,10,0,0,1,-10,10h-103a10,10,0,0,1,-10,-10v-8a10,10,0,0,1,10,-10z" display="none"></path><g id="node_expander2" style="cursor: pointer;"><path id="kity_path_98" fill="white" stroke="gray" d="M82.5,103.5A6,6,0,1,1,70.5,103.5A6,6,0,1,1,82.5,103.5"></path><path id="kity_path_99" fill="none" stroke="gray" d="M72,103.5L81,103.5"></path></g><path id="node_outline3" fill="rgb(238, 243, 246)" stroke="rgb(115, 161, 191)" d="M23.5,110.5h106a3,3,0,0,1,3,3v20a3,3,0,0,1,-3,3h-106a3,3,0,0,1,-3,-3v-20a3,3,0,0,1,3,-3z" stroke-width="1"></path><g id="node_text3" fill="black"><text id="kity_text_57" text-rendering="inherit" font-size="14" dy=".8em" y="116.5" x="40.5">什么是KVO</text></g></g><g id="minder_node3"><g id="node_expander1" style="cursor: pointer;" display="none"><path id="kity_path_95" fill="white" stroke="gray" d="M60.5,182.5A6,6,0,1,1,48.5,182.5A6,6,0,1,1,60.5,182.5"></path><path id="kity_path_96" fill="none" stroke="gray"></path></g><path id="node_outline2" fill="none" stroke="none" d="M65.5,171.5h258a5,5,0,0,1,5,5v12a5,5,0,0,1,-5,5h-258a5,5,0,0,1,-5,-5v-12a5,5,0,0,1,5,-5z"></path><g id="node_text2" fill="black"><text id="kity_text_55" text-rendering="inherit" font-size="12" dy=".8em" y="176.5" x="70.5">利用一个key来找到某个属性并监听其值得改变</text></g></g><g id="minder_node4"><path id="kity_path_131" fill="rgba(0, 0, 0, .25)" stroke="none" d="M382.5,114.5h52a10,10,0,0,1,10,10v8a10,10,0,0,1,-10,10h-52a10,10,0,0,1,-10,-10v-8a10,10,0,0,1,10,-10z" display="none"></path><g id="node_expander8" style="cursor: pointer;"><path id="kity_path_116" fill="white" stroke="gray" d="M408.5,103.5A6,6,0,1,1,396.5,103.5A6,6,0,1,1,408.5,103.5"></path><path id="kity_path_117" fill="none" stroke="gray" d="M398,103.5L407,103.5"></path></g><path id="node_outline9" fill="rgb(238, 243, 246)" stroke="rgb(115, 161, 191)" d="M371.5,110.5h62a3,3,0,0,1,3,3v20a3,3,0,0,1,-3,3h-62a3,3,0,0,1,-3,-3v-20a3,3,0,0,1,3,-3z" stroke-width="1"></path><g id="node_text9" fill="black"><text id="kity_text_73" text-rendering="inherit" font-size="14" dy=".8em" y="116.5" x="388.5">原理</text></g></g><g id="minder_node5"><g id="node_expander3" style="cursor: pointer;" display="none"><path id="kity_path_101" fill="white" stroke="gray" d="M408.5,182.5A6,6,0,1,1,396.5,182.5A6,6,0,1,1,408.5,182.5"></path><path id="kity_path_102" fill="none" stroke="gray"></path></g><path id="node_outline4" fill="none" stroke="none" d="M413.5,171.5h222a5,5,0,0,1,5,5v12a5,5,0,0,1,-5,5h-222a5,5,0,0,1,-5,-5v-12a5,5,0,0,1,5,-5z"></path><g id="node_text4" fill="black"><text id="kity_text_59" text-rendering="inherit" font-size="12" dy=".8em" y="176.5" x="418.5">通过runtime动态创建一个该类的派生类</text></g></g><g id="minder_node6"><g id="node_expander6" style="cursor: pointer;"><path id="kity_path_110" fill="white" stroke="gray" d="M408.5,234.5A6,6,0,1,1,396.5,234.5A6,6,0,1,1,408.5,234.5"></path><path id="kity_path_111" fill="none" stroke="gray" d="M398,234.5L407,234.5"></path></g><path id="node_outline7" fill="none" stroke="none" d="M413.5,223.5h186a5,5,0,0,1,5,5v12a5,5,0,0,1,-5,5h-186a5,5,0,0,1,-5,-5v-12a5,5,0,0,1,5,-5z"></path><g id="node_text7" fill="black"><text id="kity_text_69" text-rendering="inherit" font-size="12" dy=".8em" y="228.5" x="418.5">在派生类中重写属性的setter方法</text></g></g><g id="minder_node7"><g id="node_expander5" style="cursor: pointer;"><path id="kity_path_107" fill="white" stroke="gray" d="M448.5,286.5A6,6,0,1,1,436.5,286.5A6,6,0,1,1,448.5,286.5"></path><path id="kity_path_108" fill="none" stroke="gray" d="M438,286.5L447,286.5"></path></g><path id="node_outline6" fill="none" stroke="none" d="M453.5,275.5h242a5,5,0,0,1,5,5v12a5,5,0,0,1,-5,5h-242a5,5,0,0,1,-5,-5v-12a5,5,0,0,1,5,-5z"></path><g id="node_text6" fill="black"><text id="kity_text_67" text-rendering="inherit" font-size="12" dy=".8em" y="280.5" x="458.5">重写的setter方法会在调用原setter方法前后</text></g></g><g id="minder_node8"><g id="node_expander4" style="cursor: pointer;" display="none"><path id="kity_path_104" fill="white" stroke="gray" d="M488.5,374.5A6,6,0,1,1,476.5,374.5A6,6,0,1,1,488.5,374.5"></path><path id="kity_path_105" fill="none" stroke="gray"></path></g><path id="node_outline5" fill="none" stroke="none" d="M493.5,327.5h256a5,5,0,0,1,5,5v84a5,5,0,0,1,-5,5h-256a5,5,0,0,1,-5,-5v-84a5,5,0,0,1,5,-5z"></path><g id="node_text5" fill="black"><text id="kity_text_61" text-rendering="inherit" font-size="12" dy=".8em" y="332.5" x="498.5">-（void）setNow:(NSDate *aDate){</text><text id="kity_text_62" text-rendering="inherit" font-size="12" dy=".8em" y="350.5" x="498.5">	&#xa0; &#xa0; &#xa0;[self willChangeValueForKey:@"now"];</text><text id="kity_text_63" text-rendering="inherit" font-size="12" dy=".8em" y="368.5" x="498.5">	&#xa0; &#xa0; &#xa0;[super setValue:aDate forKey:@"noew"];</text><text id="kity_text_64" text-rendering="inherit" font-size="12" dy=".8em" y="386.5" x="498.5">	&#xa0; &#xa0; &#xa0;[self didChangeValueForKey:@"now"];</text><text id="kity_text_65" text-rendering="inherit" font-size="12" dy=".8em" y="404.5" x="498.5">}</text></g></g><g id="minder_node9"><g id="node_expander7" style="cursor: pointer;" display="none"><path id="kity_path_113" fill="white" stroke="gray" d="M408.5,462.5A6,6,0,1,1,396.5,462.5A6,6,0,1,1,408.5,462.5"></path><path id="kity_path_114" fill="none" stroke="gray"></path></g><path id="node_outline8" fill="none" stroke="none" d="M413.5,451.5h169a5,5,0,0,1,5,5v12a5,5,0,0,1,-5,5h-169a5,5,0,0,1,-5,-5v-12a5,5,0,0,1,5,-5z"></path><g id="node_text8" fill="black"><text id="kity_text_71" text-rendering="inherit" font-size="12" dy=".8em" y="456.5" x="418.5">将这个类的isa指针指向派生类</text></g></g><g id="minder_node10"><path id="kity_path_132" fill="rgba(0, 0, 0, .25)" stroke="none" d="M808.5,114.5h52a10,10,0,0,1,10,10v8a10,10,0,0,1,-10,10h-52a10,10,0,0,1,-10,-10v-8a10,10,0,0,1,10,-10z" display="none"></path><g id="node_expander12" style="cursor: pointer;"><path id="kity_path_128" fill="white" stroke="gray" d="M834.5,103.5A6,6,0,1,1,822.5,103.5A6,6,0,1,1,834.5,103.5"></path><path id="kity_path_129" fill="none" stroke="gray" d="M824,103.5L833,103.5"></path></g><path id="node_outline13" fill="rgb(238, 243, 246)" stroke="rgb(115, 161, 191)" d="M797.5,110.5h62a3,3,0,0,1,3,3v20a3,3,0,0,1,-3,3h-62a3,3,0,0,1,-3,-3v-20a3,3,0,0,1,3,-3z" stroke-width="1"></path><g id="node_text13" fill="black"><text id="kity_text_81" text-rendering="inherit" font-size="14" dy=".8em" y="116.5" x="814.5">用法</text></g></g><g id="minder_node11"><g id="node_expander9" style="cursor: pointer;" display="none"><path id="kity_path_119" fill="white" stroke="gray" d="M834.5,182.5A6,6,0,1,1,822.5,182.5A6,6,0,1,1,834.5,182.5"></path><path id="kity_path_120" fill="none" stroke="gray"></path></g><path id="node_outline10" fill="none" stroke="none" d="M839.5,171.5h70a5,5,0,0,1,5,5v12a5,5,0,0,1,-5,5h-70a5,5,0,0,1,-5,-5v-12a5,5,0,0,1,5,-5z"></path><g id="node_text10" fill="black"><text id="kity_text_75" text-rendering="inherit" font-size="12" dy=".8em" y="176.5" x="844.5">添加观察者</text></g></g><g id="minder_node12"><g id="node_expander10" style="cursor: pointer;" display="none"><path id="kity_path_122" fill="white" stroke="gray" d="M834.5,234.5A6,6,0,1,1,822.5,234.5A6,6,0,1,1,834.5,234.5"></path><path id="kity_path_123" fill="none" stroke="gray"></path></g><path id="node_outline11" fill="none" stroke="none" d="M839.5,223.5h397a5,5,0,0,1,5,5v12a5,5,0,0,1,-5,5h-397a5,5,0,0,1,-5,-5v-12a5,5,0,0,1,5,-5z"></path><g id="node_text11" fill="black"><text id="kity_text_77" text-rendering="inherit" font-size="12" dy=".8em" y="228.5" x="844.5">实现监听方法observerValueForKeyPath: ofObject: change: context:</text></g></g><g id="minder_node13"><g id="node_expander11" style="cursor: pointer;" display="none"><path id="kity_path_125" fill="white" stroke="gray" d="M834.5,286.5A6,6,0,1,1,822.5,286.5A6,6,0,1,1,834.5,286.5"></path><path id="kity_path_126" fill="none" stroke="gray"></path></g><path id="node_outline12" fill="none" stroke="none" d="M839.5,275.5h70a5,5,0,0,1,5,5v12a5,5,0,0,1,-5,5h-70a5,5,0,0,1,-5,-5v-12a5,5,0,0,1,5,-5z"></path><g id="node_text12" fill="black"><text id="kity_text_79" text-rendering="inherit" font-size="12" dy=".8em" y="280.5" x="844.5">移除观察者</text></g></g></g></g></svg>