<svg id="kity_svg_6" xmlns="http://www.w3.org/2000/svg" xmlns:xlink="http://www.w3.org/1999/xlink" version="1.1" width="2019" height="1225" style="background: rgb(251, 251, 251); visibility: visible;" viewBox="0 0 2019 1225"><defs id="kity_defs_7"><linearGradient id="kity_linearGradient_17" x1="0" y1="0" x2="0" y2="1"><stop id="kity_stop_18" offset="0" stop-color="rgb(255, 255, 255)"></stop><stop id="kity_stop_19" offset="1" stop-color="rgb(204, 204, 204)"></stop></linearGradient><marker id="kity_marker_2" orient="auto" refX="6" refY="0" viewBox="-7 -7 14 14" markerWidth="7" markerHeight="7" markerUnits="userSpaceOnUse"><path id="kity_path_3" fill="rgb(115, 161, 191)" stroke="none" d="M6,0A6,6,0,1,1,-6,0A6,6,0,1,1,6,0"></path></marker></defs><g id="kity_g_8"><g id="minder1" text-rendering="optimize-speed"><g id="minder_connect_group1"><path id="kity_path_31" fill="none" stroke="rgb(115, 161, 191)" stroke-width="1" d="M94.5,293.5A192,260,0,0,1,286.5,33.5"></path><path id="kity_path_33" fill="none" stroke="rgb(115, 161, 191)" stroke-width="1" d="M457.5,33.5C477.5,33.5,477.5,33.5,497.5,33.5"></path><path id="kity_path_35" fill="none" stroke="rgb(115, 161, 191)" stroke-width="1" d="M94.5,293.5A192,260,0,0,0,286.5,553.5"></path><path id="kity_path_37" fill="none" stroke="rgb(115, 161, 191)" stroke-width="1" d="M356.5,553.5C376.5,553.5,376.5,553.5,396.5,553.5"></path><path id="kity_path_39" fill="none" stroke="rgb(115, 161, 191)" stroke-width="1" d="M440.5,553.5C460.5,553.5,460.5,255.5,480.5,255.5"></path><path id="kity_path_41" fill="none" stroke="rgb(115, 161, 191)" stroke-width="1" d="M536.5,255.5C556.5,255.5,556.5,97.5,576.5,97.5"></path><path id="kity_path_43" fill="none" stroke="rgb(115, 161, 191)" stroke-width="1" d="M791.5,97.5C811.5,97.5,811.5,97.5,831.5,97.5"></path><path id="kity_path_45" fill="none" stroke="rgb(115, 161, 191)" stroke-width="1" d="M536.5,255.5C556.5,255.5,556.5,149.5,576.5,149.5"></path><path id="kity_path_47" fill="none" stroke="rgb(115, 161, 191)" stroke-width="1" d="M536.5,255.5C556.5,255.5,556.5,304.5,576.5,304.5"></path><path id="kity_path_49" fill="none" stroke="rgb(115, 161, 191)" stroke-width="1" d="M656.5,304.5C676.5,304.5,676.5,256.5,696.5,256.5"></path><path id="kity_path_51" fill="none" stroke="rgb(115, 161, 191)" stroke-width="1" d="M980.5,256.5C1000.5,256.5,1000.5,256.5,1020.5,256.5"></path><path id="kity_path_53" fill="none" stroke="rgb(115, 161, 191)" stroke-width="1" d="M656.5,304.5C676.5,304.5,676.5,362.5,696.5,362.5"></path><path id="kity_path_55" fill="none" stroke="rgb(115, 161, 191)" stroke-width="1" d="M536.5,255.5C556.5,255.5,556.5,413.5,576.5,413.5"></path><path id="kity_path_57" fill="none" stroke="rgb(115, 161, 191)" stroke-width="1" d="M440.5,553.5C460.5,553.5,460.5,851.5,480.5,851.5"></path><path id="kity_path_59" fill="none" stroke="rgb(115, 161, 191)" stroke-width="1" d="M659.5,851.5C679.5,851.5,679.5,851.5,699.5,851.5"></path><path id="kity_path_61" fill="none" stroke="rgb(115, 161, 191)" stroke-width="1" d="M827.5,851.5C847.5,851.5,847.5,622.5,867.5,622.5"></path><path id="kity_path_63" fill="none" stroke="rgb(115, 161, 191)" stroke-width="1" d="M1034.5,622.5C1054.5,622.5,1054.5,518.5,1074.5,518.5"></path><path id="kity_path_65" fill="none" stroke="rgb(115, 161, 191)" stroke-width="1" d="M1142.5,518.5C1162.5,518.5,1162.5,466.5,1182.5,466.5"></path><path id="kity_path_67" fill="none" stroke="rgb(115, 161, 191)" stroke-width="1" d="M1142.5,518.5C1162.5,518.5,1162.5,518.5,1182.5,518.5"></path><path id="kity_path_69" fill="none" stroke="rgb(115, 161, 191)" stroke-width="1" d="M1142.5,518.5C1162.5,518.5,1162.5,570.5,1182.5,570.5"></path><path id="kity_path_71" fill="none" stroke="rgb(115, 161, 191)" stroke-width="1" d="M1034.5,622.5C1054.5,622.5,1054.5,726.5,1074.5,726.5"></path><path id="kity_path_73" fill="none" stroke="rgb(115, 161, 191)" stroke-width="1" d="M1142.5,726.5C1162.5,726.5,1162.5,622.5,1182.5,622.5"></path><path id="kity_path_75" fill="none" stroke="rgb(115, 161, 191)" stroke-width="1" d="M1142.5,726.5C1162.5,726.5,1162.5,674.5,1182.5,674.5"></path><path id="kity_path_77" fill="none" stroke="rgb(115, 161, 191)" stroke-width="1" d="M1142.5,726.5C1162.5,726.5,1162.5,726.5,1182.5,726.5"></path><path id="kity_path_79" fill="none" stroke="rgb(115, 161, 191)" stroke-width="1" d="M1142.5,726.5C1162.5,726.5,1162.5,778.5,1182.5,778.5"></path><path id="kity_path_81" fill="none" stroke="rgb(115, 161, 191)" stroke-width="1" d="M1142.5,726.5C1162.5,726.5,1162.5,830.5,1182.5,830.5"></path><path id="kity_path_83" fill="none" stroke="rgb(115, 161, 191)" stroke-width="1" d="M827.5,851.5C847.5,851.5,847.5,1080.5,867.5,1080.5"></path><path id="kity_path_85" fill="none" stroke="rgb(115, 161, 191)" stroke-width="1" d="M1026.5,1080.5C1046.5,1080.5,1046.5,992.5,1066.5,992.5"></path><path id="kity_path_87" fill="none" stroke="rgb(115, 161, 191)" stroke-width="1" d="M1110.5,992.5C1130.5,992.5,1130.5,921.5,1150.5,921.5"></path><path id="kity_path_89" fill="none" stroke="rgb(115, 161, 191)" stroke-width="1" d="M1218.5,921.5C1238.5,921.5,1238.5,882.5,1258.5,882.5"></path><path id="kity_path_91" fill="none" stroke="rgb(115, 161, 191)" stroke-width="1" d="M1326.5,882.5C1346.5,882.5,1346.5,882.5,1366.5,882.5"></path><path id="kity_path_93" fill="none" stroke="rgb(115, 161, 191)" stroke-width="1" d="M1218.5,921.5C1238.5,921.5,1238.5,960.5,1258.5,960.5"></path><path id="kity_path_95" fill="none" stroke="rgb(115, 161, 191)" stroke-width="1" d="M1326.5,960.5C1346.5,960.5,1346.5,934.5,1366.5,934.5"></path><path id="kity_path_97" fill="none" stroke="rgb(115, 161, 191)" stroke-width="1" d="M1326.5,960.5C1346.5,960.5,1346.5,986.5,1366.5,986.5"></path><path id="kity_path_99" fill="none" stroke="rgb(115, 161, 191)" stroke-width="1" d="M1434.5,986.5C1454.5,986.5,1454.5,986.5,1474.5,986.5"></path><path id="kity_path_101" fill="none" stroke="rgb(115, 161, 191)" stroke-width="1" d="M1110.5,992.5C1130.5,992.5,1130.5,1064.5,1150.5,1064.5"></path><path id="kity_path_103" fill="none" stroke="rgb(115, 161, 191)" stroke-width="1" d="M1206.5,1064.5C1226.5,1064.5,1226.5,1064.5,1246.5,1064.5"></path><path id="kity_path_105" fill="none" stroke="rgb(115, 161, 191)" stroke-width="1" d="M1290.5,1064.5C1310.5,1064.5,1310.5,1038.5,1330.5,1038.5"></path><path id="kity_path_107" fill="none" stroke="rgb(115, 161, 191)" stroke-width="1" d="M1290.5,1064.5C1310.5,1064.5,1310.5,1090.5,1330.5,1090.5"></path><path id="kity_path_109" fill="none" stroke="rgb(115, 161, 191)" stroke-width="1" d="M1434.5,1090.5C1454.5,1090.5,1454.5,1090.5,1474.5,1090.5"></path><path id="kity_path_111" fill="none" stroke="rgb(115, 161, 191)" stroke-width="1" d="M1026.5,1080.5C1046.5,1080.5,1046.5,1168.5,1066.5,1168.5"></path><path id="kity_path_113" fill="none" stroke="rgb(115, 161, 191)" stroke-width="1" d="M1146.5,1168.5C1166.5,1168.5,1166.5,1142.5,1186.5,1142.5"></path><path id="kity_path_115" fill="none" stroke="rgb(115, 161, 191)" stroke-width="1" d="M1146.5,1168.5C1166.5,1168.5,1166.5,1194.5,1186.5,1194.5"></path></g><g id="minder_node1"><path id="node_outline1" fill="rgb(115, 161, 191)" stroke="rgb(115, 161, 191)" d="M25.5,273.5h138a5,5,0,0,1,5,5v30a5,5,0,0,1,-5,5h-138a5,5,0,0,1,-5,-5v-30a5,5,0,0,1,5,-5z" stroke-width="3"></path><g id="node_text1" fill="white"><text id="kity_text_22" text-rendering="inherit" font-size="16" dy=".8em" y="285.5" x="44.5">NSOperation</text></g></g><g id="kity_g_12"><path id="kity_path_13" fill="none" stroke="none" d="M44.5,293.5h0v0h0z"></path></g><g id="kity_g_14"><path id="kity_path_15" fill="none" stroke="none" d="M44.5,293.5h0v0h0z"></path><path id="kity_path_16" fill="none" stroke="none"></path></g><g id="minder_node2"><g id="node_expander2" style="cursor: pointer;"><path id="kity_path_257" fill="white" stroke="gray" d="M287.5,33.5A6,6,0,1,1,275.5,33.5A6,6,0,1,1,287.5,33.5"></path><path id="kity_path_258" fill="none" stroke="gray" d="M277,33.5L286,33.5"></path></g><path id="node_outline3" fill="rgb(238, 243, 246)" stroke="rgb(115, 161, 191)" d="M291.5,20.5h163a3,3,0,0,1,3,3v20a3,3,0,0,1,-3,3h-163a3,3,0,0,1,-3,-3v-20a3,3,0,0,1,3,-3z" stroke-width="1"></path><g id="node_text3" fill="black"><text id="kity_text_119" text-rendering="inherit" font-size="14" dy=".8em" y="26.5" x="308.5">什么是NSOperation</text></g></g><g id="minder_node3"><g id="node_expander1" style="cursor: pointer;" display="none"><path id="kity_path_254" fill="white" stroke="gray" d="M497.5,33.5A6,6,0,1,1,485.5,33.5A6,6,0,1,1,497.5,33.5"></path><path id="kity_path_255" fill="none" stroke="gray"></path></g><path id="node_outline2" fill="none" stroke="none" d="M502.5,22.5h359a5,5,0,0,1,5,5v12a5,5,0,0,1,-5,5h-359a5,5,0,0,1,-5,-5v-12a5,5,0,0,1,5,-5z"></path><g id="node_text2" fill="black"><text id="kity_text_117" text-rendering="inherit" font-size="12" dy=".8em" y="27.5" x="507.5">是对GCD中的block进行的封装，它也表示一个要被执行的任务。</text></g></g><g id="minder_node4"><g id="node_expander43" style="cursor: pointer;"><path id="kity_path_380" fill="white" stroke="gray" d="M287.5,553.5A6,6,0,1,1,275.5,553.5A6,6,0,1,1,287.5,553.5"></path><path id="kity_path_381" fill="none" stroke="gray" d="M277,553.5L286,553.5"></path></g><path id="node_outline44" fill="rgb(238, 243, 246)" stroke="rgb(115, 161, 191)" d="M291.5,540.5h62a3,3,0,0,1,3,3v20a3,3,0,0,1,-3,3h-62a3,3,0,0,1,-3,-3v-20a3,3,0,0,1,3,-3z" stroke-width="1"></path><g id="node_text44" fill="black"><text id="kity_text_209" text-rendering="inherit" font-size="14" dy=".8em" y="546.5" x="308.5">概念</text></g></g><g id="minder_node5"><g id="node_expander42" style="cursor: pointer;"><path id="kity_path_377" fill="white" stroke="gray" d="M396.5,553.5A6,6,0,1,1,384.5,553.5A6,6,0,1,1,396.5,553.5"></path><path id="kity_path_378" fill="none" stroke="gray" d="M386,553.5L395,553.5"></path></g><path id="node_outline43" fill="none" stroke="none" d="M401.5,542.5h34a5,5,0,0,1,5,5v12a5,5,0,0,1,-5,5h-34a5,5,0,0,1,-5,-5v-12a5,5,0,0,1,5,-5z"></path><g id="node_text43" fill="black"><text id="kity_text_207" text-rendering="inherit" font-size="12" dy=".8em" y="547.5" x="406.5">功能</text></g></g><g id="minder_node6"><g id="node_expander11" style="cursor: pointer;"><path id="kity_path_284" fill="white" stroke="gray" d="M480.5,255.5A6,6,0,1,1,468.5,255.5A6,6,0,1,1,480.5,255.5"></path><path id="kity_path_285" fill="none" stroke="gray" d="M470,255.5L479,255.5"></path></g><path id="node_outline12" fill="none" stroke="none" d="M485.5,244.5h46a5,5,0,0,1,5,5v12a5,5,0,0,1,-5,5h-46a5,5,0,0,1,-5,-5v-12a5,5,0,0,1,5,-5z"></path><g id="node_text12" fill="black"><text id="kity_text_144" text-rendering="inherit" font-size="12" dy=".8em" y="249.5" x="490.5">新特性</text></g></g><g id="minder_node7"><g id="node_expander4" style="cursor: pointer;"><path id="kity_path_263" fill="white" stroke="gray" d="M576.5,97.5A6,6,0,1,1,564.5,97.5A6,6,0,1,1,576.5,97.5"></path><path id="kity_path_264" fill="none" stroke="gray" d="M566,97.5L575,97.5"></path></g><path id="node_outline5" fill="none" stroke="none" d="M581.5,86.5h205a5,5,0,0,1,5,5v12a5,5,0,0,1,-5,5h-205a5,5,0,0,1,-5,-5v-12a5,5,0,0,1,5,-5z"></path><g id="node_text5" fill="black"><text id="kity_text_123" text-rendering="inherit" font-size="12" dy=".8em" y="91.5" x="586.5">NSOperation表示的任务可以被取消</text></g></g><g id="minder_node8"><g id="node_expander3" style="cursor: pointer;" display="none"><path id="kity_path_260" fill="white" stroke="gray" d="M831.5,97.5A6,6,0,1,1,819.5,97.5A6,6,0,1,1,831.5,97.5"></path><path id="kity_path_261" fill="none" stroke="gray"></path></g><path id="node_outline4" fill="none" stroke="none" d="M836.5,86.5h507a5,5,0,0,1,5,5v12a5,5,0,0,1,-5,5h-507a5,5,0,0,1,-5,-5v-12a5,5,0,0,1,5,-5z"></path><g id="node_text4" fill="black"><text id="kity_text_121" text-rendering="inherit" font-size="12" dy=".8em" y="91.5" x="841.5">它有三种状态isExecuted、isFinished和isCancelled以方便我们通过KVC对它的状态进行监听</text></g></g><g id="minder_node9"><g id="node_expander5" style="cursor: pointer;" display="none"><path id="kity_path_266" fill="white" stroke="gray" d="M576.5,149.5A6,6,0,1,1,564.5,149.5A6,6,0,1,1,576.5,149.5"></path><path id="kity_path_267" fill="none" stroke="gray"></path></g><path id="node_outline6" fill="none" stroke="none" d="M581.5,138.5h58a5,5,0,0,1,5,5v12a5,5,0,0,1,-5,5h-58a5,5,0,0,1,-5,-5v-12a5,5,0,0,1,5,-5z"></path><g id="node_text6" fill="black"><text id="kity_text_125" text-rendering="inherit" font-size="12" dy=".8em" y="143.5" x="586.5">设置依赖</text></g></g><g id="minder_node10"><g id="node_expander9" style="cursor: pointer;"><path id="kity_path_278" fill="white" stroke="gray" d="M576.5,304.5A6,6,0,1,1,564.5,304.5A6,6,0,1,1,576.5,304.5"></path><path id="kity_path_279" fill="none" stroke="gray" d="M566,304.5L575,304.5"></path></g><path id="node_outline10" fill="none" stroke="none" d="M581.5,293.5h70a5,5,0,0,1,5,5v12a5,5,0,0,1,-5,5h-70a5,5,0,0,1,-5,-5v-12a5,5,0,0,1,5,-5z"></path><g id="node_text10" fill="black"><text id="kity_text_140" text-rendering="inherit" font-size="12" dy=".8em" y="298.5" x="586.5">设置优先级</text></g></g><g id="minder_node11"><g id="node_expander7" style="cursor: pointer;"><path id="kity_path_272" fill="white" stroke="gray" d="M696.5,256.5A6,6,0,1,1,684.5,256.5A6,6,0,1,1,696.5,256.5"></path><path id="kity_path_273" fill="none" stroke="gray" d="M686,256.5L695,256.5"></path></g><path id="node_outline8" fill="none" stroke="none" d="M701.5,236.5h274a5,5,0,0,1,5,5v30a5,5,0,0,1,-5,5h-274a5,5,0,0,1,-5,-5v-30a5,5,0,0,1,5,-5z"></path><g id="node_text8" fill="black"><text id="kity_text_135" text-rendering="inherit" font-size="12" dy=".8em" y="241.5" x="706.5">NSOperation有一个NSOperationQueuePriority</text><text id="kity_text_136" text-rendering="inherit" font-size="12" dy=".8em" y="259.5" x="706.5"> 枚举类型的属性 queuePriority</text></g></g><g id="minder_node12"><g id="node_expander6" style="cursor: pointer;" display="none"><path id="kity_path_269" fill="white" stroke="gray" d="M1020.5,256.5A6,6,0,1,1,1008.5,256.5A6,6,0,1,1,1020.5,256.5"></path><path id="kity_path_270" fill="none" stroke="gray"></path></g><path id="node_outline7" fill="none" stroke="none" d="M1025.5,191.5h269a5,5,0,0,1,5,5v120a5,5,0,0,1,-5,5h-269a5,5,0,0,1,-5,-5v-120a5,5,0,0,1,5,-5z"></path><g id="node_text7" fill="black"><text id="kity_text_127" text-rendering="inherit" font-size="12" dy=".8em" y="196.5" x="1030.5">public enum NSOperationQueuePriority : Int {  </text><text id="kity_text_128" text-rendering="inherit" font-size="12" dy=".8em" y="214.5" x="1030.5">	&#xa0; &#xa0; &#xa0; case VeryLow</text><text id="kity_text_129" text-rendering="inherit" font-size="12" dy=".8em" y="232.5" x="1030.5">	&#xa0; &#xa0; &#xa0; &#xa0;case Low</text><text id="kity_text_130" text-rendering="inherit" font-size="12" dy=".8em" y="250.5" x="1030.5">	&#xa0; &#xa0; &#xa0; &#xa0; case Normal </text><text id="kity_text_131" text-rendering="inherit" font-size="12" dy=".8em" y="268.5" x="1030.5">	&#xa0; &#xa0; &#xa0; &#xa0; case High </text><text id="kity_text_132" text-rendering="inherit" font-size="12" dy=".8em" y="286.5" x="1030.5">	&#xa0; &#xa0; &#xa0; &#xa0; case VeryHigh</text><text id="kity_text_133" text-rendering="inherit" font-size="12" dy=".8em" y="304.5" x="1030.5">}</text></g></g><g id="minder_node13"><g id="node_expander8" style="cursor: pointer;" display="none"><path id="kity_path_275" fill="white" stroke="gray" d="M696.5,362.5A6,6,0,1,1,684.5,362.5A6,6,0,1,1,696.5,362.5"></path><path id="kity_path_276" fill="none" stroke="gray"></path></g><path id="node_outline9" fill="none" stroke="none" d="M701.5,351.5h353a5,5,0,0,1,5,5v12a5,5,0,0,1,-5,5h-353a5,5,0,0,1,-5,-5v-12a5,5,0,0,1,5,-5z"></path><g id="node_text9" fill="black"><text id="kity_text_138" text-rendering="inherit" font-size="12" dy=".8em" y="356.5" x="706.5">NSOperationQueue也不能完全保证优先级高的任务一定先执行</text></g></g><g id="minder_node14"><g id="node_expander10" style="cursor: pointer;" display="none"><path id="kity_path_281" fill="white" stroke="gray" d="M576.5,413.5A6,6,0,1,1,564.5,413.5A6,6,0,1,1,576.5,413.5"></path><path id="kity_path_282" fill="none" stroke="gray"></path></g><path id="node_outline11" fill="none" stroke="none" d="M581.5,402.5h70a5,5,0,0,1,5,5v12a5,5,0,0,1,-5,5h-70a5,5,0,0,1,-5,-5v-12a5,5,0,0,1,5,-5z"></path><g id="node_text11" fill="black"><text id="kity_text_142" text-rendering="inherit" font-size="12" dy=".8em" y="407.5" x="586.5">暂停与恢复</text></g></g><g id="minder_node15"><g id="node_expander41" style="cursor: pointer;"><path id="kity_path_374" fill="white" stroke="gray" d="M480.5,851.5A6,6,0,1,1,468.5,851.5A6,6,0,1,1,480.5,851.5"></path><path id="kity_path_375" fill="none" stroke="gray" d="M470,851.5L479,851.5"></path></g><path id="node_outline42" fill="none" stroke="none" d="M485.5,840.5h169a5,5,0,0,1,5,5v12a5,5,0,0,1,-5,5h-169a5,5,0,0,1,-5,-5v-12a5,5,0,0,1,5,-5z"></path><g id="node_text42" fill="black"><text id="kity_text_205" text-rendering="inherit" font-size="12" dy=".8em" y="845.5" x="490.5">NSOpertaion默认是同步执行</text></g></g><g id="minder_node16"><g id="node_expander40" style="cursor: pointer;"><path id="kity_path_371" fill="white" stroke="gray" d="M699.5,851.5A6,6,0,1,1,687.5,851.5A6,6,0,1,1,699.5,851.5"></path><path id="kity_path_372" fill="none" stroke="gray" d="M689,851.5L698,851.5"></path></g><path id="node_outline41" fill="none" stroke="none" d="M704.5,831.5h118a5,5,0,0,1,5,5v30a5,5,0,0,1,-5,5h-118a5,5,0,0,1,-5,-5v-30a5,5,0,0,1,5,-5z"></path><g id="node_text41" fill="black"><text id="kity_text_202" text-rendering="inherit" font-size="12" dy=".8em" y="836.5" x="709.5">如何异步执行</text><text id="kity_text_203" text-rendering="inherit" font-size="12" dy=".8em" y="854.5" x="709.5">异步执行的两种方式</text></g></g><g id="minder_node17"><g id="node_expander22" style="cursor: pointer;"><path id="kity_path_317" fill="white" stroke="gray" d="M867.5,622.5A6,6,0,1,1,855.5,622.5A6,6,0,1,1,867.5,622.5"></path><path id="kity_path_318" fill="none" stroke="gray" d="M857,622.5L866,622.5"></path></g><path id="node_outline23" fill="none" stroke="none" d="M872.5,611.5h157a5,5,0,0,1,5,5v12a5,5,0,0,1,-5,5h-157a5,5,0,0,1,-5,-5v-12a5,5,0,0,1,5,-5z"></path><g id="node_text23" fill="black"><text id="kity_text_166" text-rendering="inherit" font-size="12" dy=".8em" y="616.5" x="877.5">自定义NSOperation的子类</text></g></g><g id="minder_node18"><g id="node_expander15" style="cursor: pointer;"><path id="kity_path_296" fill="white" stroke="gray" d="M1074.5,518.5A6,6,0,1,1,1062.5,518.5A6,6,0,1,1,1074.5,518.5"></path><path id="kity_path_297" fill="none" stroke="gray" d="M1064,518.5L1073,518.5"></path></g><path id="node_outline16" fill="none" stroke="none" d="M1079.5,507.5h58a5,5,0,0,1,5,5v12a5,5,0,0,1,-5,5h-58a5,5,0,0,1,-5,-5v-12a5,5,0,0,1,5,-5z"></path><g id="node_text16" fill="black"><text id="kity_text_152" text-rendering="inherit" font-size="12" dy=".8em" y="512.5" x="1084.5">串行队列</text></g></g><g id="minder_node19"><g id="node_expander12" style="cursor: pointer;" display="none"><path id="kity_path_287" fill="white" stroke="gray" d="M1182.5,466.5A6,6,0,1,1,1170.5,466.5A6,6,0,1,1,1182.5,466.5"></path><path id="kity_path_288" fill="none" stroke="gray"></path></g><path id="node_outline13" fill="none" stroke="none" d="M1187.5,455.5h121a5,5,0,0,1,5,5v12a5,5,0,0,1,-5,5h-121a5,5,0,0,1,-5,-5v-12a5,5,0,0,1,5,-5z"></path><g id="node_text13" fill="black"><text id="kity_text_146" text-rendering="inherit" font-size="12" dy=".8em" y="460.5" x="1192.5">继承NSOperation类</text></g></g><g id="minder_node20"><g id="node_expander13" style="cursor: pointer;" display="none"><path id="kity_path_290" fill="white" stroke="gray" d="M1182.5,518.5A6,6,0,1,1,1170.5,518.5A6,6,0,1,1,1182.5,518.5"></path><path id="kity_path_291" fill="none" stroke="gray"></path></g><path id="node_outline14" fill="none" stroke="none" d="M1187.5,507.5h296a5,5,0,0,1,5,5v12a5,5,0,0,1,-5,5h-296a5,5,0,0,1,-5,-5v-12a5,5,0,0,1,5,-5z"></path><g id="node_text14" fill="black"><text id="kity_text_148" text-rendering="inherit" font-size="12" dy=".8em" y="512.5" x="1192.5">重写main方法，将需要执行的操作害怕在main方法中</text></g></g><g id="minder_node21"><g id="node_expander14" style="cursor: pointer;" display="none"><path id="kity_path_293" fill="white" stroke="gray" d="M1182.5,570.5A6,6,0,1,1,1170.5,570.5A6,6,0,1,1,1182.5,570.5"></path><path id="kity_path_294" fill="none" stroke="gray"></path></g><path id="node_outline15" fill="none" stroke="none" d="M1187.5,559.5h110a5,5,0,0,1,5,5v12a5,5,0,0,1,-5,5h-110a5,5,0,0,1,-5,-5v-12a5,5,0,0,1,5,-5z"></path><g id="node_text15" fill="black"><text id="kity_text_150" text-rendering="inherit" font-size="12" dy=".8em" y="564.5" x="1192.5">通过 start方法调用</text></g></g><g id="minder_node22"><g id="node_expander21" style="cursor: pointer;"><path id="kity_path_314" fill="white" stroke="gray" d="M1074.5,726.5A6,6,0,1,1,1062.5,726.5A6,6,0,1,1,1074.5,726.5"></path><path id="kity_path_315" fill="none" stroke="gray" d="M1064,726.5L1073,726.5"></path></g><path id="node_outline22" fill="none" stroke="none" d="M1079.5,715.5h58a5,5,0,0,1,5,5v12a5,5,0,0,1,-5,5h-58a5,5,0,0,1,-5,-5v-12a5,5,0,0,1,5,-5z"></path><g id="node_text22" fill="black"><text id="kity_text_164" text-rendering="inherit" font-size="12" dy=".8em" y="720.5" x="1084.5">并行队列</text></g></g><g id="minder_node23"><g id="node_expander16" style="cursor: pointer;" display="none"><path id="kity_path_299" fill="white" stroke="gray" d="M1182.5,622.5A6,6,0,1,1,1170.5,622.5A6,6,0,1,1,1182.5,622.5"></path><path id="kity_path_300" fill="none" stroke="gray"></path></g><path id="node_outline17" fill="none" stroke="none" d="M1187.5,611.5h331a5,5,0,0,1,5,5v12a5,5,0,0,1,-5,5h-331a5,5,0,0,1,-5,-5v-12a5,5,0,0,1,5,-5z"></path><g id="node_text17" fill="black"><text id="kity_text_154" text-rendering="inherit" font-size="12" dy=".8em" y="616.5" x="1192.5">重写start,main,isExcecting,isFinished,isAsynchronous方法</text></g></g><g id="minder_node24"><g id="node_expander17" style="cursor: pointer;" display="none"><path id="kity_path_302" fill="white" stroke="gray" d="M1182.5,674.5A6,6,0,1,1,1170.5,674.5A6,6,0,1,1,1182.5,674.5"></path><path id="kity_path_303" fill="none" stroke="gray"></path></g><path id="node_outline18" fill="none" stroke="none" d="M1187.5,663.5h553a5,5,0,0,1,5,5v12a5,5,0,0,1,-5,5h-553a5,5,0,0,1,-5,-5v-12a5,5,0,0,1,5,-5z"></path><g id="node_text18" fill="black"><text id="kity_text_156" text-rendering="inherit" font-size="12" dy=".8em" y="668.5" x="1192.5">在 operation 的 main 方法里面，必须提供 autorelease pool,因为你的 operation 完成后需要销毁。</text></g></g><g id="minder_node25"><g id="node_expander18" style="cursor: pointer;" display="none"><path id="kity_path_305" fill="white" stroke="gray" d="M1182.5,726.5A6,6,0,1,1,1170.5,726.5A6,6,0,1,1,1182.5,726.5"></path><path id="kity_path_306" fill="none" stroke="gray"></path></g><path id="node_outline19" fill="none" stroke="none" d="M1187.5,715.5h532a5,5,0,0,1,5,5v12a5,5,0,0,1,-5,5h-532a5,5,0,0,1,-5,-5v-12a5,5,0,0,1,5,-5z"></path><g id="node_text19" fill="black"><text id="kity_text_158" text-rendering="inherit" font-size="12" dy=".8em" y="720.5" x="1192.5">一旦你的 operation 开始了，必须通过 KVO，告诉所有的监听者，现在该operation的执行状态。</text></g></g><g id="minder_node26"><g id="node_expander19" style="cursor: pointer;" display="none"><path id="kity_path_308" fill="white" stroke="gray" d="M1182.5,778.5A6,6,0,1,1,1170.5,778.5A6,6,0,1,1,1182.5,778.5"></path><path id="kity_path_309" fill="none" stroke="gray"></path></g><path id="node_outline20" fill="none" stroke="none" d="M1187.5,767.5h807a5,5,0,0,1,5,5v12a5,5,0,0,1,-5,5h-807a5,5,0,0,1,-5,-5v-12a5,5,0,0,1,5,-5z"></path><g id="node_text20" fill="black"><text id="kity_text_160" text-rendering="inherit" font-size="12" dy=".8em" y="772.5" x="1192.5">调用时，如果需要并发执行 Operation，必须调用performOperation:方法，当然，也可以改为自定义其他方法或者直接在start方法添加多线程调用。</text></g></g><g id="minder_node27"><g id="node_expander20" style="cursor: pointer;" display="none"><path id="kity_path_311" fill="white" stroke="gray" d="M1182.5,830.5A6,6,0,1,1,1170.5,830.5A6,6,0,1,1,1182.5,830.5"></path><path id="kity_path_312" fill="none" stroke="gray"></path></g><path id="node_outline21" fill="none" stroke="none" d="M1187.5,819.5h424a5,5,0,0,1,5,5v12a5,5,0,0,1,-5,5h-424a5,5,0,0,1,-5,-5v-12a5,5,0,0,1,5,-5z"></path><g id="node_text21" fill="black"><text id="kity_text_162" text-rendering="inherit" font-size="12" dy=".8em" y="824.5" x="1192.5">对于自定义的 Operation 类，如果不需要并发执行，可以直接调用start方法。</text></g></g><g id="minder_node28"><g id="node_expander39" style="cursor: pointer;"><path id="kity_path_368" fill="white" stroke="gray" d="M867.5,1080.5A6,6,0,1,1,855.5,1080.5A6,6,0,1,1,867.5,1080.5"></path><path id="kity_path_369" fill="none" stroke="gray" d="M857,1080.5L866,1080.5"></path></g><path id="node_outline40" fill="none" stroke="none" d="M872.5,1069.5h149a5,5,0,0,1,5,5v12a5,5,0,0,1,-5,5h-149a5,5,0,0,1,-5,-5v-12a5,5,0,0,1,5,-5z"></path><g id="node_text40" fill="black"><text id="kity_text_200" text-rendering="inherit" font-size="12" dy=".8em" y="1074.5" x="877.5">使用NSOperationQueue</text></g></g><g id="minder_node29"><g id="node_expander35" style="cursor: pointer;"><path id="kity_path_356" fill="white" stroke="gray" d="M1066.5,992.5A6,6,0,1,1,1054.5,992.5A6,6,0,1,1,1066.5,992.5"></path><path id="kity_path_357" fill="none" stroke="gray" d="M1056,992.5L1065,992.5"></path></g><path id="node_outline36" fill="none" stroke="none" d="M1071.5,981.5h34a5,5,0,0,1,5,5v12a5,5,0,0,1,-5,5h-34a5,5,0,0,1,-5,-5v-12a5,5,0,0,1,5,-5z"></path><g id="node_text36" fill="black"><text id="kity_text_192" text-rendering="inherit" font-size="12" dy=".8em" y="986.5" x="1076.5">队列</text></g></g><g id="minder_node30"><g id="node_expander29" style="cursor: pointer;"><path id="kity_path_338" fill="white" stroke="gray" d="M1150.5,921.5A6,6,0,1,1,1138.5,921.5A6,6,0,1,1,1150.5,921.5"></path><path id="kity_path_339" fill="none" stroke="gray" d="M1140,921.5L1149,921.5"></path></g><path id="node_outline30" fill="none" stroke="none" d="M1155.5,910.5h58a5,5,0,0,1,5,5v12a5,5,0,0,1,-5,5h-58a5,5,0,0,1,-5,-5v-12a5,5,0,0,1,5,-5z"></path><g id="node_text30" fill="black"><text id="kity_text_180" text-rendering="inherit" font-size="12" dy=".8em" y="915.5" x="1160.5">非主队列</text></g></g><g id="minder_node31"><g id="node_expander24" style="cursor: pointer;"><path id="kity_path_323" fill="white" stroke="gray" d="M1258.5,882.5A6,6,0,1,1,1246.5,882.5A6,6,0,1,1,1258.5,882.5"></path><path id="kity_path_324" fill="none" stroke="gray" d="M1248,882.5L1257,882.5"></path></g><path id="node_outline25" fill="none" stroke="none" d="M1263.5,871.5h58a5,5,0,0,1,5,5v12a5,5,0,0,1,-5,5h-58a5,5,0,0,1,-5,-5v-12a5,5,0,0,1,5,-5z"></path><g id="node_text25" fill="black"><text id="kity_text_170" text-rendering="inherit" font-size="12" dy=".8em" y="876.5" x="1268.5">串行队列</text></g></g><g id="minder_node32"><g id="node_expander23" style="cursor: pointer;" display="none"><path id="kity_path_320" fill="white" stroke="gray" d="M1366.5,882.5A6,6,0,1,1,1354.5,882.5A6,6,0,1,1,1366.5,882.5"></path><path id="kity_path_321" fill="none" stroke="gray"></path></g><path id="node_outline24" fill="none" stroke="none" d="M1371.5,871.5h276a5,5,0,0,1,5,5v12a5,5,0,0,1,-5,5h-276a5,5,0,0,1,-5,-5v-12a5,5,0,0,1,5,-5z"></path><g id="node_text24" fill="black"><text id="kity_text_168" text-rendering="inherit" font-size="12" dy=".8em" y="876.5" x="1376.5">将属性maxConcurrentOperationCount设置为1</text></g></g><g id="minder_node33"><g id="node_expander28" style="cursor: pointer;"><path id="kity_path_335" fill="white" stroke="gray" d="M1258.5,960.5A6,6,0,1,1,1246.5,960.5A6,6,0,1,1,1258.5,960.5"></path><path id="kity_path_336" fill="none" stroke="gray" d="M1248,960.5L1257,960.5"></path></g><path id="node_outline29" fill="none" stroke="none" d="M1263.5,949.5h58a5,5,0,0,1,5,5v12a5,5,0,0,1,-5,5h-58a5,5,0,0,1,-5,-5v-12a5,5,0,0,1,5,-5z"></path><g id="node_text29" fill="black"><text id="kity_text_178" text-rendering="inherit" font-size="12" dy=".8em" y="954.5" x="1268.5">并发队列</text></g></g><g id="minder_node34"><g id="node_expander25" style="cursor: pointer;" display="none"><path id="kity_path_326" fill="white" stroke="gray" d="M1366.5,934.5A6,6,0,1,1,1354.5,934.5A6,6,0,1,1,1366.5,934.5"></path><path id="kity_path_327" fill="none" stroke="gray"></path></g><path id="node_outline26" fill="none" stroke="none" d="M1371.5,923.5h264a5,5,0,0,1,5,5v12a5,5,0,0,1,-5,5h-264a5,5,0,0,1,-5,-5v-12a5,5,0,0,1,5,-5z"></path><g id="node_text26" fill="black"><text id="kity_text_172" text-rendering="inherit" font-size="12" dy=".8em" y="928.5" x="1376.5">将属性maxConcurrentOperationCount大于1</text></g></g><g id="minder_node35"><g id="node_expander27" style="cursor: pointer;"><path id="kity_path_332" fill="white" stroke="gray" d="M1366.5,986.5A6,6,0,1,1,1354.5,986.5A6,6,0,1,1,1366.5,986.5"></path><path id="kity_path_333" fill="none" stroke="gray" d="M1356,986.5L1365,986.5"></path></g><path id="node_outline28" fill="none" stroke="none" d="M1371.5,975.5h58a5,5,0,0,1,5,5v12a5,5,0,0,1,-5,5h-58a5,5,0,0,1,-5,-5v-12a5,5,0,0,1,5,-5z"></path><g id="node_text28" fill="black"><text id="kity_text_176" text-rendering="inherit" font-size="12" dy=".8em" y="980.5" x="1376.5">并发执行</text></g></g><g id="minder_node36"><g id="node_expander26" style="cursor: pointer;" display="none"><path id="kity_path_329" fill="white" stroke="gray" d="M1474.5,986.5A6,6,0,1,1,1462.5,986.5A6,6,0,1,1,1474.5,986.5"></path><path id="kity_path_330" fill="none" stroke="gray"></path></g><path id="node_outline27" fill="none" stroke="none" d="M1479.5,975.5h441a5,5,0,0,1,5,5v12a5,5,0,0,1,-5,5h-441a5,5,0,0,1,-5,-5v-12a5,5,0,0,1,5,-5z"></path><g id="node_text27" fill="black"><text id="kity_text_174" text-rendering="inherit" font-size="12" dy=".8em" y="980.5" x="1484.5">因为NSOperationQueue会为每一个NSOperation创建线程并调用它的start方法</text></g></g><g id="minder_node37"><g id="node_expander34" style="cursor: pointer;"><path id="kity_path_353" fill="white" stroke="gray" d="M1150.5,1064.5A6,6,0,1,1,1138.5,1064.5A6,6,0,1,1,1150.5,1064.5"></path><path id="kity_path_354" fill="none" stroke="gray" d="M1140,1064.5L1149,1064.5"></path></g><path id="node_outline35" fill="none" stroke="none" d="M1155.5,1053.5h46a5,5,0,0,1,5,5v12a5,5,0,0,1,-5,5h-46a5,5,0,0,1,-5,-5v-12a5,5,0,0,1,5,-5z"></path><g id="node_text35" fill="black"><text id="kity_text_190" text-rendering="inherit" font-size="12" dy=".8em" y="1058.5" x="1160.5">主队列</text></g></g><g id="minder_node38"><g id="node_expander33" style="cursor: pointer;"><path id="kity_path_350" fill="white" stroke="gray" d="M1246.5,1064.5A6,6,0,1,1,1234.5,1064.5A6,6,0,1,1,1246.5,1064.5"></path><path id="kity_path_351" fill="none" stroke="gray" d="M1236,1064.5L1245,1064.5"></path></g><path id="node_outline34" fill="none" stroke="none" d="M1251.5,1053.5h34a5,5,0,0,1,5,5v12a5,5,0,0,1,-5,5h-34a5,5,0,0,1,-5,-5v-12a5,5,0,0,1,5,-5z"></path><g id="node_text34" fill="black"><text id="kity_text_188" text-rendering="inherit" font-size="12" dy=".8em" y="1058.5" x="1256.5">概论</text></g></g><g id="minder_node39"><g id="node_expander30" style="cursor: pointer;" display="none"><path id="kity_path_341" fill="white" stroke="gray" d="M1330.5,1038.5A6,6,0,1,1,1318.5,1038.5A6,6,0,1,1,1330.5,1038.5"></path><path id="kity_path_342" fill="none" stroke="gray"></path></g><path id="node_outline31" fill="none" stroke="none" d="M1335.5,1027.5h316a5,5,0,0,1,5,5v12a5,5,0,0,1,-5,5h-316a5,5,0,0,1,-5,-5v-12a5,5,0,0,1,5,-5z"></path><g id="node_text31" fill="black"><text id="kity_text_182" text-rendering="inherit" font-size="12" dy=".8em" y="1032.5" x="1340.5">主队列是串行队列,所有NSOperation都会在主线程中执行</text></g></g><g id="minder_node40"><g id="node_expander32" style="cursor: pointer;"><path id="kity_path_347" fill="white" stroke="gray" d="M1330.5,1090.5A6,6,0,1,1,1318.5,1090.5A6,6,0,1,1,1330.5,1090.5"></path><path id="kity_path_348" fill="none" stroke="gray" d="M1320,1090.5L1329,1090.5"></path></g><path id="node_outline33" fill="none" stroke="none" d="M1335.5,1079.5h94a5,5,0,0,1,5,5v12a5,5,0,0,1,-5,5h-94a5,5,0,0,1,-5,-5v-12a5,5,0,0,1,5,-5z"></path><g id="node_text33" fill="black"><text id="kity_text_186" text-rendering="inherit" font-size="12" dy=".8em" y="1084.5" x="1340.5">如何获取主队列</text></g></g><g id="minder_node41"><g id="node_expander31" style="cursor: pointer;" display="none"><path id="kity_path_344" fill="white" stroke="gray" d="M1474.5,1090.5A6,6,0,1,1,1462.5,1090.5A6,6,0,1,1,1474.5,1090.5"></path><path id="kity_path_345" fill="none" stroke="gray"></path></g><path id="node_outline32" fill="none" stroke="none" d="M1479.5,1079.5h247a5,5,0,0,1,5,5v12a5,5,0,0,1,-5,5h-247a5,5,0,0,1,-5,-5v-12a5,5,0,0,1,5,-5z"></path><g id="node_text32" fill="black"><text id="kity_text_184" text-rendering="inherit" font-size="12" dy=".8em" y="1084.5" x="1484.5">通过NSOperationQueue.mainQueue取得</text></g></g><g id="minder_node42"><g id="node_expander38" style="cursor: pointer;"><path id="kity_path_365" fill="white" stroke="gray" d="M1066.5,1168.5A6,6,0,1,1,1054.5,1168.5A6,6,0,1,1,1066.5,1168.5"></path><path id="kity_path_366" fill="none" stroke="gray" d="M1056,1168.5L1065,1168.5"></path></g><path id="node_outline39" fill="none" stroke="none" d="M1071.5,1157.5h70a5,5,0,0,1,5,5v12a5,5,0,0,1,-5,5h-70a5,5,0,0,1,-5,-5v-12a5,5,0,0,1,5,-5z"></path><g id="node_text39" fill="black"><text id="kity_text_198" text-rendering="inherit" font-size="12" dy=".8em" y="1162.5" x="1076.5">暂停与恢复</text></g></g><g id="minder_node43"><g id="node_expander36" style="cursor: pointer;" display="none"><path id="kity_path_359" fill="white" stroke="gray" d="M1186.5,1142.5A6,6,0,1,1,1174.5,1142.5A6,6,0,1,1,1186.5,1142.5"></path><path id="kity_path_360" fill="none" stroke="gray"></path></g><path id="node_outline37" fill="none" stroke="none" d="M1191.5,1131.5h321a5,5,0,0,1,5,5v12a5,5,0,0,1,-5,5h-321a5,5,0,0,1,-5,-5v-12a5,5,0,0,1,5,-5z"></path><g id="node_text37" fill="black"><text id="kity_text_194" text-rendering="inherit" font-size="12" dy=".8em" y="1136.5" x="1196.5">queue.suspended = true //暂停queue中所有operation  </text></g></g><g id="minder_node44"><g id="node_expander37" style="cursor: pointer;" display="none"><path id="kity_path_362" fill="white" stroke="gray" d="M1186.5,1194.5A6,6,0,1,1,1174.5,1194.5A6,6,0,1,1,1186.5,1194.5"></path><path id="kity_path_363" fill="none" stroke="gray"></path></g><path id="node_outline38" fill="none" stroke="none" d="M1191.5,1183.5h325a5,5,0,0,1,5,5v12a5,5,0,0,1,-5,5h-325a5,5,0,0,1,-5,-5v-12a5,5,0,0,1,5,-5z"></path><g id="node_text38" fill="black"><text id="kity_text_196" text-rendering="inherit" font-size="12" dy=".8em" y="1188.5" x="1196.5">queue.suspended = false //恢复queue中所有operation</text></g></g></g></g></svg>