<svg id="kity_svg_6" xmlns="http://www.w3.org/2000/svg" xmlns:xlink="http://www.w3.org/1999/xlink" version="1.1" width="562" height="889" style="background: rgb(251, 251, 251); visibility: visible;" viewBox="0 0 562 889"><defs id="kity_defs_7"><linearGradient id="kity_linearGradient_17" x1="0" y1="0" x2="0" y2="1"><stop id="kity_stop_18" offset="0" stop-color="rgb(255, 255, 255)"></stop><stop id="kity_stop_19" offset="1" stop-color="rgb(204, 204, 204)"></stop></linearGradient><marker id="kity_marker_2" orient="auto" refX="6" refY="0" viewBox="-7 -7 14 14" markerWidth="7" markerHeight="7" markerUnits="userSpaceOnUse"><path id="kity_path_3" fill="rgb(115, 161, 191)" stroke="none" d="M6,0A6,6,0,1,1,-6,0A6,6,0,1,1,6,0"></path></marker></defs><g id="kity_g_8"><g id="minder1" text-rendering="optimize-speed"><g id="minder_connect_group1"><path id="kity_path_31" fill="none" stroke="rgb(115, 161, 191)" stroke-width="1" d="M122.5,60.5v30h0V110.5"></path><path id="kity_path_33" fill="none" stroke="rgb(115, 161, 191)" stroke-width="1" d="M40.5,136.5V182.5L60.5,182.5"></path><path id="kity_path_35" fill="none" stroke="rgb(115, 161, 191)" stroke-width="1" d="M80.5,193.5V234.5L100.5,234.5"></path><path id="kity_path_37" fill="none" stroke="rgb(115, 161, 191)" stroke-width="1" d="M40.5,136.5V286.5L60.5,286.5"></path><path id="kity_path_39" fill="none" stroke="rgb(115, 161, 191)" stroke-width="1" d="M80.5,297.5V338.5L100.5,338.5"></path><path id="kity_path_41" fill="none" stroke="rgb(115, 161, 191)" stroke-width="1" d="M120.5,349.5V390.5L140.5,390.5"></path><path id="kity_path_43" fill="none" stroke="none" display="none"></path><path id="kity_path_45" fill="none" stroke="none" display="none"></path><path id="kity_path_47" fill="none" stroke="rgb(115, 161, 191)" stroke-width="1" d="M120.5,349.5V442.5L140.5,442.5"></path><path id="kity_path_49" fill="none" stroke="rgb(115, 161, 191)" stroke-width="1" d="M160.5,453.5V494.5L180.5,494.5"></path><path id="kity_path_51" fill="none" stroke="rgb(115, 161, 191)" stroke-width="1" d="M200.5,505.5V546.5L220.5,546.5"></path><path id="kity_path_53" fill="none" stroke="rgb(115, 161, 191)" stroke-width="1" d="M200.5,505.5V598.5L220.5,598.5"></path><path id="kity_path_55" fill="none" stroke="rgb(115, 161, 191)" stroke-width="1" d="M240.5,609.5V650.5L260.5,650.5"></path><path id="kity_path_57" fill="none" stroke="rgb(115, 161, 191)" stroke-width="1" d="M280.5,661.5V702.5L300.5,702.5"></path><path id="kity_path_59" fill="none" stroke="rgb(115, 161, 191)" stroke-width="1" d="M320.5,713.5V754.5L340.5,754.5"></path><path id="kity_path_61" fill="none" stroke="rgb(115, 161, 191)" stroke-width="1" d="M280.5,661.5V806.5L300.5,806.5"></path><path id="kity_path_63" fill="none" stroke="rgb(115, 161, 191)" stroke-width="1" d="M320.5,817.5V858.5L340.5,858.5"></path></g><g id="minder_node1"><path id="kity_path_167" fill="rgba(0, 0, 0, .25)" stroke="none" d="M80.5,18.5h140a27,27,0,0,1,27,27v0a27,27,0,0,1,-27,27h-140a27,27,0,0,1,-27,-27v0a27,27,0,0,1,27,-27z" display="none"></path><path id="node_outline1" fill="rgb(115, 161, 191)" stroke="rgb(115, 161, 191)" d="M55.5,20.5h134a5,5,0,0,1,5,5v30a5,5,0,0,1,-5,5h-134a5,5,0,0,1,-5,-5v-30a5,5,0,0,1,5,-5z" stroke-width="3"></path><g id="node_text1" fill="white"><text id="kity_text_22" text-rendering="inherit" font-size="16" dy=".8em" y="32.5" x="74.5">消息转发机制</text></g></g><g id="kity_g_12"><path id="kity_path_13" fill="none" stroke="none" d="M74.5,40.5h0v0h0z"></path></g><g id="kity_g_14"><path id="kity_path_15" fill="none" stroke="none" d="M74.5,40.5h0v0h0z"></path><path id="kity_path_16" fill="none" stroke="none"></path></g><g id="minder_node2"><path id="kity_path_166" fill="rgba(0, 0, 0, .25)" stroke="none" d="M34.5,114.5h207a10,10,0,0,1,10,10v8a10,10,0,0,1,-10,10h-207a10,10,0,0,1,-10,-10v-8a10,10,0,0,1,10,-10z" display="none"></path><g id="node_expander17" style="cursor: pointer;"><path id="kity_path_164" fill="white" stroke="gray" d="M128.5,103.5A6,6,0,1,1,116.5,103.5A6,6,0,1,1,128.5,103.5"></path><path id="kity_path_165" fill="none" stroke="gray" d="M118,103.5L127,103.5"></path></g><path id="node_outline18" fill="rgb(238, 243, 246)" stroke="rgb(115, 161, 191)" d="M23.5,110.5h198a3,3,0,0,1,3,3v20a3,3,0,0,1,-3,3h-198a3,3,0,0,1,-3,-3v-20a3,3,0,0,1,3,-3z" stroke-width="1"></path><g id="node_text18" fill="black"><text id="kity_text_97" text-rendering="inherit" font-size="14" dy=".8em" y="116.5" x="40.5">resolveInstanceMethod:</text></g></g><g id="minder_node3"><g id="node_expander2" style="cursor: pointer;"><path id="kity_path_119" fill="white" stroke="gray" d="M60.5,182.5A6,6,0,1,1,48.5,182.5A6,6,0,1,1,60.5,182.5"></path><path id="kity_path_120" fill="none" stroke="gray" d="M50,182.5L59,182.5"></path></g><path id="node_outline3" fill="none" stroke="none" d="M65.5,171.5h54a5,5,0,0,1,5,5v12a5,5,0,0,1,-5,5h-54a5,5,0,0,1,-5,-5v-12a5,5,0,0,1,5,-5z"></path><g id="node_text3" fill="black"><text id="kity_text_67" text-rendering="inherit" font-size="12" dy=".8em" y="176.5" x="70.5">返回YES</text></g></g><g id="minder_node4"><g id="node_expander1" style="cursor: pointer;" display="none"><path id="kity_path_116" fill="white" stroke="gray" d="M100.5,234.5A6,6,0,1,1,88.5,234.5A6,6,0,1,1,100.5,234.5"></path><path id="kity_path_117" fill="none" stroke="gray"></path></g><path id="node_outline2" fill="none" stroke="none" d="M105.5,223.5h214a5,5,0,0,1,5,5v12a5,5,0,0,1,-5,5h-214a5,5,0,0,1,-5,-5v-12a5,5,0,0,1,5,-5z"></path><g id="node_text2" fill="black"><text id="kity_text_65" text-rendering="inherit" font-size="12" dy=".8em" y="228.5" x="110.5">通过class_addMethod 动态添加方法</text></g></g><g id="minder_node5"><g id="node_expander16" style="cursor: pointer;"><path id="kity_path_161" fill="white" stroke="gray" d="M60.5,286.5A6,6,0,1,1,48.5,286.5A6,6,0,1,1,60.5,286.5"></path><path id="kity_path_162" fill="none" stroke="gray" d="M50,286.5L59,286.5"></path></g><path id="node_outline17" fill="none" stroke="none" d="M65.5,275.5h53a5,5,0,0,1,5,5v12a5,5,0,0,1,-5,5h-53a5,5,0,0,1,-5,-5v-12a5,5,0,0,1,5,-5z"></path><g id="node_text17" fill="black"><text id="kity_text_95" text-rendering="inherit" font-size="12" dy=".8em" y="280.5" x="70.5">返回NO</text></g></g><g id="minder_node6"><g id="node_expander15" style="cursor: pointer;"><path id="kity_path_158" fill="white" stroke="gray" d="M100.5,338.5A6,6,0,1,1,88.5,338.5A6,6,0,1,1,100.5,338.5"></path><path id="kity_path_159" fill="none" stroke="gray" d="M90,338.5L99,338.5"></path></g><path id="node_outline16" fill="none" stroke="none" d="M105.5,327.5h226a5,5,0,0,1,5,5v12a5,5,0,0,1,-5,5h-226a5,5,0,0,1,-5,-5v-12a5,5,0,0,1,5,-5z"></path><g id="node_text16" fill="black"><text id="kity_text_93" text-rendering="inherit" font-size="12" dy=".8em" y="332.5" x="110.5">进入forwardingTargetForSelector:方法</text></g></g><g id="minder_node7"><g id="node_expander5" style="cursor: pointer;"><path id="kity_path_128" fill="white" stroke="gray" d="M140.5,390.5A6,6,0,1,1,128.5,390.5A6,6,0,1,1,140.5,390.5"></path><path id="kity_path_129" fill="none" stroke="gray" d="M130,390.5L139,390.5M134.5,386L134.5,395"></path></g><path id="node_outline6" fill="none" stroke="none" d="M145.5,379.5h106a5,5,0,0,1,5,5v12a5,5,0,0,1,-5,5h-106a5,5,0,0,1,-5,-5v-12a5,5,0,0,1,5,-5z"></path><g id="node_text6" fill="black"><text id="kity_text_73" text-rendering="inherit" font-size="12" dy=".8em" y="384.5" x="150.5">返回备用对象响应</text></g></g><g id="minder_node8" display="none"><g id="node_expander3" style="cursor: pointer;" display="none"><path id="kity_path_122" fill="white" stroke="gray" d="M180.5,431.5A6,6,0,1,1,168.5,431.5A6,6,0,1,1,180.5,431.5"></path><path id="kity_path_123" fill="none" stroke="gray"></path></g><path id="node_outline4" fill="none" stroke="none" d="M175.5,420.5h270a5,5,0,0,1,5,5v12a5,5,0,0,1,-5,5h-270a5,5,0,0,1,-5,-5v-12a5,5,0,0,1,5,-5z"></path><g id="node_text4" fill="black"><text id="kity_text_69" text-rendering="inherit" font-size="12" dy=".8em" y="425.5" x="180.5">指定备选对象响应这个selector，不能指定为self.</text></g></g><g id="minder_node9" display="none"><g id="node_expander4" style="cursor: pointer;" display="none"><path id="kity_path_125" fill="white" stroke="gray" d="M180.5,461.5A6,6,0,1,1,168.5,461.5A6,6,0,1,1,180.5,461.5"></path><path id="kity_path_126" fill="none" stroke="gray"></path></g><path id="node_outline5" fill="none" stroke="none" d="M175.5,450.5h142a5,5,0,0,1,5,5v12a5,5,0,0,1,-5,5h-142a5,5,0,0,1,-5,-5v-12a5,5,0,0,1,5,-5z"></path><g id="node_text5" fill="black"><text id="kity_text_71" text-rendering="inherit" font-size="12" dy=".8em" y="455.5" x="180.5">返回某个对象，调用方法</text></g></g><g id="minder_node10"><g id="node_expander14" style="cursor: pointer;"><path id="kity_path_155" fill="white" stroke="gray" d="M140.5,442.5A6,6,0,1,1,128.5,442.5A6,6,0,1,1,140.5,442.5"></path><path id="kity_path_156" fill="none" stroke="gray" d="M130,442.5L139,442.5"></path></g><path id="node_outline15" fill="none" stroke="none" d="M145.5,431.5h46a5,5,0,0,1,5,5v12a5,5,0,0,1,-5,5h-46a5,5,0,0,1,-5,-5v-12a5,5,0,0,1,5,-5z"></path><g id="node_text15" fill="black"><text id="kity_text_91" text-rendering="inherit" font-size="12" dy=".8em" y="436.5" x="150.5">返回nil</text></g></g><g id="minder_node11"><g id="node_expander13" style="cursor: pointer;"><path id="kity_path_152" fill="white" stroke="gray" d="M180.5,494.5A6,6,0,1,1,168.5,494.5A6,6,0,1,1,180.5,494.5"></path><path id="kity_path_153" fill="none" stroke="gray" d="M170,494.5L179,494.5"></path></g><path id="node_outline14" fill="none" stroke="none" d="M185.5,483.5h251a5,5,0,0,1,5,5v12a5,5,0,0,1,-5,5h-251a5,5,0,0,1,-5,-5v-12a5,5,0,0,1,5,-5z"></path><g id="node_text14" fill="black"><text id="kity_text_89" text-rendering="inherit" font-size="12" dy=".8em" y="488.5" x="190.5">通过methodSignatureForSelector:方法签名</text></g></g><g id="minder_node12"><g id="node_expander6" style="cursor: pointer;" display="none"><path id="kity_path_131" fill="white" stroke="gray" d="M220.5,546.5A6,6,0,1,1,208.5,546.5A6,6,0,1,1,220.5,546.5"></path><path id="kity_path_132" fill="none" stroke="gray"></path></g><path id="node_outline7" fill="none" stroke="none" d="M225.5,535.5h130a5,5,0,0,1,5,5v12a5,5,0,0,1,-5,5h-130a5,5,0,0,1,-5,-5v-12a5,5,0,0,1,5,-5z"></path><g id="node_text7" fill="black"><text id="kity_text_75" text-rendering="inherit" font-size="12" dy=".8em" y="540.5" x="230.5">返回nil，消息无法处理</text></g></g><g id="minder_node13"><g id="node_expander12" style="cursor: pointer;"><path id="kity_path_149" fill="white" stroke="gray" d="M220.5,598.5A6,6,0,1,1,208.5,598.5A6,6,0,1,1,220.5,598.5"></path><path id="kity_path_150" fill="none" stroke="gray" d="M210,598.5L219,598.5"></path></g><path id="node_outline13" fill="none" stroke="none" d="M225.5,587.5h135a5,5,0,0,1,5,5v12a5,5,0,0,1,-5,5h-135a5,5,0,0,1,-5,-5v-12a5,5,0,0,1,5,-5z"></path><g id="node_text13" fill="black"><text id="kity_text_87" text-rendering="inherit" font-size="12" dy=".8em" y="592.5" x="230.5">返回methodSignature</text></g></g><g id="minder_node14"><g id="node_expander11" style="cursor: pointer;"><path id="kity_path_146" fill="white" stroke="gray" d="M260.5,650.5A6,6,0,1,1,248.5,650.5A6,6,0,1,1,260.5,650.5"></path><path id="kity_path_147" fill="none" stroke="gray" d="M250,650.5L259,650.5"></path></g><path id="node_outline12" fill="none" stroke="none" d="M265.5,639.5h177a5,5,0,0,1,5,5v12a5,5,0,0,1,-5,5h-177a5,5,0,0,1,-5,-5v-12a5,5,0,0,1,5,-5z"></path><g id="node_text12" fill="black"><text id="kity_text_85" text-rendering="inherit" font-size="12" dy=".8em" y="644.5" x="270.5">调用forwardInvocation：方法</text></g></g><g id="minder_node15"><g id="node_expander8" style="cursor: pointer;"><path id="kity_path_137" fill="white" stroke="gray" d="M300.5,702.5A6,6,0,1,1,288.5,702.5A6,6,0,1,1,300.5,702.5"></path><path id="kity_path_138" fill="none" stroke="gray" d="M290,702.5L299,702.5"></path></g><path id="node_outline9" fill="none" stroke="none" d="M305.5,691.5h82a5,5,0,0,1,5,5v12a5,5,0,0,1,-5,5h-82a5,5,0,0,1,-5,-5v-12a5,5,0,0,1,5,-5z"></path><g id="node_text9" fill="black"><text id="kity_text_79" text-rendering="inherit" font-size="12" dy=".8em" y="696.5" x="310.5">方法调用成功</text></g></g><g id="minder_node16"><g id="node_expander7" style="cursor: pointer;" display="none"><path id="kity_path_134" fill="white" stroke="gray" d="M340.5,754.5A6,6,0,1,1,328.5,754.5A6,6,0,1,1,340.5,754.5"></path><path id="kity_path_135" fill="none" stroke="gray"></path></g><path id="node_outline8" fill="none" stroke="none" d="M345.5,743.5h46a5,5,0,0,1,5,5v12a5,5,0,0,1,-5,5h-46a5,5,0,0,1,-5,-5v-12a5,5,0,0,1,5,-5z"></path><g id="node_text8" fill="black"><text id="kity_text_77" text-rendering="inherit" font-size="12" dy=".8em" y="748.5" x="350.5">则结束</text></g></g><g id="minder_node17"><g id="node_expander10" style="cursor: pointer;"><path id="kity_path_143" fill="white" stroke="gray" d="M300.5,806.5A6,6,0,1,1,288.5,806.5A6,6,0,1,1,300.5,806.5"></path><path id="kity_path_144" fill="none" stroke="gray" d="M290,806.5L299,806.5"></path></g><path id="node_outline11" fill="none" stroke="none" d="M305.5,795.5h106a5,5,0,0,1,5,5v12a5,5,0,0,1,-5,5h-106a5,5,0,0,1,-5,-5v-12a5,5,0,0,1,5,-5z"></path><g id="node_text11" fill="black"><text id="kity_text_83" text-rendering="inherit" font-size="12" dy=".8em" y="800.5" x="310.5">方法调用失败失败</text></g></g><g id="minder_node18"><g id="node_expander9" style="cursor: pointer;" display="none"><path id="kity_path_140" fill="white" stroke="gray" d="M340.5,858.5A6,6,0,1,1,328.5,858.5A6,6,0,1,1,340.5,858.5"></path><path id="kity_path_141" fill="none" stroke="gray"></path></g><path id="node_outline10" fill="none" stroke="none" d="M345.5,847.5h192a5,5,0,0,1,5,5v12a5,5,0,0,1,-5,5h-192a5,5,0,0,1,-5,-5v-12a5,5,0,0,1,5,-5z"></path><g id="node_text10" fill="black"><text id="kity_text_81" text-rendering="inherit" font-size="12" dy=".8em" y="852.5" x="350.5">进入doesNotRecognizeSelector</text></g></g></g></g></svg>